<?xml version="1.0" standalone="no"?>
<!DOCTYPE svg PUBLIC "-//W3C//DTD SVG 20010904//EN"
 "http://www.w3.org/TR/2001/REC-SVG-20010904/DTD/svg10.dtd">
<svg version="1.0" xmlns="http://www.w3.org/2000/svg"
 width="666.000000pt" height="666.000000pt" viewBox="0 0 666.000000 666.000000"
 preserveAspectRatio="xMidYMid meet">

<g transform="translate(0.000000,666.000000) scale(0.100000,-0.100000)"
fill="#F40001" stroke="none">
<path d="M0 5401 c0 -998 3 -1260 13 -1264 10 -4 10 -6 0 -6 -10 -1 -13 -421
-13 -2066 l0 -2065 228 1 c125 0 247 4 272 8 44 8 44 9 10 11 -19 1 -28 4 -20
7 8 2 22 7 30 10 13 4 12 7 -3 18 -18 13 -17 14 10 17 l28 4 -29 12 c-18 8
-26 17 -22 27 3 8 0 15 -7 15 -8 0 -7 4 3 10 12 7 10 11 -10 18 -23 9 -23 9
11 17 l34 8 -30 7 c-16 4 -23 8 -15 10 11 1 9 4 -5 10 -16 7 -12 9 20 11 28 1
33 3 15 6 -38 7 -48 22 -26 39 19 14 19 14 -5 15 -14 0 -18 3 -9 6 8 2 22 7
30 10 12 4 12 7 -4 19 -19 13 -18 14 10 15 l29 1 -30 8 c-16 4 -24 8 -17 9 7
0 10 6 7 11 -3 6 0 10 7 11 7 0 4 4 -7 9 -19 8 -19 9 3 9 13 1 21 5 18 10 -4
5 0 12 6 14 7 3 0 6 -16 6 -32 1 -26 15 9 24 12 3 3 6 -20 7 l-40 3 40 7 c35
6 37 7 10 9 -16 1 -37 6 -45 11 -12 7 -10 11 10 18 22 9 23 11 8 17 -30 12
-21 35 12 35 38 0 40 19 3 21 -22 2 -19 3 12 9 37 7 38 7 10 10 l-30 2 30 8
c26 7 24 8 -19 9 -56 1 -54 11 7 28 33 8 36 11 17 13 -23 1 -23 2 -5 10 16 7
14 9 -15 9 -25 1 -31 4 -21 10 12 8 12 12 2 25 -12 14 -10 16 12 16 31 0 32
32 2 42 -20 6 -19 6 1 7 31 1 26 31 -5 31 -33 0 -15 17 24 23 24 3 20 5 -15 6
l-45 3 35 11 c30 9 32 11 13 15 -32 5 -29 22 5 22 18 0 23 3 14 9 -8 4 -12 12
-10 17 1 5 -9 10 -24 12 -16 2 -28 9 -28 18 0 8 11 14 28 15 24 0 25 1 7 9
-18 8 -18 9 5 10 23 1 23 2 6 11 -13 8 -15 13 -6 19 7 4 0 10 -20 13 -34 7
-32 27 3 27 12 0 29 5 37 11 12 9 11 10 -7 6 -16 -3 -23 0 -23 9 0 8 -7 14
-15 14 -22 0 -18 17 7 34 21 15 21 16 3 17 -13 1 -9 4 10 9 l30 8 -35 1 c-31
1 -33 3 -15 13 19 11 19 11 0 19 -19 7 -19 8 -1 8 12 1 16 6 12 16 -3 10 1 15
12 16 11 1 8 4 -8 9 -23 7 -23 8 10 10 32 2 33 3 10 9 l-25 8 25 5 c18 4 12 6
-17 7 -59 2 -54 21 5 22 45 2 45 2 12 8 -33 6 -34 7 -10 14 20 5 22 9 11 16
-11 7 -9 10 10 14 23 4 23 4 -3 6 -37 2 -46 21 -11 22 22 2 20 3 -12 9 -39 7
-39 7 -7 9 42 1 32 21 -11 21 -27 1 -29 2 -14 11 9 6 15 14 12 19 -3 5 10 14
30 21 l34 13 -29 14 -29 14 27 24 27 23 -45 2 c-42 2 -43 3 -10 7 29 4 32 6
15 12 -18 8 -18 9 5 10 24 1 24 1 7 15 -18 13 -17 14 10 18 20 3 16 4 -15 6
-39 1 -42 3 -28 16 8 8 25 15 39 15 14 0 24 6 24 15 0 9 -10 15 -24 15 -14 0
-21 4 -18 10 3 6 1 10 -4 10 -19 0 -12 17 12 28 20 10 18 11 -18 13 l-40 2 45
7 c43 7 44 7 9 8 -24 2 -36 7 -36 17 0 10 12 15 36 16 28 1 31 3 11 7 -23 4
-24 5 -5 13 17 7 17 8 -7 8 -31 1 -38 17 -10 24 16 4 16 5 0 6 -29 2 -22 31 7
31 35 0 31 13 -13 38 -29 17 -33 22 -16 22 12 0 24 7 28 15 3 8 12 15 21 15
22 0 18 18 -5 22 -31 5 -28 22 6 29 l29 7 -35 2 -35 2 30 8 c29 7 29 8 5 10
-24 2 -24 3 5 10 l30 8 -35 2 -35 3 35 7 35 7 -40 3 c-38 2 -39 3 -10 9 l30 7
-28 7 c-24 7 -26 9 -13 22 8 8 23 15 33 16 10 0 3 5 -15 10 -18 5 -30 14 -27
19 4 6 2 10 -3 10 -5 0 -9 7 -9 15 0 10 11 15 36 16 20 1 28 3 19 6 -21 5 -23
19 -6 26 7 3 -2 6 -21 6 -42 1 -34 12 16 21 l38 8 -37 1 c-51 1 -60 21 -9 21
34 0 40 3 38 20 -1 16 -9 20 -42 21 l-40 2 40 7 c22 4 30 8 18 9 -31 2 -39 21
-9 21 32 0 35 20 4 21 -19 1 -17 3 7 9 28 7 29 8 5 10 -23 1 -23 2 -5 10 18 7
18 8 -7 15 -31 8 -36 22 -12 32 13 5 10 9 -12 19 l-29 12 30 1 c23 1 26 4 15
11 -13 8 -13 9 0 14 42 13 44 14 22 15 -13 1 -20 5 -17 11 3 6 -4 10 -17 11
-23 1 -23 1 2 9 l25 8 -27 1 c-31 1 -33 17 -6 42 10 9 15 19 11 23 -3 3 1 6
11 6 9 0 14 5 11 10 -3 6 -17 10 -31 10 -35 0 -30 17 9 26 28 6 29 8 12 15
-11 4 -15 8 -10 8 6 1 3 6 -5 11 -12 8 -13 11 -1 19 11 7 11 10 0 15 -8 3 -1
3 16 0 16 -3 32 -9 35 -13 8 -12 71 -41 89 -41 14 -1 13 -3 -2 -14 -18 -14
-18 -14 0 -19 10 -3 36 -8 57 -12 29 -5 36 -9 25 -16 -11 -7 -11 -9 4 -9 9 0
17 -4 17 -10 0 -19 45 -50 74 -50 24 0 27 -3 16 -10 -12 -8 -9 -10 12 -10 15
0 30 -4 33 -10 3 -6 18 -10 33 -10 21 0 24 -2 12 -10 -12 -8 -11 -11 9 -17 23
-6 23 -7 5 -14 -15 -5 -10 -9 23 -14 24 -4 41 -11 38 -15 -8 -12 17 -27 58
-34 21 -4 35 -11 32 -17 -4 -5 9 -9 27 -10 31 -1 32 -1 8 -9 -24 -8 -24 -8 7
-9 33 -1 58 -21 26 -21 -31 0 7 -19 42 -21 30 -2 30 -2 -5 -9 -33 -7 -31 -7
18 -9 28 0 52 -5 52 -9 0 -5 12 -13 28 -19 27 -11 26 -11 -13 -13 -32 -1 -36
-3 -20 -10 11 -5 38 -9 60 -10 22 -1 31 -4 20 -7 -41 -10 -39 -23 4 -23 24 0
40 -4 36 -10 -3 -5 9 -14 27 -19 l33 -9 -29 -1 c-28 -1 -29 -2 -10 -16 10 -8
27 -15 37 -15 9 0 17 -4 17 -9 0 -6 21 -13 48 -17 26 -4 42 -9 35 -11 -25 -9
1 -33 41 -40 37 -6 38 -7 16 -14 -19 -5 -14 -7 25 -9 41 -2 45 -3 25 -10 -22
-7 -20 -8 15 -10 35 -2 37 -3 15 -10 -23 -7 -22 -8 10 -10 29 -1 32 -3 15 -10
-16 -7 -12 -9 20 -10 22 -1 32 -4 23 -7 -28 -7 -21 -21 15 -28 57 -12 63 -15
63 -35 0 -11 -5 -20 -11 -20 -5 -1 26 -13 70 -27 64 -21 75 -27 56 -32 l-24
-6 27 -13 c15 -6 35 -12 44 -12 13 0 14 -2 4 -9 -18 -11 7 -21 51 -21 24 0 28
-3 17 -10 -11 -7 -7 -10 20 -11 l35 -2 -35 -7 c-19 -4 -27 -8 -17 -9 9 0 17
-5 17 -11 0 -5 21 -11 48 -11 46 -2 46 -2 12 -9 l-35 -7 42 -2 c30 -1 41 -5
37 -14 -5 -14 59 -47 92 -47 10 0 28 -7 38 -15 19 -15 19 -15 -5 -16 -13 0
-18 -3 -11 -6 6 -2 10 -9 6 -14 -3 -5 16 -9 43 -10 33 0 42 -3 28 -8 -16 -6
-14 -9 15 -15 27 -5 32 -9 20 -16 -12 -8 -10 -10 10 -11 l25 -1 -25 -8 c-20
-7 -16 -8 22 -9 36 -1 50 -6 58 -21 9 -17 8 -20 -12 -21 -13 0 0 -8 31 -18 32
-10 50 -21 43 -25 -17 -10 -15 -26 3 -26 8 0 15 -7 15 -15 0 -10 10 -15 29
-15 16 0 37 -3 47 -7 16 -6 16 -7 -2 -14 -14 -6 -8 -8 21 -9 34 -2 36 -3 15
-9 l-25 -7 25 -7 c14 -4 36 -7 50 -7 20 0 22 -2 10 -10 -12 -8 -10 -10 9 -10
16 0 21 -4 17 -15 -4 -12 6 -15 57 -17 l62 -1 -65 -6 c-81 -7 -57 -21 38 -22
47 0 61 -3 47 -9 -17 -7 -14 -9 15 -10 l35 -2 -30 -8 -30 -8 35 -1 c23 -1 31
-4 22 -10 -10 -6 -8 -10 8 -14 12 -3 19 -10 15 -16 -3 -7 2 -11 15 -11 11 0
23 -7 26 -15 4 -9 20 -15 43 -16 29 0 32 -2 16 -9 -20 -9 -20 -9 0 -9 11 -1
25 -11 30 -23 6 -13 21 -24 35 -26 14 -2 29 -8 34 -13 6 -5 26 -9 45 -9 36 0
34 -14 -4 -22 -18 -4 -17 -6 8 -16 16 -7 40 -12 53 -12 14 0 23 -4 20 -9 -4
-5 8 -12 25 -16 23 -5 28 -9 18 -16 -10 -6 -7 -9 11 -10 18 -1 20 -3 7 -6 -18
-5 -18 -5 0 -19 10 -7 30 -14 46 -14 15 0 44 -9 64 -20 23 -12 31 -20 20 -20
-10 0 -15 -4 -12 -10 3 -5 21 -10 38 -10 30 -1 31 -1 13 -15 -18 -14 -16 -15
35 -16 30 -1 42 -4 26 -6 -34 -5 -26 -23 11 -23 33 -1 70 -25 50 -33 -7 -3 -1
-6 13 -6 15 -1 32 -8 39 -16 7 -8 20 -15 29 -16 9 -1 5 -4 -9 -8 -24 -7 -24
-8 8 -15 18 -4 36 -14 39 -22 3 -8 19 -14 40 -14 20 0 32 -4 28 -10 -4 -6 6
-10 22 -11 l28 -1 -28 -12 c-37 -16 -24 -26 37 -27 38 0 46 -3 31 -9 -16 -7
-12 -9 20 -11 l40 -2 -35 -7 -35 -7 37 -2 c39 -1 65 -21 28 -21 -32 0 -14 -18
31 -31 23 -7 35 -15 28 -19 -17 -11 3 -20 63 -27 48 -6 50 -8 23 -14 -27 -6
-25 -7 15 -9 25 -1 39 -4 32 -7 -24 -10 -11 -23 24 -23 21 0 33 -4 29 -10 -3
-5 2 -10 12 -11 16 0 16 -1 -2 -9 -18 -8 -18 -9 5 -9 14 -1 32 -10 40 -21 9
-12 26 -20 45 -21 25 0 27 -2 10 -8 -17 -7 -16 -9 13 -15 33 -8 42 -20 20 -29
-7 -3 -2 -6 10 -6 13 -1 31 -10 40 -21 10 -11 37 -24 62 -29 39 -8 41 -9 15
-11 -25 -2 -26 -4 -7 -7 12 -2 22 -9 22 -14 0 -5 14 -9 30 -9 31 0 43 -19 13
-21 -10 -1 1 -5 25 -11 23 -5 40 -13 37 -19 -4 -5 3 -9 14 -9 12 0 21 -4 21
-9 0 -9 37 -25 85 -36 27 -7 28 -8 10 -15 -11 -5 -15 -9 -8 -9 6 -1 24 -6 40
-12 26 -10 27 -12 8 -19 -15 -7 -9 -9 25 -11 l45 -2 -35 -7 c-19 -4 388 -8
905 -9 610 0 935 3 925 9 -8 5 -31 10 -50 11 -19 0 -29 3 -23 6 24 9 13 22
-24 29 -35 7 -36 8 -13 14 21 5 18 8 -27 19 -29 7 -57 19 -64 27 -6 8 -16 14
-21 14 -5 0 -16 7 -24 15 -9 8 -27 15 -42 15 -25 0 -25 1 -6 15 18 13 17 14
-19 15 -23 0 -36 4 -32 10 4 6 -6 11 -22 11 -26 2 -25 2 7 9 l35 7 -32 2 c-41
1 -83 20 -83 38 0 8 -12 13 -32 14 -27 0 -29 2 -13 8 19 8 19 8 -2 19 -12 7
-30 12 -40 13 -13 1 -11 3 7 9 22 7 21 8 -13 9 -23 1 -36 5 -32 11 3 6 -1 10
-10 10 -9 0 -13 5 -10 10 4 6 -6 10 -22 11 -15 0 -22 3 -16 6 20 8 -11 33 -41
33 -30 0 -43 17 -19 23 10 3 -4 6 -32 7 -48 3 -49 3 -15 10 l35 7 -37 2 c-46
1 -91 18 -83 31 3 5 -7 12 -22 16 -15 4 -37 13 -48 20 -18 13 -18 14 10 14 40
0 13 19 -30 21 l-30 1 30 8 30 8 -35 2 c-29 1 -32 3 -15 10 14 6 4 9 -37 9
-62 1 -75 13 -30 29 l27 10 -35 1 c-26 1 -31 4 -20 11 11 7 3 10 -28 10 -24 0
-41 4 -38 9 3 5 -11 16 -32 24 -25 11 -31 16 -17 17 19 1 19 2 -2 12 -13 6
-23 15 -23 20 0 4 -12 8 -27 8 -22 0 -25 2 -13 10 13 8 12 10 -2 10 -10 0 -18
5 -18 10 0 6 -16 10 -35 10 -39 0 -48 16 -12 23 12 2 -3 5 -33 7 -30 1 -47 4
-37 7 26 7 21 23 -7 23 -30 0 -43 17 -19 23 14 4 13 5 -4 6 -13 0 -23 5 -23
11 0 5 -17 12 -37 15 -21 4 -51 12 -68 18 l-29 11 24 7 c24 7 24 7 -5 9 -26 1
-27 3 -10 9 17 7 16 9 -12 15 -18 4 -33 11 -33 16 0 4 -20 11 -45 14 -41 7
-64 26 -31 26 8 0 18 5 22 12 4 6 3 8 -3 5 -12 -8 -104 23 -127 42 -9 7 -13
17 -10 22 3 5 -7 9 -23 10 l-28 1 25 8 c21 7 19 8 -18 9 -28 1 -41 5 -40 14 2
7 -9 13 -26 15 -22 3 -26 6 -15 13 11 7 10 10 -8 15 -13 4 -20 10 -17 15 3 5
-7 9 -23 10 l-28 1 25 8 c25 8 24 8 -5 9 -23 1 -27 3 -15 11 11 7 3 10 -30 10
-63 0 -90 19 -30 21 l45 2 -45 7 c-25 4 -39 8 -32 8 21 3 3 22 -21 23 -21 0
-21 1 -2 9 17 7 15 9 -12 9 -17 1 -39 4 -49 8 -16 6 -16 7 2 14 13 5 6 8 -26
9 -36 2 -40 3 -20 9 22 6 23 8 7 14 -10 4 -34 7 -53 7 -23 0 -33 4 -29 11 4 6
-2 13 -14 16 -17 4 -19 8 -10 26 11 19 9 20 -22 13 -24 -4 -29 -3 -19 4 12 7
8 11 -18 16 -18 4 -30 9 -28 12 3 2 1 13 -5 23 -7 15 -22 19 -62 20 -45 1 -48
2 -22 9 l30 8 -30 2 c-26 1 -27 3 -10 9 17 7 15 9 -15 16 -30 7 -32 9 -15 16
14 5 7 8 -26 8 -32 1 -49 6 -53 16 -4 10 1 15 17 16 17 1 18 2 5 6 -10 2 -18
9 -18 14 0 5 -16 9 -35 9 -19 0 -35 4 -35 9 0 5 -10 11 -22 13 -15 2 -22 9
-22 21 2 14 -7 17 -45 18 l-46 2 40 7 40 7 -45 2 c-25 1 -53 8 -63 16 -18 13
-17 14 10 18 l28 4 -28 2 c-16 0 -25 5 -22 11 3 6 -5 10 -19 10 -13 0 -32 3
-41 6 -13 5 -14 8 -3 15 9 6 6 9 -12 9 -14 0 -34 7 -44 15 -19 14 -19 15 -1
15 31 0 7 14 -63 37 -37 12 -61 22 -53 22 11 1 11 4 1 16 -10 12 -10 15 1 15
25 0 -14 20 -39 20 -13 0 -33 5 -45 12 l-22 12 25 7 c20 6 16 7 -20 9 -38 2
-41 3 -20 10 23 7 23 8 -10 10 -33 2 -33 3 -10 10 21 7 18 8 -20 10 -42 2 -43
3 -15 10 27 7 24 8 -20 10 -36 1 -44 4 -30 9 16 7 12 10 -23 15 -23 4 -40 12
-36 17 3 5 -1 9 -8 10 -7 0 -4 4 7 9 17 7 16 9 -10 10 -16 0 -57 14 -90 30
l-60 30 35 1 c31 2 32 2 7 6 -16 3 -31 11 -34 19 -3 8 -19 14 -39 14 -41 0
-45 17 -6 23 18 3 12 5 -18 6 -57 2 -92 21 -40 21 l35 0 -33 20 c-18 11 -51
21 -75 21 -40 1 -40 2 -12 9 l30 8 -30 1 c-35 2 -73 21 -42 21 32 0 7 20 -26
21 -31 1 -31 1 -7 9 23 7 22 8 -10 9 -26 1 -31 4 -20 11 13 9 13 10 0 10 -34
0 -90 22 -90 35 0 8 -17 16 -42 21 -39 7 -41 8 -18 15 24 7 24 7 3 8 -25 1
-31 16 -10 24 6 3 -3 6 -20 6 -18 1 -33 6 -33 11 0 6 -15 10 -32 11 -28 0 -30
2 -13 9 16 7 13 9 -17 9 -21 1 -38 6 -38 11 0 6 -7 10 -16 10 -8 0 -12 5 -9
10 3 6 1 10 -5 10 -6 0 -8 4 -5 10 3 6 -1 10 -10 10 -9 0 -14 4 -11 9 7 11
-18 21 -54 21 -35 0 -47 15 -23 29 16 9 14 10 -9 11 -16 0 -28 5 -28 10 0 6
-9 10 -20 10 -11 0 -23 7 -26 15 -4 8 -16 15 -28 16 -19 1 -19 2 4 9 21 7 18
8 -18 9 -26 1 -41 5 -37 11 4 6 -6 11 -22 11 l-28 1 30 8 c28 7 28 8 5 9 -20
1 -22 3 -10 11 12 8 10 10 -10 10 -43 0 -71 12 -66 26 4 9 -2 14 -17 15 -35 0
-102 31 -138 63 -30 27 -31 30 -13 36 15 6 9 10 -26 18 -25 5 -36 10 -25 11
17 1 17 3 5 11 -8 5 -26 10 -41 10 -14 0 -29 4 -35 9 -5 5 -18 11 -29 14 -18
4 -18 5 3 6 27 1 30 21 3 21 -11 0 -27 3 -36 6 -13 5 -14 8 -3 15 10 7 9 9 -4
9 -10 0 -18 4 -18 9 0 5 -18 11 -40 15 -22 3 -49 15 -60 26 -20 20 -20 20 8
21 19 1 22 3 7 6 -11 2 -29 8 -40 13 -11 5 -36 11 -55 13 -35 3 -35 3 -10 14
28 12 23 16 -49 30 -43 8 -44 9 -27 26 17 16 15 17 -31 18 -35 1 -41 3 -24 8
23 6 23 7 7 24 -10 10 -34 18 -59 18 l-42 2 35 7 35 7 -40 2 c-27 2 -34 5 -22
9 13 6 7 11 -28 21 -46 14 -60 31 -25 31 11 0 20 5 20 10 0 6 8 10 18 11 14 0
14 2 -3 9 -18 8 -17 9 8 9 24 1 41 21 17 21 -24 0 6 30 36 36 18 3 32 11 31
18 -1 6 17 14 43 17 38 5 40 6 12 7 -45 3 -31 22 16 23 20 0 46 4 57 9 21 8
21 8 -25 23 -8 3 -2 6 13 6 26 1 70 29 50 32 -4 1 5 4 21 8 37 8 45 28 14 34
-13 2 0 5 29 6 61 1 80 18 26 23 l-38 4 45 9 c44 9 44 9 15 16 -24 5 -18 7 30
9 33 2 48 5 32 7 -23 4 -25 6 -13 19 8 8 19 14 25 14 5 0 22 5 38 11 22 8 24
12 13 19 -12 8 -9 10 10 11 l25 1 -25 7 c-21 6 -18 9 25 15 35 6 44 10 32 15
-16 6 -16 9 -5 18 7 6 23 14 36 17 12 4 20 12 17 17 -4 5 5 9 19 9 15 0 25 5
23 12 -1 7 9 14 23 17 23 3 24 4 5 12 -16 6 -13 8 15 8 51 2 76 20 30 22 -30
2 -31 3 -7 6 15 2 27 9 27 14 0 5 8 9 18 10 11 1 8 4 -8 9 -24 7 -23 7 12 15
21 4 35 11 32 16 -3 5 2 9 10 9 9 0 16 5 16 11 0 6 9 8 21 4 15 -5 19 -4 15 4
-4 6 0 11 10 11 13 0 14 3 4 15 -10 13 -9 15 11 15 13 1 38 7 54 15 l30 13
-29 1 c-48 1 -17 21 45 28 52 7 53 8 19 14 l-35 6 35 2 c45 2 78 21 38 21 -16
0 -28 5 -28 10 0 6 24 10 53 10 l52 1 -30 14 c-29 13 -29 14 -7 20 12 4 22 14
22 21 0 10 15 14 53 15 28 1 43 3 32 6 -41 10 -39 23 3 23 45 0 54 14 25 36
-16 12 -16 13 -2 14 9 0 22 7 29 15 7 8 32 25 56 37 24 12 44 25 44 30 0 4 14
8 30 8 17 0 30 5 30 10 0 6 10 10 23 11 21 0 21 1 -3 10 -24 10 -24 11 -6 25
11 8 16 14 10 15 -5 1 9 7 31 14 22 7 39 18 38 24 -2 6 5 11 15 11 10 0 27 7
38 15 19 14 19 14 0 15 -17 0 -17 2 4 20 13 11 29 20 37 20 7 0 13 4 13 9 0 5
24 12 53 16 41 6 48 9 32 15 -19 8 -19 9 4 16 23 7 24 8 5 15 -16 6 -14 8 9 8
16 1 26 5 22 11 -4 6 6 10 22 10 15 0 37 7 47 15 19 14 18 15 -15 16 -31 1
-30 2 16 13 42 11 46 13 25 18 -24 5 -23 5 5 7 26 2 27 3 10 11 -17 7 -15 9
13 9 21 1 32 6 32 16 0 8 9 15 21 15 11 0 17 5 14 10 -3 6 4 10 15 10 16 0 20
5 16 15 -4 11 1 15 17 15 18 0 19 2 7 10 -12 8 -8 10 15 11 l30 1 -30 7 c-26
7 -22 9 35 18 47 8 55 11 30 12 -48 2 -19 21 33 21 40 0 48 13 20 29 -15 9
-14 10 11 11 23 0 26 2 17 14 -10 12 -5 16 31 24 31 7 36 10 18 12 -17 1 -10
6 25 14 48 12 49 13 25 24 -23 10 -22 11 17 11 23 1 45 6 48 11 4 6 -5 10 -19
10 -41 0 -30 18 17 26 37 6 39 8 17 14 -23 6 -23 7 -5 12 11 4 35 9 52 13 18
4 31 11 30 17 -1 6 9 15 23 19 l25 7 -25 2 c-22 2 -21 3 10 12 34 11 34 11 10
18 -20 6 -15 8 25 10 46 2 47 3 16 9 l-34 6 24 13 c14 7 47 17 74 21 36 6 42
9 20 10 l-30 2 25 14 c14 8 33 14 42 15 9 0 19 9 23 19 4 13 17 21 38 24 30 4
30 4 -6 5 -57 3 -35 22 26 23 45 1 48 2 22 9 -28 7 -28 8 -5 9 14 1 32 6 40
11 12 8 8 10 -15 11 -29 1 -28 2 10 14 36 11 38 13 15 17 -17 4 -11 6 20 8 38
2 41 3 20 10 -30 9 -14 18 39 22 40 3 53 24 19 31 -13 2 -3 5 22 6 35 2 41 4
25 11 -18 8 -17 9 8 9 15 1 27 5 27 11 0 5 15 14 33 19 29 8 30 9 7 11 -24 2
-23 3 5 10 17 4 22 8 13 9 -28 2 -21 21 7 21 14 0 25 5 25 10 0 6 8 10 18 10
10 0 30 6 44 12 l26 13 -26 12 -27 11 37 1 c20 1 40 6 43 11 3 6 2 10 -4 10
-6 0 -8 7 -5 15 4 10 20 15 48 15 30 0 37 3 26 10 -12 8 -12 10 5 10 16 0 17
2 6 9 -11 7 -6 11 20 14 l34 4 -32 1 c-18 1 -33 6 -33 11 0 11 17 17 80 27
l45 7 -30 13 -30 12 35 4 c21 2 34 8 33 16 -2 7 9 12 30 13 26 0 28 2 12 8
-16 7 -12 10 25 19 39 9 41 10 15 12 l-30 2 35 13 c24 9 29 14 15 14 -31 2 3
21 36 21 34 0 49 30 16 31 -21 0 -21 1 -2 9 11 5 34 9 52 9 25 1 31 5 27 16
-4 10 0 15 16 15 11 0 19 4 15 9 -3 5 -1 12 5 16 6 4 8 11 5 16 -4 5 12 9 35
9 33 0 41 3 37 14 -4 10 4 18 21 25 15 5 21 10 14 10 -30 2 2 21 35 21 30 0
34 2 23 15 -10 13 -9 15 12 15 35 0 42 12 16 27 -22 12 -21 12 17 14 39 1 39
2 10 9 -29 7 -29 8 10 10 35 2 37 3 15 10 -21 7 -18 8 20 10 42 2 43 3 15 10
l-30 8 35 1 c26 1 31 4 20 11 -12 7 -8 11 19 16 30 6 32 8 17 20 -15 11 -10
14 41 25 61 13 91 28 58 30 -16 1 -15 3 5 9 23 7 23 8 -10 10 -31 2 -29 3 20
14 30 6 56 17 57 24 2 9 -163 12 -798 12 -681 0 -800 -2 -796 -14 4 -10 -9
-16 -51 -22 -55 -7 -56 -8 -22 -15 l35 -6 -30 -3 c-18 -1 -23 -4 -12 -7 27 -7
20 -23 -10 -24 -33 -1 -116 -26 -90 -28 23 -1 22 -21 -1 -21 -10 0 -23 -5 -28
-10 -6 -6 -35 -14 -65 -17 -52 -7 -53 -8 -19 -14 35 -6 35 -6 -10 -8 -35 -2
-41 -4 -25 -11 17 -7 14 -9 -15 -10 l-35 -2 30 -8 c29 -7 29 -8 -10 -9 -38 -2
-39 -2 -17 -14 26 -15 19 -27 -16 -27 -21 0 -22 -2 -12 -15 11 -13 5 -15 -41
-16 -55 -1 -54 -2 16 -15 l40 -7 -35 -10 c-19 -5 -29 -12 -22 -14 24 -9 0 -23
-38 -23 -31 0 -38 -3 -34 -15 4 -8 1 -15 -6 -15 -6 0 -8 -4 -5 -10 3 -5 -1
-10 -9 -10 -9 0 -16 -7 -16 -15 0 -10 -10 -15 -27 -16 -32 -1 -78 -17 -52 -18
9 -1 16 -8 16 -16 0 -10 -10 -15 -31 -15 -40 0 -73 -19 -36 -21 20 0 17 -3
-15 -14 -39 -13 -39 -13 -10 -15 27 -2 26 -3 -15 -14 -34 -10 -40 -14 -25 -18
16 -5 15 -6 -6 -7 -15 0 -29 -8 -33 -16 -3 -8 -18 -15 -33 -16 l-28 0 25 -11
c23 -10 21 -12 -37 -25 -68 -16 -82 -32 -30 -34 30 -2 30 -2 4 -6 -15 -2 -25
-9 -22 -14 4 -5 -2 -9 -12 -10 -16 0 -16 -1 2 -9 15 -6 8 -9 -28 -9 -44 -1
-48 -3 -45 -23 3 -20 -2 -23 -32 -26 l-35 -4 25 -13 c19 -11 21 -14 8 -15 -10
0 -18 -4 -18 -9 0 -4 -34 -14 -75 -21 -71 -12 -90 -22 -62 -33 6 -3 1 -6 -13
-7 l-25 -2 25 -8 25 -8 -28 -1 c-15 -1 -30 -8 -33 -16 -4 -8 -16 -15 -28 -16
-20 0 -20 -1 -1 -9 16 -7 10 -9 -25 -11 -31 -1 -37 -3 -17 -6 50 -8 25 -33
-33 -33 -33 0 -49 -16 -23 -23 10 -3 0 -6 -22 -7 -35 -2 -37 -3 -15 -10 l25
-8 -25 -1 c-14 -1 -32 -6 -40 -11 -12 -8 -10 -10 8 -10 35 0 16 -20 -21 -21
l-32 -1 30 -8 c27 -7 25 -8 -17 -9 -52 -1 -65 -17 -20 -24 l27 -4 -27 -2 c-21
-1 -28 -6 -28 -21 0 -11 -4 -20 -10 -20 -5 0 -18 -8 -28 -18 -10 -10 -40 -26
-67 -37 l-50 -19 35 -7 c33 -6 32 -7 -15 -9 -44 -2 -46 -3 -20 -10 l30 -7 -40
-8 -40 -9 30 -7 c30 -7 30 -7 3 -8 -29 -1 -46 -17 -26 -23 7 -3 -7 -8 -31 -12
-55 -9 -70 -17 -45 -26 14 -6 9 -9 -23 -14 -51 -9 -57 -26 -10 -27 27 0 29 -2
12 -9 -11 -5 -36 -9 -55 -10 -19 -1 -27 -4 -17 -7 30 -8 18 -23 -25 -30 -32
-5 -38 -8 -23 -13 16 -5 12 -8 -19 -14 -27 -5 -36 -11 -32 -22 4 -10 -3 -14
-22 -15 -17 -1 -20 -3 -9 -6 31 -8 20 -33 -15 -34 -18 0 -42 -4 -53 -9 -17 -7
-14 -9 15 -10 30 -2 26 -4 -25 -14 -47 -10 -54 -14 -35 -18 24 -5 23 -5 -5 -7
-26 -2 -27 -3 -10 -11 18 -8 17 -9 -7 -9 -20 -1 -26 -5 -22 -16 4 -9 0 -15
-10 -15 -9 0 -16 -4 -16 -10 0 -5 -9 -10 -20 -10 -11 0 -19 -5 -18 -12 2 -7
-12 -15 -32 -19 -29 -5 -31 -7 -10 -9 21 -2 20 -4 -10 -10 -26 -6 -29 -8 -11
-9 34 -2 21 -10 -30 -20 -41 -8 -42 -9 -11 -10 30 -1 32 -3 18 -16 -8 -8 -26
-15 -40 -15 -14 0 -26 -4 -26 -10 0 -5 -12 -10 -27 -11 l-28 -1 25 -8 c23 -7
23 -8 3 -9 -30 -1 -38 -19 -11 -23 13 -3 -2 -8 -34 -12 -32 -5 -55 -12 -52
-17 3 -5 -4 -9 -15 -9 -24 0 -60 -32 -42 -38 18 -6 -7 -32 -30 -32 -11 0 -19
-6 -19 -14 0 -9 -15 -17 -40 -21 -22 -4 -38 -11 -35 -15 3 -5 -3 -13 -12 -19
-16 -9 -16 -11 7 -20 24 -9 24 -10 3 -10 -13 -1 -23 -5 -23 -11 0 -5 -14 -10
-31 -10 -16 0 -28 -4 -25 -9 3 -5 -5 -12 -19 -15 -14 -4 -25 -11 -25 -16 0 -6
-9 -10 -20 -10 -10 0 -23 -6 -27 -14 -5 -8 -19 -19 -33 -25 -25 -10 -25 -10
-3 -16 36 -11 16 -35 -31 -36 l-41 -1 30 -13 c30 -14 30 -14 -23 -15 -35 0
-51 -4 -47 -11 4 -6 -2 -13 -14 -16 -27 -7 -27 -21 2 -33 18 -7 13 -9 -25 -9
-50 -1 -79 -21 -31 -21 38 0 10 -19 -32 -21 -30 -2 -30 -2 5 -9 l35 -7 -37 -2
c-20 0 -49 -6 -65 -12 l-28 -12 25 -7 25 -6 -22 -12 c-12 -7 -34 -12 -49 -12
-22 0 -25 -2 -14 -15 10 -12 9 -15 -6 -16 -18 0 -18 -1 1 -8 15 -6 10 -9 -24
-14 -24 -3 -47 -10 -50 -15 -3 -5 -19 -12 -36 -17 -27 -7 -28 -8 -10 -15 18
-8 18 -9 2 -9 -10 -1 -15 -5 -12 -11 8 -13 -5 -13 -25 0 -13 9 -13 10 0 11 8
1 2 5 -15 9 -29 8 -29 8 -7 15 18 6 20 10 10 16 -10 7 -10 9 2 9 13 0 13 1 0
11 -11 7 -6 9 20 6 19 -2 27 -2 17 0 -9 2 -15 8 -12 13 3 5 -5 12 -17 16 l-23
8 24 6 c37 9 38 30 2 30 -56 0 -31 28 27 31 20 1 17 4 -13 9 -30 5 -33 8 -13
9 38 2 46 21 9 21 -48 0 -48 20 1 21 l43 1 -35 10 c-39 11 -63 28 -40 28 11 1
10 5 -4 15 -18 14 -16 15 30 16 l49 1 -45 11 -45 11 39 5 c31 5 36 8 25 17 -8
6 -27 14 -43 18 -20 5 -26 10 -18 15 7 4 10 15 6 24 -3 10 -1 17 6 17 6 0 9 4
5 9 -3 5 0 13 6 17 8 4 7 9 -2 15 -10 6 -5 9 14 9 16 0 26 4 22 10 -3 6 0 10
7 11 7 0 -2 5 -19 10 -18 5 -33 16 -33 24 0 8 -6 15 -12 16 -7 0 0 6 16 13 27
12 28 14 10 24 -17 10 -17 11 -1 12 9 0 17 7 17 15 0 8 -9 15 -19 15 -24 0
-36 29 -15 37 13 5 13 7 2 14 -9 6 -3 9 17 9 17 0 37 5 45 10 12 8 9 10 -12
10 -27 0 -40 19 -15 21 6 1 -1 5 -18 9 -28 7 -28 8 -5 9 20 1 22 3 10 11 -11
7 -6 10 20 11 19 0 29 3 22 6 -6 2 -10 9 -6 14 3 5 -10 9 -28 9 l-33 1 30 14
c30 13 30 13 5 15 -23 1 -23 2 -5 9 19 8 18 9 -5 13 -25 5 -25 5 -1 7 20 1 21
3 11 16 -10 12 -10 15 1 15 11 0 11 2 -1 10 -12 8 -12 10 5 10 18 1 17 2 -5
14 l-24 14 24 5 c23 4 23 4 -5 7 l-30 2 30 8 30 8 -34 1 c-44 1 -36 9 20 20
l44 9 -43 1 c-53 1 -47 21 6 22 l37 1 -40 19 c-27 12 -34 19 -20 19 20 1 20 1
1 15 -15 11 -16 15 -5 19 8 2 21 7 29 9 8 3 -1 6 -20 7 l-35 2 40 11 40 10
-35 13 -35 12 33 1 c40 1 43 21 3 21 -40 0 -48 16 -14 28 25 9 25 11 6 11 -35
1 -36 18 0 25 25 5 29 9 17 16 -13 9 -13 11 0 20 12 8 8 10 -15 11 -17 1 -22
3 -12 6 27 7 20 23 -10 25 -19 1 -13 3 17 8 l45 7 -37 1 c-45 2 -51 23 -10 39
26 11 25 12 -13 8 -22 -2 -31 -2 -20 2 36 10 64 38 54 54 -6 10 -2 16 14 21
16 4 10 6 -20 7 -24 1 -43 6 -43 11 0 6 19 11 43 11 l42 2 -35 7 c-23 5 -27 8
-12 9 31 2 28 19 -5 23 l-28 4 25 11 25 12 -30 2 -30 2 35 7 c31 7 32 7 8 9
-38 1 -35 21 3 21 42 0 33 23 -12 31 l-34 6 40 3 c39 2 39 3 10 10 -24 6 -25
8 -8 9 15 1 21 6 17 15 -3 8 2 16 13 19 11 3 7 5 -12 7 -26 1 -27 3 -10 10 19
8 19 9 -2 9 -25 1 -42 21 -18 21 9 0 13 5 10 10 -3 6 3 10 15 10 12 0 18 5 15
10 -3 6 0 10 7 11 7 0 -5 6 -27 14 -36 11 -37 13 -12 14 27 1 40 21 13 21 -7
0 -19 7 -26 15 -11 13 -7 15 26 16 34 1 36 2 14 9 -14 4 -18 9 -10 10 11 1 9
4 -5 10 -19 8 -18 9 5 11 18 1 15 3 -13 8 -47 8 -47 23 1 37 l37 10 -40 11
c-26 7 -32 11 -17 12 23 1 32 20 10 22 -7 1 -2 5 12 9 l25 8 -25 2 c-25 2 -25
2 5 15 l30 14 -35 1 -35 1 25 14 25 14 -28 1 c-16 0 -26 4 -22 10 3 6 17 10
31 10 23 0 24 2 10 15 -8 8 -25 15 -38 15 -18 0 -20 2 -8 10 8 5 26 10 39 10
24 0 24 0 5 15 -13 10 -15 14 -5 15 9 0 4 9 -12 24 l-27 25 38 4 c34 3 35 5
13 12 -23 8 -23 9 -6 22 18 12 18 13 -3 13 -12 0 -22 5 -22 10 0 6 15 10 33
10 l32 1 -25 14 c-19 11 -21 14 -7 15 31 0 18 19 -20 27 l-38 7 35 7 35 6 -35
3 -35 2 30 8 30 8 -30 2 c-28 3 -27 3 10 10 l40 7 -40 3 c-39 2 -39 3 -10 10
17 4 22 8 13 9 -23 1 -23 18 0 24 11 2 6 7 -18 14 l-35 11 47 13 c47 13 55 28
15 30 -21 0 -21 1 -2 9 16 7 12 9 -20 10 l-40 2 43 11 c39 11 41 13 22 25 -14
9 -88 12 -275 12 l-255 0 0 -1259z m43 42 c-7 -2 -19 -2 -25 0 -7 3 -2 5 12 5
14 0 19 -2 13 -5z m2504 1 c-3 -3 -12 -4 -19 -1 -8 3 -5 6 6 6 11 1 17 -2 13
-5z m220 0 c-3 -3 -12 -4 -19 -1 -8 3 -5 6 6 6 11 1 17 -2 13 -5z m210 0 c-3
-3 -12 -4 -19 -1 -8 3 -5 6 6 6 11 1 17 -2 13 -5z m100 0 c-3 -3 -12 -4 -19
-1 -8 3 -5 6 6 6 11 1 17 -2 13 -5z m136 -1 c-7 -2 -19 -2 -25 0 -7 3 -2 5 12
5 14 0 19 -2 13 -5z m104 1 c-3 -3 -12 -4 -19 -1 -8 3 -5 6 6 6 11 1 17 -2 13
-5z m66 -1 c-7 -2 -19 -2 -25 0 -7 3 -2 5 12 5 14 0 19 -2 13 -5z m160 0 c-7
-2 -19 -2 -25 0 -7 3 -2 5 12 5 14 0 19 -2 13 -5z m314 1 c-3 -3 -12 -4 -19
-1 -8 3 -5 6 6 6 11 1 17 -2 13 -5z m-3404 -1311 c-7 -2 -21 -2 -30 0 -10 3
-4 5 12 5 17 0 24 -2 18 -5z m-296 -3079 c-3 -3 -12 -4 -19 -1 -8 3 -5 6 6 6
11 1 17 -2 13 -5z m120 0 c-3 -3 -12 -4 -19 -1 -8 3 -5 6 6 6 11 1 17 -2 13
-5z m3200 0 c-3 -3 -12 -4 -19 -1 -8 3 -5 6 6 6 11 1 17 -2 13 -5z m660 0 c-3
-3 -12 -4 -19 -1 -8 3 -5 6 6 6 11 1 17 -2 13 -5z m80 0 c-3 -3 -12 -4 -19 -1
-8 3 -5 6 6 6 11 1 17 -2 13 -5z"/>
<path d="M3078 4133 c7 -3 16 -2 19 1 4 3 -2 6 -13 5 -11 0 -14 -3 -6 -6z"/>
<path d="M3518 4133 c7 -3 16 -2 19 1 4 3 -2 6 -13 5 -11 0 -14 -3 -6 -6z"/>
<path d="M5378 4133 c7 -3 16 -2 19 1 4 3 -2 6 -13 5 -11 0 -14 -3 -6 -6z"/>
<path d="M1488 1473 c7 -3 16 -2 19 1 4 3 -2 6 -13 5 -11 0 -14 -3 -6 -6z"/>
<path d="M2168 1473 c7 -3 16 -2 19 1 4 3 -2 6 -13 5 -11 0 -14 -3 -6 -6z"/>
<path d="M1358 1053 c7 -3 16 -2 19 1 4 3 -2 6 -13 5 -11 0 -14 -3 -6 -6z"/>
<path d="M2058 1053 c7 -3 16 -2 19 1 4 3 -2 6 -13 5 -11 0 -14 -3 -6 -6z"/>
<path d="M2628 1053 c6 -2 18 -2 25 0 6 3 1 5 -13 5 -14 0 -19 -2 -12 -5z"/>
<path d="M2778 1053 c7 -3 16 -2 19 1 4 3 -2 6 -13 5 -11 0 -14 -3 -6 -6z"/>
</g>
</svg>
