<svg xmlns="http://www.w3.org/2000/svg" xmlns:xlink="http://www.w3.org/1999/xlink" version="1.1" width="256" height="256" viewBox="0 0 256 256" xml:space="preserve">
<desc>Created with Fabric.js 1.7.22</desc>
<defs>
</defs>
<g transform="translate(128 128) scale(0.87 0.87)" style="">
	<g style="stroke: none; stroke-width: 0; stroke-dasharray: none; stroke-linecap: butt; stroke-linejoin: miter; stroke-miterlimit: 10; fill: none; fill-rule: nonzero; opacity: 1;" transform="translate(-144.89999999999998 -144.90000000000003) scale(3.22 3.22)" >
	<path d="M 45 90 c -0.345 0 -0.69 -0.089 -1 -0.268 l -37.239 -21.5 c -0.619 -0.357 -1 -1.018 -1 -1.732 v -43 c 0 -0.714 0.381 -1.375 1 -1.732 L 44 0.268 c 0.619 -0.357 1.381 -0.357 2 0 l 37.239 21.5 c 0.619 0.357 1 1.018 1 1.732 v 43 c 0 0.715 -0.381 1.375 -1 1.732 L 46 89.732 C 45.69 89.911 45.345 90 45 90 z M 9.761 65.346 L 45 85.69 l 35.239 -20.345 V 24.655 L 45 4.31 L 9.761 24.655 V 65.346 z" style="stroke: none; stroke-width: 1; stroke-dasharray: none; stroke-linecap: butt; stroke-linejoin: miter; stroke-miterlimit: 10; fill: hsl(0, 0%, 49.4%); fill-rule: nonzero; opacity: 1;" transform=" matrix(1 0 0 1 0 0) " stroke-linecap="round" />
	<path d="M 27.781 68.337 c -0.887 0 -1.684 -0.591 -1.926 -1.467 L 20.05 45.882 v 15.214 c 0 1.104 -0.896 2 -2 2 s -2 -0.896 -2 -2 V 31.15 c 0 -1 0.739 -1.847 1.731 -1.982 c 0.992 -0.134 1.93 0.484 2.197 1.449 l 5.805 20.988 V 25.011 c 0 -1.104 0.896 -2 2 -2 s 2 0.896 2 2 v 41.326 c 0 1.001 -0.739 1.848 -1.731 1.981 C 27.961 68.331 27.871 68.337 27.781 68.337 z" style="stroke: none; stroke-width: 1; stroke-dasharray: none; stroke-linecap: butt; stroke-linejoin: miter; stroke-miterlimit: 10; fill: hsl(0, 0%, 49.4%); fill-rule: nonzero; opacity: 1;" transform=" matrix(1 0 0 1 0 0) " stroke-linecap="round" />
	<path d="M 73.948 31.69 c -0.353 0 -0.709 -0.093 -1.032 -0.289 l -12.698 -7.673 c -0.945 -0.571 -1.249 -1.801 -0.678 -2.746 c 0.571 -0.947 1.803 -1.248 2.746 -0.678 l 12.698 7.673 c 0.945 0.571 1.249 1.801 0.678 2.746 C 75.286 31.346 74.625 31.69 73.948 31.69 z" style="stroke: none; stroke-width: 1; stroke-dasharray: none; stroke-linecap: butt; stroke-linejoin: miter; stroke-miterlimit: 10; fill: hsl(0, 0%, 49.4%); fill-rule: nonzero; opacity: 1;" transform=" matrix(1 0 0 1 0 0) " stroke-linecap="round" />
	<path d="M 36.261 74.341 c -1.104 0 -2 -0.896 -2 -2 V 17.707 c 0 -0.704 0.37 -1.356 0.974 -1.717 l 8.98 -5.366 c 0.635 -0.379 1.427 -0.376 2.06 0.005 l 10.862 6.564 c 0.945 0.571 1.249 1.801 0.678 2.747 c -0.572 0.945 -1.802 1.247 -2.746 0.677 l -9.834 -5.943 l -6.974 4.167 v 53.5 C 38.261 73.445 37.366 74.341 36.261 74.341 z" style="stroke: none; stroke-width: 1; stroke-dasharray: none; stroke-linecap: butt; stroke-linejoin: miter; stroke-miterlimit: 10; fill: hsl(0, 0%, 49.4%); fill-rule: nonzero; opacity: 1;" transform=" matrix(1 0 0 1 0 0) " stroke-linecap="round" />
	<path d="M 53.861 46.83 h -17.6 c -1.104 0 -2 -0.896 -2 -2 s 0.896 -2 2 -2 h 17.6 c 1.104 0 2 0.896 2 2 S 54.966 46.83 53.861 46.83 z" style="stroke: none; stroke-width: 1; stroke-dasharray: none; stroke-linecap: butt; stroke-linejoin: miter; stroke-miterlimit: 10; fill: hsl(0, 0%, 49.4%); fill-rule: nonzero; opacity: 1;" transform=" matrix(1 0 0 1 0 0) " stroke-linecap="round" />
	<path d="M 67.332 67.837 c -1.104 0 -2 -0.896 -2 -2 V 25.69 c 0 -1.104 0.896 -2 2 -2 s 2 0.896 2 2 v 40.146 C 69.332 66.941 68.437 67.837 67.332 67.837 z" style="stroke: none; stroke-width: 1; stroke-dasharray: none; stroke-linecap: butt; stroke-linejoin: miter; stroke-miterlimit: 10; fill: hsl(0, 0%, 49.4%); fill-rule: nonzero; opacity: 1;" transform=" matrix(1 0 0 1 0 0) " stroke-linecap="round" />
</g>
</g>
</svg>

