<svg width="500" height="500" viewBox="0 0 500 500" fill="none" xmlns="http://www.w3.org/2000/svg">
<circle cx="248" cy="248" r="182.5" stroke="white" stroke-width="35"/>
<path d="M268.938 192.504V351H226.604V192.504H268.938ZM223.967 151.195C223.967 145.043 226.115 139.965 230.412 135.961C234.709 131.957 240.471 129.955 247.697 129.955C254.826 129.955 260.539 131.957 264.836 135.961C269.23 139.965 271.428 145.043 271.428 151.195C271.428 157.348 269.23 162.426 264.836 166.43C260.539 170.434 254.826 172.436 247.697 172.436C240.471 172.436 234.709 170.434 230.412 166.43C226.115 162.426 223.967 157.348 223.967 151.195Z" fill="white"/>
</svg>
