<?xml version="1.0" encoding="UTF-8"?>
<svg xmlns="http://www.w3.org/2000/svg" xmlns:xlink="http://www.w3.org/1999/xlink" width="137px" height="128px" viewBox="0 0 137 128" version="1.1">
<g id="surface1">
<path style=" stroke:none;fill-rule:nonzero;fill:rgb(61.960784%,100%,100%);fill-opacity:1;" d="M 74.199219 60.617188 C 73.789062 61.140625 73.402344 61.683594 72.960938 62.179688 C 71.191406 64.191406 69.414062 66.191406 67.621094 68.179688 C 67.113281 68.738281 66.539062 69.230469 65.886719 69.757812 C 64.632812 70.316406 63.554688 70.976562 62.863281 72.089844 C 62.253906 73.074219 61.753906 73.265625 60.722656 72.714844 C 59.246094 71.925781 57.78125 71.113281 56.339844 70.253906 C 56.089844 70.105469 55.902344 69.699219 55.847656 69.386719 C 55.753906 68.859375 55.972656 68.210938 55.734375 67.796875 C 55.277344 66.992188 55.414062 66.445312 56.050781 65.992188 C 55.972656 65.648438 55.910156 65.378906 55.832031 65.039062 C 56.199219 65.144531 56.429688 65.210938 56.671875 65.28125 C 56.800781 64.339844 56.53125 64.023438 55.515625 63.910156 C 55.554688 63.707031 55.546875 63.488281 55.640625 63.320312 C 56.023438 62.632812 55.945312 61.925781 55.832031 61.191406 C 55.761719 60.742188 55.824219 60.273438 55.773438 59.820312 C 55.6875 59.054688 55.476562 58.296875 55.480469 57.535156 C 55.480469 57.082031 56.058594 56.464844 55.902344 56.207031 C 55.378906 55.355469 56.144531 54.0625 54.90625 53.578125 C 55.496094 52.367188 55.855469 51.214844 55.375 50.210938 C 55.734375 49.667969 56.234375 49.246094 56.230469 48.828125 C 56.226562 48.316406 55.800781 47.808594 55.496094 47.171875 C 56.253906 47.054688 56.914062 46.894531 57.582031 46.863281 C 59.464844 46.777344 61.359375 46.796875 63.242188 46.664062 C 63.9375 46.617188 64.613281 46.261719 65.300781 46.046875 C 68.414062 46.035156 71.523438 46.023438 74.691406 46.09375 C 74.695312 46.230469 74.644531 46.328125 74.589844 46.335938 C 73.417969 46.460938 72.25 46.625 71.078125 46.679688 C 69.679688 46.746094 68.277344 46.710938 66.878906 46.734375 C 66.738281 46.738281 66.582031 46.816406 66.460938 46.902344 C 66.117188 47.140625 65.777344 47.382812 65.457031 47.652344 C 65.214844 47.855469 65.007812 48.101562 64.941406 48.164062 C 65.136719 48.667969 65.242188 48.976562 65.375 49.277344 C 65.441406 49.429688 65.53125 49.582031 65.644531 49.703125 C 66.070312 50.15625 66.019531 50.621094 65.582031 51.050781 C 65.214844 51.414062 64.921875 51.855469 64.707031 52.121094 C 65.027344 52.570312 65.222656 52.847656 65.417969 53.121094 C 65.046875 53.082031 64.675781 53.039062 64.132812 52.976562 C 64.3125 53.457031 64.484375 53.921875 64.726562 54.558594 C 64.945312 54.191406 65.054688 54.015625 65.265625 53.660156 C 65.59375 54.257812 65.84375 54.722656 66.089844 55.164062 C 65.480469 55.6875 64.890625 56.1875 65.109375 56.964844 C 65.300781 57.648438 65.699219 58.269531 66.023438 58.957031 C 65.867188 59.0625 65.6875 59.1875 65.558594 59.273438 C 65.644531 59.621094 65.707031 59.894531 65.78125 60.164062 C 65.859375 60.433594 65.949219 60.699219 66.03125 60.953125 C 65.820312 61.171875 65.605469 61.363281 65.433594 61.585938 C 65.175781 61.917969 65.207031 63.476562 65.515625 63.632812 C 66.429688 64.101562 66.121094 64.492188 65.347656 64.925781 C 66.566406 65.605469 66.5 66.464844 65.78125 67.410156 C 66.292969 67.765625 66.683594 67.824219 67.085938 67.304688 C 67.433594 66.855469 67.839844 66.449219 68.242188 66.046875 C 69.351562 64.941406 70.445312 63.824219 71.59375 62.769531 C 72.421875 62.007812 73.328125 61.332031 74.199219 60.617188 Z M 74.199219 60.617188 "/>
<path style=" stroke:none;fill-rule:nonzero;fill:rgb(63.921569%,100%,100%);fill-opacity:1;" d="M 65.230469 46.027344 C 64.613281 46.261719 63.9375 46.617188 63.242188 46.664062 C 61.359375 46.796875 59.464844 46.777344 57.582031 46.863281 C 56.914062 46.894531 56.253906 47.054688 55.496094 47.171875 C 55.800781 47.808594 56.226562 48.316406 56.230469 48.828125 C 56.234375 49.246094 55.734375 49.667969 55.375 50.210938 C 55.855469 51.214844 55.496094 52.367188 54.90625 53.578125 C 56.144531 54.0625 55.378906 55.355469 55.902344 56.207031 C 56.058594 56.464844 55.480469 57.082031 55.480469 57.535156 C 55.476562 58.296875 55.6875 59.054688 55.773438 59.820312 C 55.824219 60.273438 55.761719 60.742188 55.832031 61.191406 C 55.945312 61.925781 56.023438 62.632812 55.640625 63.320312 C 55.546875 63.488281 55.554688 63.707031 55.515625 63.910156 C 56.53125 64.023438 56.800781 64.339844 56.671875 65.28125 C 56.429688 65.210938 56.199219 65.144531 55.832031 65.039062 C 55.910156 65.378906 55.972656 65.648438 56.050781 65.992188 C 55.414062 66.445312 55.277344 66.992188 55.734375 67.796875 C 55.972656 68.210938 55.753906 68.859375 55.847656 69.386719 C 55.902344 69.699219 56.089844 70.105469 56.339844 70.253906 C 57.78125 71.113281 59.246094 71.925781 60.722656 72.714844 C 61.753906 73.265625 62.253906 73.074219 62.863281 72.089844 C 63.554688 70.976562 64.632812 70.316406 65.847656 69.785156 C 64.710938 71.144531 63.527344 72.488281 62.304688 73.796875 C 62.132812 73.984375 61.683594 74.136719 61.492188 74.042969 C 59.359375 73.003906 57.25 71.914062 55.136719 70.828125 C 54.277344 70.390625 53.429688 69.929688 52.539062 69.378906 C 52.304688 69.0625 52.144531 68.78125 51.902344 68.644531 C 50.570312 67.894531 49.253906 67.109375 48.148438 66.042969 C 47.980469 65.882812 47.90625 65.320312 47.945312 65.300781 C 48.65625 64.988281 48.40625 64.644531 48.042969 64.140625 C 48.328125 64.195312 48.613281 64.253906 49.089844 64.347656 C 48.671875 62.347656 48.472656 60.410156 49.246094 58.5625 C 49.070312 58.460938 49 58.425781 48.9375 58.386719 C 48.710938 58.25 48.492188 58.113281 48.269531 57.976562 C 48.429688 57.800781 48.574219 57.609375 48.753906 57.457031 C 49.1875 57.085938 49.300781 56.738281 48.996094 56.164062 C 48.589844 55.402344 47.957031 54.574219 48.527344 53.675781 C 48.804688 53.234375 48.730469 52.882812 48.742188 52.449219 C 48.765625 51.421875 48.910156 50.394531 48.984375 49.367188 C 49.011719 48.992188 48.988281 48.609375 48.988281 48.226562 C 49.625 47.238281 50.726562 46.714844 51.941406 46.515625 C 53.34375 46.28125 54.769531 46.152344 56.191406 46.074219 C 57.527344 46 58.871094 46.050781 60.214844 46.046875 C 61.863281 46.03125 63.511719 46.019531 65.230469 46.027344 Z M 65.230469 46.027344 "/>
<path style=" stroke:none;fill-rule:nonzero;fill:rgb(66.27451%,99.607843%,100%);fill-opacity:1;" d="M 60.15625 46.023438 C 58.871094 46.050781 57.527344 46 56.191406 46.074219 C 54.769531 46.152344 53.34375 46.28125 51.941406 46.515625 C 50.726562 46.714844 49.625 47.238281 48.988281 48.226562 C 48.988281 48.609375 49.011719 48.992188 48.984375 49.367188 C 48.910156 50.394531 48.765625 51.421875 48.742188 52.449219 C 48.730469 52.882812 48.804688 53.234375 48.527344 53.675781 C 47.957031 54.574219 48.589844 55.402344 48.996094 56.164062 C 49.300781 56.738281 49.1875 57.085938 48.753906 57.457031 C 48.574219 57.609375 48.429688 57.800781 48.269531 57.976562 C 48.492188 58.113281 48.710938 58.25 48.9375 58.386719 C 49 58.425781 49.070312 58.460938 49.246094 58.5625 C 48.472656 60.410156 48.671875 62.347656 49.089844 64.347656 C 48.613281 64.253906 48.328125 64.195312 48.042969 64.140625 C 48.40625 64.644531 48.65625 64.988281 47.945312 65.300781 C 47.90625 65.320312 47.980469 65.882812 48.148438 66.042969 C 49.253906 67.109375 50.570312 67.894531 51.902344 68.644531 C 52.144531 68.78125 52.304688 69.0625 52.503906 69.335938 C 50.832031 68.566406 49.15625 67.75 47.492188 66.914062 C 44.398438 65.363281 41.316406 63.789062 38.214844 62.253906 C 37.289062 61.792969 36.3125 61.425781 35.273438 60.976562 C 36.363281 59.628906 37.40625 58.367188 38.425781 57.082031 C 40.488281 54.484375 42.53125 51.875 44.589844 49.28125 C 45.445312 48.203125 46.574219 47.492188 47.796875 46.875 C 49.304688 46.117188 50.886719 45.960938 52.53125 45.988281 C 55.054688 46.023438 57.578125 46 60.15625 46.023438 Z M 60.15625 46.023438 "/>
<path style=" stroke:none;fill-rule:nonzero;fill:rgb(65.490196%,99.607843%,100%);fill-opacity:1;" d="M 18.902344 74.683594 C 17.75 75.65625 16.613281 76.648438 15.445312 77.597656 C 13.476562 79.191406 11.488281 80.765625 9.507812 82.34375 C 9.25 82.550781 8.988281 82.753906 8.609375 83.046875 C 8.609375 74.097656 8.609375 65.265625 8.609375 56.390625 C 8.800781 56.464844 9.035156 56.539062 9.261719 56.640625 C 12.367188 58.050781 15.472656 59.46875 18.582031 60.871094 C 19 61.058594 19.453125 61.164062 19.902344 61.398438 C 19.769531 61.523438 19.613281 61.621094 19.492188 61.589844 C 18.40625 61.273438 17.320312 60.960938 16.25 60.597656 C 15.269531 60.261719 15.015625 60.359375 14.945312 61.402344 C 14.867188 62.539062 14.289062 63.648438 14.738281 64.824219 C 14.78125 64.933594 14.609375 65.105469 14.597656 65.253906 C 14.550781 65.933594 14.523438 66.613281 14.496094 67.292969 C 14.492188 67.445312 14.597656 67.6875 14.539062 67.730469 C 13.828125 68.273438 14.390625 68.996094 14.449219 69.5 C 14.550781 70.371094 14.957031 71.175781 14.476562 72.066406 C 14.402344 72.207031 14.566406 72.488281 14.644531 72.691406 C 14.699219 72.820312 14.851562 72.921875 14.875 73.050781 C 15.074219 74.023438 15.253906 75.003906 15.460938 76.089844 C 15.773438 75.953125 15.992188 75.886719 16.183594 75.773438 C 16.972656 75.3125 17.765625 74.851562 18.539062 74.363281 C 18.835938 74.171875 19.007812 74.117188 19.042969 74.546875 C 19.042969 74.546875 19.011719 74.617188 18.96875 74.632812 C 18.921875 74.644531 18.902344 74.683594 18.902344 74.683594 Z M 18.902344 74.683594 "/>
<path style=" stroke:none;fill-rule:nonzero;fill:rgb(60.392157%,99.215686%,100%);fill-opacity:1;" d="M 74.253906 60.609375 C 73.328125 61.332031 72.421875 62.007812 71.59375 62.769531 C 70.445312 63.824219 69.351562 64.941406 68.242188 66.046875 C 67.839844 66.449219 67.433594 66.855469 67.085938 67.304688 C 66.683594 67.824219 66.292969 67.765625 65.78125 67.410156 C 66.5 66.464844 66.566406 65.605469 65.347656 64.925781 C 66.121094 64.492188 66.429688 64.101562 65.515625 63.632812 C 65.207031 63.476562 65.175781 61.917969 65.433594 61.585938 C 65.605469 61.363281 65.820312 61.171875 66.03125 60.953125 C 65.949219 60.699219 65.859375 60.433594 65.78125 60.164062 C 65.707031 59.894531 65.644531 59.621094 65.558594 59.273438 C 65.6875 59.1875 65.867188 59.0625 66.023438 58.957031 C 65.699219 58.269531 65.300781 57.648438 65.109375 56.964844 C 64.890625 56.1875 65.480469 55.6875 66.089844 55.164062 C 65.84375 54.722656 65.59375 54.257812 65.265625 53.660156 C 65.054688 54.015625 64.945312 54.191406 64.726562 54.558594 C 64.484375 53.921875 64.3125 53.457031 64.132812 52.976562 C 64.675781 53.039062 65.046875 53.082031 65.417969 53.121094 C 65.222656 52.847656 65.027344 52.570312 64.707031 52.121094 C 64.921875 51.855469 65.214844 51.414062 65.582031 51.050781 C 66.019531 50.621094 66.070312 50.15625 65.644531 49.703125 C 65.53125 49.582031 65.441406 49.429688 65.375 49.277344 C 65.242188 48.976562 65.136719 48.667969 64.941406 48.164062 C 65.007812 48.101562 65.214844 47.855469 65.457031 47.652344 C 65.777344 47.382812 66.117188 47.140625 66.460938 46.902344 C 66.582031 46.816406 66.738281 46.738281 66.878906 46.734375 C 68.277344 46.710938 69.679688 46.746094 71.078125 46.679688 C 72.25 46.625 73.417969 46.460938 74.589844 46.335938 C 74.644531 46.328125 74.695312 46.230469 74.761719 46.113281 C 76.625 46.039062 78.472656 46.023438 80.382812 46.09375 C 80.214844 46.296875 79.992188 46.472656 79.746094 46.523438 C 79.339844 46.605469 78.914062 46.589844 78.5 46.640625 C 77.597656 46.746094 76.699219 46.875 75.796875 46.980469 C 75.402344 47.023438 75.003906 47.035156 74.675781 47.054688 C 74.273438 46.992188 73.929688 46.914062 73.585938 46.90625 C 73.527344 46.90625 73.433594 47.179688 73.398438 47.339844 C 73.3125 47.722656 73.253906 48.113281 73.164062 48.617188 C 73.738281 49.28125 73.730469 50.257812 73.636719 51.269531 C 73.800781 51.375 73.96875 51.484375 74.238281 51.65625 C 73.285156 52.636719 72.046875 53.527344 73.15625 55.054688 C 72.875 55.542969 72.628906 56.035156 72.320312 56.476562 C 71.785156 57.242188 71.753906 58 72.167969 58.824219 C 72.273438 59.039062 72.199219 59.332031 72.234375 59.585938 C 72.269531 59.859375 72.332031 60.128906 72.386719 60.398438 C 72.667969 60.308594 72.964844 60.25 73.230469 60.121094 C 73.5 59.992188 73.738281 59.785156 73.996094 59.625 C 74.144531 59.53125 74.347656 59.492188 74.460938 59.371094 C 75.703125 58.074219 76.925781 56.761719 78.167969 55.46875 C 78.488281 55.132812 78.84375 54.824219 79.21875 54.546875 C 79.292969 54.492188 79.519531 54.644531 79.675781 54.699219 C 78.273438 56.285156 76.875 57.875 75.464844 59.453125 C 75.101562 59.855469 74.695312 60.222656 74.253906 60.609375 Z M 74.253906 60.609375 "/>
<path style=" stroke:none;fill-rule:nonzero;fill:rgb(66.27451%,100%,100%);fill-opacity:1;" d="M 73.953125 63.160156 C 76.003906 60.863281 78.054688 58.566406 80.085938 56.292969 C 80.472656 56.460938 80.804688 56.605469 81.183594 56.828125 C 80.84375 57.027344 80.335938 57.03125 80.105469 57.285156 C 79.164062 58.328125 78.246094 59.414062 78.097656 60.90625 C 77.953125 62.351562 77.75 63.796875 77.695312 65.246094 C 77.65625 66.238281 77.84375 67.238281 77.898438 68.238281 C 77.914062 68.476562 77.804688 68.722656 77.765625 68.964844 C 77.722656 69.261719 77.671875 69.5625 77.667969 69.863281 C 77.667969 70.117188 77.71875 70.371094 77.765625 70.625 C 77.816406 70.90625 77.8125 71.242188 77.964844 71.460938 C 78.386719 72.066406 78.253906 72.71875 78.050781 73.277344 C 77.855469 73.8125 77.367188 74.234375 77.984375 74.792969 C 78.054688 74.859375 78 75.171875 77.902344 75.285156 C 77.3125 75.996094 77.621094 76.679688 77.84375 77.417969 C 78.0625 78.15625 78.152344 78.933594 78.230469 79.703125 C 78.25 79.882812 78.027344 80.175781 77.839844 80.269531 C 77.261719 80.5625 77.328125 80.964844 77.761719 81.195312 C 78.363281 81.511719 79.046875 81.667969 79.703125 81.867188 C 80.269531 82.042969 80.839844 82.183594 81.335938 82.339844 C 78.515625 82.351562 75.761719 82.472656 73.042969 81.886719 C 72.5625 81.785156 72.050781 81.8125 71.574219 81.691406 C 71.109375 81.578125 70.84375 81.320312 70.945312 80.722656 C 71.046875 80.160156 71.421875 79.496094 70.652344 79.019531 C 71.191406 78.574219 71.167969 78.15625 70.726562 77.734375 C 70.652344 77.664062 70.546875 77.546875 70.5625 77.476562 C 70.785156 76.550781 70.195312 75.542969 70.925781 74.644531 C 71.074219 74.460938 70.824219 73.925781 70.722656 73.5625 C 70.640625 73.277344 70.371094 72.980469 70.414062 72.734375 C 70.542969 72.03125 70.789062 71.355469 71.011719 70.601562 C 70.921875 70.554688 70.726562 70.453125 70.605469 70.390625 C 70.695312 69.882812 70.78125 69.457031 70.84375 69.03125 C 70.984375 68.078125 71.113281 67.167969 71.898438 66.425781 C 72.554688 65.808594 73.027344 64.996094 73.574219 64.261719 C 73.726562 64.058594 73.972656 63.816406 73.480469 63.707031 C 73.597656 63.566406 73.714844 63.421875 73.886719 63.242188 C 73.9375 63.203125 73.953125 63.160156 73.953125 63.160156 Z M 73.953125 63.160156 "/>
<path style=" stroke:none;fill-rule:nonzero;fill:rgb(69.019608%,99.215686%,99.607843%);fill-opacity:1;" d="M 73.4375 63.738281 C 73.972656 63.816406 73.726562 64.058594 73.574219 64.261719 C 73.027344 64.996094 72.554688 65.808594 71.898438 66.425781 C 71.113281 67.167969 70.984375 68.078125 70.84375 69.03125 C 70.78125 69.457031 70.695312 69.882812 70.605469 70.390625 C 70.726562 70.453125 70.921875 70.554688 71.011719 70.601562 C 70.789062 71.355469 70.542969 72.03125 70.414062 72.734375 C 70.371094 72.980469 70.640625 73.277344 70.722656 73.5625 C 70.824219 73.925781 71.074219 74.460938 70.925781 74.644531 C 70.195312 75.542969 70.785156 76.550781 70.5625 77.476562 C 70.546875 77.546875 70.652344 77.664062 70.726562 77.734375 C 71.167969 78.15625 71.191406 78.574219 70.652344 79.019531 C 71.421875 79.496094 71.046875 80.160156 70.945312 80.722656 C 70.84375 81.320312 71.109375 81.578125 71.574219 81.691406 C 72.050781 81.8125 72.5625 81.785156 73.042969 81.886719 C 75.761719 82.472656 78.515625 82.351562 81.410156 82.34375 C 83.402344 82.335938 85.242188 82.328125 87.144531 82.328125 C 87.410156 82.347656 87.617188 82.355469 87.820312 82.363281 C 87.140625 82.40625 86.464844 82.480469 85.785156 82.484375 C 81.957031 82.496094 78.125 82.492188 74.167969 82.445312 C 73.289062 82.378906 72.539062 82.335938 71.789062 82.351562 C 71.046875 82.367188 70.304688 82.4375 69.566406 82.488281 C 67.859375 82.515625 66.15625 82.558594 64.449219 82.570312 C 61.824219 82.59375 59.195312 82.597656 56.566406 82.609375 C 56.46875 82.609375 56.371094 82.589844 56.125 82.5625 C 56.46875 82.167969 56.734375 81.839844 57.023438 81.53125 C 58.746094 79.714844 60.488281 77.914062 62.191406 76.082031 C 63.3125 74.875 64.375 73.613281 65.476562 72.390625 C 66.886719 70.835938 68.304688 69.296875 69.726562 67.753906 C 70.335938 67.089844 70.964844 66.445312 71.652344 65.765625 C 71.71875 65.746094 71.738281 65.699219 71.738281 65.699219 C 72.289062 65.054688 72.84375 64.410156 73.4375 63.738281 Z M 73.4375 63.738281 "/>
<path style=" stroke:none;fill-rule:nonzero;fill:rgb(61.176471%,99.607843%,100%);fill-opacity:1;" d="M 87.875 82.355469 C 87.617188 82.355469 87.410156 82.347656 87.136719 82.277344 C 86.9375 82.132812 86.816406 82.003906 86.679688 81.980469 C 85.730469 81.828125 84.777344 81.664062 83.824219 81.566406 C 82.894531 81.46875 82.359375 81.128906 82.394531 80.585938 C 82.492188 79.011719 82.855469 77.398438 81.804688 75.964844 C 81.753906 75.894531 81.765625 75.761719 81.785156 75.664062 C 81.882812 75.238281 82 74.8125 82.09375 74.382812 C 82.34375 73.25 82.730469 72.113281 82.132812 70.96875 C 82.101562 70.90625 82.089844 70.800781 82.125 70.746094 C 82.679688 69.816406 82.371094 68.816406 82.355469 67.84375 C 82.339844 67.074219 82.292969 66.296875 82.226562 65.527344 C 82.148438 64.667969 82.027344 63.808594 81.929688 62.949219 C 81.925781 62.921875 81.941406 62.898438 81.945312 62.871094 C 82.03125 62.289062 82.113281 61.707031 82.207031 61.125 C 82.300781 60.558594 82.390625 59.992188 82.515625 59.433594 C 82.628906 58.925781 83.019531 58.746094 83.476562 58.859375 C 84.355469 59.074219 85.222656 59.347656 86.09375 59.601562 C 86.550781 59.734375 87.011719 60.058594 87.414062 59.503906 C 88.769531 60.132812 90.125 60.761719 91.472656 61.480469 C 90.523438 61.386719 89.574219 61.242188 88.648438 60.996094 C 88.175781 60.867188 87.941406 61.003906 87.796875 61.402344 C 87.5 62.207031 87.375 63.003906 87.855469 63.800781 C 87.949219 63.957031 87.902344 64.214844 87.871094 64.417969 C 87.773438 65.078125 87.621094 65.734375 87.554688 66.398438 C 87.5 66.917969 87.542969 67.449219 87.542969 67.835938 C 87.5 68.445312 87.546875 68.890625 87.421875 69.285156 C 87.183594 70.039062 87.191406 70.730469 87.546875 71.449219 C 87.65625 71.667969 87.578125 71.984375 87.570312 72.253906 C 87.554688 72.78125 87.4375 73.320312 87.519531 73.832031 C 87.679688 74.871094 88.125 75.882812 87.480469 76.917969 C 87.382812 77.074219 87.402344 77.328125 87.421875 77.53125 C 87.503906 78.285156 87.664062 79.03125 87.6875 79.78125 C 87.71875 80.808594 88.175781 81.210938 89.183594 81.058594 C 89.785156 80.964844 90.402344 80.976562 91.011719 80.9375 C 90.886719 81.035156 90.757812 81.132812 90.542969 81.238281 C 90.390625 81.285156 90.324219 81.328125 90.261719 81.367188 C 89.484375 81.691406 88.707031 82.019531 87.875 82.355469 Z M 87.875 82.355469 "/>
<path style=" stroke:none;fill-rule:nonzero;fill:rgb(62.352941%,99.607843%,100%);fill-opacity:1;" d="M 19.085938 74.527344 C 19.007812 74.117188 18.835938 74.171875 18.539062 74.363281 C 17.765625 74.851562 16.972656 75.3125 16.183594 75.773438 C 15.992188 75.886719 15.773438 75.953125 15.460938 76.089844 C 15.253906 75.003906 15.074219 74.023438 14.875 73.050781 C 14.851562 72.921875 14.699219 72.820312 14.644531 72.691406 C 14.566406 72.488281 14.402344 72.207031 14.476562 72.066406 C 14.957031 71.175781 14.550781 70.371094 14.449219 69.5 C 14.390625 68.996094 13.828125 68.273438 14.539062 67.730469 C 14.597656 67.6875 14.492188 67.445312 14.496094 67.292969 C 14.523438 66.613281 14.550781 65.933594 14.597656 65.253906 C 14.609375 65.105469 14.78125 64.933594 14.738281 64.824219 C 14.289062 63.648438 14.867188 62.539062 14.945312 61.402344 C 15.015625 60.359375 15.269531 60.261719 16.25 60.597656 C 17.320312 60.960938 18.40625 61.273438 19.492188 61.589844 C 19.613281 61.621094 19.769531 61.523438 19.941406 61.441406 C 21.84375 62.257812 23.710938 63.113281 25.582031 63.96875 C 25.671875 64.007812 25.777344 64.011719 25.957031 64.085938 C 26.117188 64.160156 26.195312 64.175781 26.273438 64.191406 C 26.273438 64.191406 26.300781 64.1875 26.324219 64.25 C 26.210938 64.433594 26.0625 64.667969 25.953125 64.648438 C 25.371094 64.546875 24.777344 64.429688 24.222656 64.226562 C 23.355469 63.910156 23.089844 64.027344 23.15625 64.949219 C 23.207031 65.644531 23.503906 66.320312 23.554688 67.015625 C 23.601562 67.71875 23.480469 68.429688 23.414062 69.398438 C 24.257812 69.046875 24.902344 68.808594 25.511719 68.503906 C 25.851562 68.332031 26.089844 68.1875 26.148438 68.71875 C 26.148438 68.71875 26.128906 68.78125 26.082031 68.796875 C 26.035156 68.8125 26.011719 68.867188 26.011719 68.867188 C 26.011719 68.867188 25.972656 68.925781 25.90625 68.933594 C 25.785156 68.972656 25.734375 69 25.679688 69.03125 C 24.757812 69.847656 23.855469 70.683594 22.914062 71.46875 C 21.667969 72.503906 20.394531 73.496094 19.085938 74.527344 Z M 19.085938 74.527344 "/>
<path style=" stroke:none;fill-rule:nonzero;fill:rgb(59.607843%,98.039216%,100%);fill-opacity:1;" d="M 91.035156 80.9375 C 90.402344 80.976562 89.785156 80.964844 89.183594 81.058594 C 88.175781 81.210938 87.71875 80.808594 87.6875 79.78125 C 87.664062 79.03125 87.503906 78.285156 87.421875 77.53125 C 87.402344 77.328125 87.382812 77.074219 87.480469 76.917969 C 88.125 75.882812 87.679688 74.871094 87.519531 73.832031 C 87.4375 73.320312 87.554688 72.78125 87.570312 72.253906 C 87.578125 71.984375 87.65625 71.667969 87.546875 71.449219 C 87.191406 70.730469 87.183594 70.039062 87.421875 69.285156 C 87.546875 68.890625 87.5 68.445312 87.542969 67.835938 C 87.542969 67.449219 87.5 66.917969 87.554688 66.398438 C 87.621094 65.734375 87.773438 65.078125 87.871094 64.417969 C 87.902344 64.214844 87.949219 63.957031 87.855469 63.800781 C 87.375 63.003906 87.5 62.207031 87.796875 61.402344 C 87.941406 61.003906 88.175781 60.867188 88.648438 60.996094 C 89.574219 61.242188 90.523438 61.386719 91.503906 61.53125 C 93.046875 62.144531 94.554688 62.804688 96.117188 63.550781 C 96.296875 63.671875 96.417969 63.699219 96.539062 63.730469 C 96.640625 63.753906 96.742188 63.777344 96.859375 63.890625 C 96.625 63.980469 96.363281 64.003906 96.117188 63.96875 C 95.34375 63.847656 94.582031 63.675781 93.808594 63.597656 C 93.644531 63.582031 93.300781 63.882812 93.292969 64.050781 C 93.242188 65.066406 93.269531 66.089844 93.253906 67.109375 C 93.253906 67.3125 93.164062 67.515625 93.15625 67.71875 C 93.132812 68.527344 93.132812 69.335938 93.105469 70.140625 C 93.089844 70.589844 93.054688 71.039062 93.003906 71.484375 C 92.972656 71.761719 92.75 72.136719 92.859375 72.285156 C 93.578125 73.257812 93.101562 74.347656 93.226562 75.375 C 93.277344 75.777344 93.238281 76.191406 93.238281 76.824219 C 94.257812 76.09375 95.03125 75.53125 95.820312 75 C 95.914062 74.9375 96.113281 75.03125 96.265625 75.054688 C 96.152344 75.207031 96.042969 75.363281 95.875 75.554688 C 95.820312 75.597656 95.808594 75.636719 95.808594 75.636719 C 95.796875 75.664062 95.785156 75.6875 95.726562 75.734375 C 95.675781 75.757812 95.648438 75.8125 95.648438 75.8125 C 95.648438 75.8125 95.640625 75.867188 95.589844 75.890625 C 95.503906 75.941406 95.480469 75.976562 95.46875 76.015625 C 94.597656 77.132812 93.75 78.273438 92.839844 79.359375 C 92.414062 79.867188 91.859375 80.273438 91.277344 80.75 C 91.148438 80.820312 91.109375 80.859375 91.070312 80.898438 C 91.070312 80.898438 91.054688 80.941406 91.035156 80.9375 Z M 91.035156 80.9375 "/>
<path style=" stroke:none;fill-rule:nonzero;fill:rgb(63.921569%,100%,100%);fill-opacity:1;" d="M 87.355469 59.488281 C 87.011719 60.058594 86.550781 59.734375 86.09375 59.601562 C 85.222656 59.347656 84.355469 59.074219 83.476562 58.859375 C 83.019531 58.746094 82.628906 58.925781 82.515625 59.433594 C 82.390625 59.992188 82.300781 60.558594 82.207031 61.125 C 82.113281 61.707031 82.03125 62.289062 81.945312 62.871094 C 81.941406 62.898438 81.925781 62.921875 81.929688 62.949219 C 82.027344 63.808594 82.148438 64.667969 82.226562 65.527344 C 82.292969 66.296875 82.339844 67.074219 82.355469 67.84375 C 82.371094 68.816406 82.679688 69.816406 82.125 70.746094 C 82.089844 70.800781 82.101562 70.90625 82.132812 70.96875 C 82.730469 72.113281 82.34375 73.25 82.09375 74.382812 C 82 74.8125 81.882812 75.238281 81.785156 75.664062 C 81.765625 75.761719 81.753906 75.894531 81.804688 75.964844 C 82.855469 77.398438 82.492188 79.011719 82.394531 80.585938 C 82.359375 81.128906 82.894531 81.46875 83.824219 81.566406 C 84.777344 81.664062 85.730469 81.828125 86.679688 81.980469 C 86.816406 82.003906 86.9375 82.132812 87.074219 82.265625 C 85.242188 82.328125 83.402344 82.335938 81.484375 82.34375 C 80.839844 82.183594 80.269531 82.042969 79.703125 81.867188 C 79.046875 81.667969 78.363281 81.511719 77.761719 81.195312 C 77.328125 80.964844 77.261719 80.5625 77.839844 80.269531 C 78.027344 80.175781 78.25 79.882812 78.230469 79.703125 C 78.152344 78.933594 78.0625 78.15625 77.84375 77.417969 C 77.621094 76.679688 77.3125 75.996094 77.902344 75.285156 C 78 75.171875 78.054688 74.859375 77.984375 74.792969 C 77.367188 74.234375 77.855469 73.8125 78.050781 73.277344 C 78.253906 72.71875 78.386719 72.066406 77.964844 71.460938 C 77.8125 71.242188 77.816406 70.90625 77.765625 70.625 C 77.71875 70.371094 77.667969 70.117188 77.667969 69.863281 C 77.671875 69.5625 77.722656 69.261719 77.765625 68.964844 C 77.804688 68.722656 77.914062 68.476562 77.898438 68.238281 C 77.84375 67.238281 77.65625 66.238281 77.695312 65.246094 C 77.75 63.796875 77.953125 62.351562 78.097656 60.90625 C 78.246094 59.414062 79.164062 58.328125 80.105469 57.285156 C 80.335938 57.03125 80.84375 57.027344 81.238281 56.847656 C 83.265625 57.683594 85.28125 58.578125 87.355469 59.488281 Z M 87.355469 59.488281 "/>
<path style=" stroke:none;fill-rule:nonzero;fill:rgb(65.490196%,99.607843%,100%);fill-opacity:1;" d="M 55.222656 81.320312 C 55.167969 81.382812 55.113281 81.445312 54.996094 81.546875 C 54.933594 81.585938 54.914062 81.628906 54.914062 81.628906 C 54.90625 81.652344 54.898438 81.679688 54.835938 81.734375 C 54.757812 81.78125 54.746094 81.808594 54.75 81.839844 C 54.355469 82.417969 53.8125 82.625 53.109375 82.675781 C 50.382812 82.882812 47.949219 82.132812 45.734375 80.433594 C 45.539062 79.898438 45.417969 79.4375 45.171875 79.054688 C 44.035156 77.25 42.832031 75.488281 41.722656 73.664062 C 41.480469 73.269531 41.496094 72.699219 41.464844 72.207031 C 41.441406 71.851562 41.617188 71.472656 41.558594 71.132812 C 41.445312 70.484375 41.171875 69.867188 41.066406 69.222656 C 40.90625 68.253906 40.832031 67.273438 40.71875 66.242188 C 41.285156 66.4375 41.863281 66.671875 42.464844 66.828125 C 43.808594 67.179688 44.96875 68.175781 46.472656 67.972656 C 48.113281 68.839844 49.746094 69.726562 51.402344 70.566406 C 52.902344 71.328125 54.425781 72.039062 55.957031 72.875 C 55.75 72.996094 55.492188 73.101562 55.300781 73.03125 C 54.371094 72.679688 53.480469 72.226562 52.542969 71.917969 C 51.535156 71.585938 50.6875 70.636719 49.425781 71.085938 C 49.5625 72.15625 49.699219 73.226562 49.839844 74.296875 C 49.851562 74.371094 49.875 74.480469 49.925781 74.507812 C 50.960938 75.046875 50.285156 75.300781 49.703125 75.550781 C 49.773438 75.683594 49.839844 75.769531 49.871094 75.863281 C 50.113281 76.652344 50.65625 77.503906 50.511719 78.21875 C 50.335938 79.097656 50.679688 79.503906 51.171875 79.992188 C 50.738281 80.140625 49.996094 81.160156 50.210938 81.375 C 50.484375 81.644531 50.945312 81.804688 51.34375 81.851562 C 51.992188 81.925781 52.660156 81.925781 53.308594 81.851562 C 53.691406 81.808594 54.113281 81.632812 54.402344 81.386719 C 54.917969 80.957031 55.320312 80.398438 55.820312 79.949219 C 56.019531 79.769531 56.332031 79.144531 56.632812 79.910156 C 56.632812 79.910156 56.605469 79.980469 56.558594 79.996094 C 56.511719 80.011719 56.488281 80.054688 56.488281 80.054688 C 56.21875 80.328125 55.953125 80.605469 55.625 80.917969 C 55.566406 80.957031 55.546875 81 55.546875 81 C 55.53125 81.023438 55.519531 81.050781 55.453125 81.097656 C 55.40625 81.117188 55.386719 81.152344 55.386719 81.152344 C 55.375 81.179688 55.363281 81.207031 55.296875 81.253906 C 55.246094 81.273438 55.222656 81.320312 55.222656 81.320312 Z M 55.222656 81.320312 "/>
<path style=" stroke:none;fill-rule:nonzero;fill:rgb(59.607843%,98.039216%,100%);fill-opacity:1;" d="M 79.726562 54.691406 C 79.519531 54.644531 79.292969 54.492188 79.21875 54.546875 C 78.84375 54.824219 78.488281 55.132812 78.167969 55.46875 C 76.925781 56.761719 75.703125 58.074219 74.460938 59.371094 C 74.347656 59.492188 74.144531 59.53125 73.996094 59.625 C 73.738281 59.785156 73.5 59.992188 73.230469 60.121094 C 72.964844 60.25 72.667969 60.308594 72.386719 60.398438 C 72.332031 60.128906 72.269531 59.859375 72.234375 59.585938 C 72.199219 59.332031 72.273438 59.039062 72.167969 58.824219 C 71.753906 58 71.785156 57.242188 72.320312 56.476562 C 72.628906 56.035156 72.875 55.542969 73.15625 55.054688 C 72.046875 53.527344 73.285156 52.636719 74.238281 51.65625 C 73.96875 51.484375 73.800781 51.375 73.636719 51.269531 C 73.730469 50.257812 73.738281 49.28125 73.164062 48.617188 C 73.253906 48.113281 73.3125 47.722656 73.398438 47.339844 C 73.433594 47.179688 73.527344 46.90625 73.585938 46.90625 C 73.929688 46.914062 74.273438 46.992188 74.675781 47.054688 C 75.003906 47.035156 75.402344 47.023438 75.796875 46.980469 C 76.699219 46.875 77.597656 46.746094 78.5 46.640625 C 78.914062 46.589844 79.339844 46.605469 79.746094 46.523438 C 79.992188 46.472656 80.214844 46.296875 80.453125 46.113281 C 82.65625 46.050781 84.851562 46.050781 87.269531 46.050781 C 84.859375 49.160156 82.277344 51.886719 79.726562 54.691406 Z M 79.726562 54.691406 "/>
<path style=" stroke:none;fill-rule:nonzero;fill:rgb(65.490196%,99.607843%,100%);fill-opacity:1;" d="M 128.808594 48.578125 C 128.820312 50.480469 128.832031 52.382812 128.820312 54.425781 C 128.792969 57.121094 128.792969 59.667969 128.792969 62.21875 C 128.085938 61.800781 128.027344 61.203125 128 60.578125 C 127.96875 59.976562 127.878906 59.382812 127.816406 58.785156 C 127.128906 60.929688 126.621094 63.0625 126.113281 65.195312 C 125.871094 66.203125 125.628906 67.210938 125.378906 68.21875 C 125.140625 69.195312 124.996094 70.121094 126.160156 70.6875 C 126.371094 70.789062 126.429688 71.195312 126.5625 71.460938 C 125.484375 71.050781 124.40625 70.636719 123.257812 70.164062 C 123.128906 70.089844 123.066406 70.074219 123.003906 70.0625 C 123.003906 70.0625 122.960938 70.078125 122.949219 70 C 122.554688 69.53125 122.21875 69.058594 121.765625 68.761719 C 120.671875 68.046875 120.640625 67.703125 121.109375 66.519531 C 121.59375 65.304688 121.84375 63.992188 122.15625 62.714844 C 122.433594 61.566406 122.570312 60.375 123.382812 59.421875 C 123.515625 59.265625 123.679688 58.945312 123.613281 58.851562 C 123.277344 58.375 123.625 58.097656 123.8125 57.726562 C 124.191406 56.964844 124.519531 56.171875 124.835938 55.378906 C 125.0625 54.804688 125.230469 54.210938 125.425781 53.625 C 125.496094 53.40625 125.570312 53.1875 125.636719 52.96875 C 125.824219 52.355469 126.007812 51.738281 126.199219 51.128906 C 126.320312 50.734375 126.449219 50.34375 126.585938 49.953125 C 126.816406 49.296875 126.992188 48.609375 127.3125 48 C 127.597656 47.457031 128.0625 47.539062 128.390625 48.085938 C 128.5 48.269531 128.667969 48.414062 128.808594 48.578125 Z M 128.808594 48.578125 "/>
<path style=" stroke:none;fill-rule:nonzero;fill:rgb(69.019608%,99.215686%,99.607843%);fill-opacity:1;" d="M 128.832031 48.515625 C 128.667969 48.414062 128.5 48.269531 128.390625 48.085938 C 128.0625 47.539062 127.597656 47.457031 127.3125 48 C 126.992188 48.609375 126.816406 49.296875 126.585938 49.953125 C 126.449219 50.34375 126.320312 50.734375 126.199219 51.128906 C 126.007812 51.738281 125.824219 52.355469 125.636719 52.96875 C 125.570312 53.1875 125.496094 53.40625 125.425781 53.625 C 125.230469 54.210938 125.0625 54.804688 124.835938 55.378906 C 124.519531 56.171875 124.191406 56.964844 123.8125 57.726562 C 123.625 58.097656 123.277344 58.375 123.613281 58.851562 C 123.679688 58.945312 123.515625 59.265625 123.382812 59.421875 C 122.570312 60.375 122.433594 61.566406 122.15625 62.714844 C 121.84375 63.992188 121.59375 65.304688 121.109375 66.519531 C 120.640625 67.703125 120.671875 68.046875 121.765625 68.761719 C 122.21875 69.058594 122.554688 69.53125 122.9375 69.980469 C 121.480469 69.4375 120.023438 68.839844 118.542969 68.140625 C 118.167969 67.714844 117.847656 67.34375 117.460938 67.074219 C 116.960938 66.722656 116.679688 66.390625 116.890625 65.707031 C 117.1875 64.75 117.34375 63.746094 117.585938 62.765625 C 117.859375 61.664062 118.082031 60.542969 118.46875 59.480469 C 119.0625 57.851562 119.738281 56.25 120.449219 54.664062 C 120.886719 53.691406 121.128906 52.601562 122.160156 51.941406 C 122.875 51.480469 123.460938 50.804688 124.082031 50.207031 C 124.304688 49.996094 124.613281 49.71875 124.054688 49.515625 C 125.464844 48.320312 126.878906 47.125 128.292969 45.929688 C 129.113281 46.738281 128.808594 47.628906 128.832031 48.515625 Z M 128.832031 48.515625 "/>
<path style=" stroke:none;fill-rule:nonzero;fill:rgb(72.156863%,99.607843%,100%);fill-opacity:1;" d="M 124 49.535156 C 124.613281 49.71875 124.304688 49.996094 124.082031 50.207031 C 123.460938 50.804688 122.875 51.480469 122.160156 51.941406 C 121.128906 52.601562 120.886719 53.691406 120.449219 54.664062 C 119.738281 56.25 119.0625 57.851562 118.46875 59.480469 C 118.082031 60.542969 117.859375 61.664062 117.585938 62.765625 C 117.34375 63.746094 117.1875 64.75 116.890625 65.707031 C 116.679688 66.390625 116.960938 66.722656 117.460938 67.074219 C 117.847656 67.34375 118.167969 67.714844 118.507812 68.09375 C 118.46875 68.148438 118.441406 68.148438 118.367188 68.097656 C 118.289062 68.019531 118.253906 68.011719 118.214844 68.019531 C 118.183594 68.015625 118.152344 68.015625 118.058594 67.953125 C 117.921875 67.875 117.847656 67.855469 117.773438 67.839844 C 117.738281 67.832031 117.703125 67.828125 117.59375 67.777344 C 117.449219 67.714844 117.378906 67.699219 117.3125 67.679688 C 115.066406 66.808594 112.824219 65.921875 110.570312 65.066406 C 109.460938 64.648438 108.328125 64.28125 107.121094 63.859375 C 107.984375 63.058594 108.8125 62.246094 109.695312 61.496094 C 111.0625 60.332031 112.480469 59.226562 113.847656 58.066406 C 116.398438 55.910156 118.925781 53.730469 121.46875 51.566406 C 121.542969 51.5 121.65625 51.480469 121.832031 51.417969 C 121.949219 51.378906 121.96875 51.351562 121.972656 51.3125 C 121.972656 51.3125 122.011719 51.253906 122.058594 51.246094 C 122.105469 51.238281 122.132812 51.1875 122.132812 51.1875 C 122.378906 50.960938 122.625 50.730469 122.945312 50.476562 C 123.058594 50.429688 123.078125 50.402344 123.082031 50.363281 C 123.082031 50.363281 123.125 50.304688 123.171875 50.296875 C 123.214844 50.289062 123.230469 50.257812 123.230469 50.257812 C 123.238281 50.230469 123.25 50.203125 123.3125 50.152344 C 123.363281 50.128906 123.390625 50.066406 123.390625 50.066406 C 123.390625 50.066406 123.429688 50 123.480469 49.984375 C 123.53125 49.972656 123.5625 49.917969 123.5625 49.917969 C 123.691406 49.796875 123.820312 49.671875 124 49.535156 Z M 124 49.535156 "/>
<path style=" stroke:none;fill-rule:nonzero;fill:rgb(62.352941%,99.607843%,100%);fill-opacity:1;" d="M 56.675781 79.890625 C 56.332031 79.144531 56.019531 79.769531 55.820312 79.949219 C 55.320312 80.398438 54.917969 80.957031 54.402344 81.386719 C 54.113281 81.632812 53.691406 81.808594 53.308594 81.851562 C 52.660156 81.925781 51.992188 81.925781 51.34375 81.851562 C 50.945312 81.804688 50.484375 81.644531 50.210938 81.375 C 49.996094 81.160156 50.738281 80.140625 51.171875 79.992188 C 50.679688 79.503906 50.335938 79.097656 50.511719 78.21875 C 50.65625 77.503906 50.113281 76.652344 49.871094 75.863281 C 49.839844 75.769531 49.773438 75.683594 49.703125 75.550781 C 50.285156 75.300781 50.960938 75.046875 49.925781 74.507812 C 49.875 74.480469 49.851562 74.371094 49.839844 74.296875 C 49.699219 73.226562 49.5625 72.15625 49.425781 71.085938 C 50.6875 70.636719 51.535156 71.585938 52.542969 71.917969 C 53.480469 72.226562 54.371094 72.679688 55.300781 73.03125 C 55.492188 73.101562 55.75 72.996094 55.992188 72.917969 C 57.515625 73.566406 59.035156 74.246094 60.53125 74.972656 C 61.25 75.324219 60.710938 75.730469 60.457031 76.007812 C 59.753906 76.769531 58.988281 77.476562 58.265625 78.21875 C 57.738281 78.757812 57.234375 79.320312 56.675781 79.890625 Z M 56.675781 79.890625 "/>
<path style=" stroke:none;fill-rule:nonzero;fill:rgb(69.019608%,99.215686%,99.607843%);fill-opacity:1;" d="M 46.449219 67.925781 C 44.96875 68.175781 43.808594 67.179688 42.464844 66.828125 C 41.863281 66.671875 41.285156 66.4375 40.71875 66.242188 C 40.832031 67.273438 40.90625 68.253906 41.066406 69.222656 C 41.171875 69.867188 41.445312 70.484375 41.558594 71.132812 C 41.617188 71.472656 41.441406 71.851562 41.464844 72.207031 C 41.496094 72.699219 41.480469 73.269531 41.722656 73.664062 C 42.832031 75.488281 44.035156 77.25 45.171875 79.054688 C 45.417969 79.4375 45.539062 79.898438 45.710938 80.382812 C 45.136719 79.820312 44.5625 79.199219 43.972656 78.515625 C 43.953125 78.449219 43.929688 78.4375 43.929688 78.4375 C 43.738281 78.226562 43.550781 78.015625 43.339844 77.734375 C 43.316406 77.664062 43.28125 77.648438 43.28125 77.648438 C 43.253906 77.632812 43.226562 77.617188 43.183594 77.550781 C 43.164062 77.5 43.136719 77.492188 43.136719 77.492188 C 42.589844 76.835938 42.035156 76.1875 41.5 75.519531 C 40.121094 73.792969 38.75 72.058594 37.378906 70.328125 C 35.808594 68.34375 34.242188 66.359375 32.632812 64.328125 C 33.125 63.65625 33.554688 62.96875 34.09375 62.390625 C 34.285156 62.183594 34.832031 62.070312 35.078125 62.191406 C 37.238281 63.28125 39.347656 64.464844 41.503906 65.558594 C 43.121094 66.378906 44.78125 67.113281 46.449219 67.925781 Z M 46.449219 67.925781 "/>
<path style=" stroke:none;fill-rule:nonzero;fill:rgb(56.078431%,95.294118%,100%);fill-opacity:1;" d="M 96.3125 75.03125 C 96.113281 75.03125 95.914062 74.9375 95.820312 75 C 95.03125 75.53125 94.257812 76.09375 93.238281 76.824219 C 93.238281 76.191406 93.277344 75.777344 93.226562 75.375 C 93.101562 74.347656 93.578125 73.257812 92.859375 72.285156 C 92.75 72.136719 92.972656 71.761719 93.003906 71.484375 C 93.054688 71.039062 93.089844 70.589844 93.105469 70.140625 C 93.132812 69.335938 93.132812 68.527344 93.15625 67.71875 C 93.164062 67.515625 93.253906 67.3125 93.253906 67.109375 C 93.269531 66.089844 93.242188 65.066406 93.292969 64.050781 C 93.300781 63.882812 93.644531 63.582031 93.808594 63.597656 C 94.582031 63.675781 95.34375 63.847656 96.117188 63.96875 C 96.363281 64.003906 96.625 63.980469 96.894531 63.933594 C 98.074219 64.464844 99.242188 65.046875 100.449219 65.691406 C 100.28125 65.765625 100.066406 65.796875 99.855469 65.78125 C 98.890625 65.710938 98.488281 65.898438 98.273438 66.84375 C 98.082031 67.679688 98.117188 68.566406 98.023438 69.425781 C 98 69.636719 97.855469 69.832031 97.785156 70.042969 C 97.722656 70.226562 97.683594 70.417969 97.636719 70.609375 C 97.847656 70.640625 98.089844 70.757812 98.261719 70.691406 C 98.84375 70.464844 99.398438 70.171875 99.976562 69.929688 C 100.015625 69.914062 100.132812 70.089844 100.214844 70.175781 C 99.402344 71.167969 98.582031 72.160156 97.773438 73.164062 C 97.289062 73.769531 96.828125 74.390625 96.3125 75.03125 Z M 96.3125 75.03125 "/>
<path style=" stroke:none;fill-rule:nonzero;fill:rgb(65.490196%,99.607843%,100%);fill-opacity:1;" d="M 18.703125 59.273438 C 18.082031 59.023438 17.457031 58.785156 16.84375 58.523438 C 14.351562 57.460938 11.878906 56.347656 9.367188 55.34375 C 8.46875 54.984375 8.5625 54.386719 8.574219 53.664062 C 8.605469 51.089844 8.585938 48.515625 8.585938 45.796875 C 9.601562 46.527344 10.632812 47.175781 11.554688 47.949219 C 13.46875 49.542969 15.328125 51.207031 17.210938 52.835938 C 17.367188 52.96875 17.5625 53.050781 17.769531 53.21875 C 17.800781 53.277344 17.828125 53.289062 17.828125 53.289062 C 17.855469 53.304688 17.886719 53.320312 17.933594 53.386719 C 17.957031 53.4375 17.976562 53.445312 17.976562 53.445312 C 18.367188 53.730469 18.761719 54.011719 19.117188 54.351562 C 18.230469 53.976562 17.382812 53.550781 16.539062 53.113281 C 16.261719 52.96875 16.019531 52.75 15.734375 52.632812 C 15.066406 52.367188 14.652344 52.734375 14.714844 53.433594 C 14.769531 54.070312 14.835938 54.738281 14.710938 55.351562 C 14.597656 55.914062 14.757812 56.28125 15.132812 56.59375 C 15.492188 56.890625 15.898438 57.128906 16.285156 57.390625 C 17.132812 57.96875 18.214844 58.234375 18.703125 59.273438 Z M 18.703125 59.273438 "/>
<path style=" stroke:none;fill-rule:nonzero;fill:rgb(56.078431%,95.294118%,100%);fill-opacity:1;" d="M 95.148438 52.417969 C 95.800781 53.210938 96.460938 54 97.105469 54.800781 C 98.035156 55.960938 98.949219 57.128906 99.898438 58.367188 C 99.941406 58.476562 99.96875 58.492188 100.003906 58.5 C 100.003906 58.5 100.0625 58.546875 100.070312 58.589844 C 100.082031 58.632812 100.113281 58.652344 100.113281 58.652344 C 100.140625 58.667969 100.167969 58.683594 100.21875 58.75 C 100.242188 58.796875 100.265625 58.8125 100.265625 58.8125 C 100.292969 58.824219 100.320312 58.832031 100.371094 58.890625 C 100.394531 58.941406 100.433594 58.964844 100.433594 58.964844 C 101.816406 60.796875 103.199219 62.628906 104.609375 64.492188 C 104.230469 64.796875 103.828125 65.125 103.472656 65.414062 C 100.285156 63.933594 97.113281 62.460938 93.949219 60.914062 C 93.710938 60.484375 93.519531 60.082031 93.21875 59.792969 C 92.945312 59.527344 92.5 59.4375 92.230469 59.167969 C 92.042969 58.980469 91.871094 58.539062 91.964844 58.347656 C 92.480469 57.292969 92.527344 56.167969 92.628906 55.042969 C 92.699219 54.289062 92.726562 53.53125 92.847656 52.785156 C 93.023438 51.699219 93.050781 51.703125 94.046875 52.1875 C 94.304688 52.3125 94.550781 52.464844 94.820312 52.558594 C 94.902344 52.589844 95.035156 52.46875 95.148438 52.417969 M 97.59375 59.285156 C 97.121094 59.804688 96.910156 60.28125 97.546875 60.886719 C 97.984375 61.308594 98.167969 62.0625 98.652344 62.347656 C 99.933594 63.101562 101.3125 63.683594 102.660156 64.3125 C 102.824219 64.390625 103.039062 64.359375 103.234375 64.375 C 103.246094 64.15625 103.347656 63.886719 103.257812 63.722656 C 102.984375 63.222656 102.671875 62.734375 102.3125 62.296875 C 101.421875 61.207031 100.34375 60.234375 99.636719 59.042969 C 99.15625 58.230469 98.652344 57.875 97.644531 57.761719 C 97.644531 58.269531 97.644531 58.722656 97.59375 59.285156 Z M 97.59375 59.285156 "/>
<path style=" stroke:none;fill-rule:nonzero;fill:rgb(62.352941%,99.607843%,100%);fill-opacity:1;" d="M 18.753906 59.300781 C 18.214844 58.234375 17.132812 57.96875 16.285156 57.390625 C 15.898438 57.128906 15.492188 56.890625 15.132812 56.59375 C 14.757812 56.28125 14.597656 55.914062 14.710938 55.351562 C 14.835938 54.738281 14.769531 54.070312 14.714844 53.433594 C 14.652344 52.734375 15.066406 52.367188 15.734375 52.632812 C 16.019531 52.75 16.261719 52.96875 16.539062 53.113281 C 17.382812 53.550781 18.230469 53.976562 19.136719 54.402344 C 21.003906 55.917969 22.816406 57.441406 24.699219 58.988281 C 24.769531 59.007812 24.816406 59 24.816406 59 C 24.816406 59 24.871094 59.015625 24.882812 59.058594 C 24.898438 59.105469 24.960938 59.136719 24.960938 59.136719 C 24.960938 59.136719 25.023438 59.15625 25.046875 59.210938 C 25.09375 59.292969 25.125 59.304688 25.164062 59.304688 C 25.253906 59.359375 25.347656 59.414062 25.484375 59.527344 C 25.527344 59.582031 25.589844 59.613281 25.589844 59.613281 C 25.589844 59.613281 25.652344 59.625 25.675781 59.679688 C 25.722656 59.761719 25.757812 59.773438 25.796875 59.773438 C 25.796875 59.773438 25.832031 59.773438 25.839844 59.820312 C 25.867188 59.902344 25.898438 59.925781 25.9375 59.925781 C 25.9375 59.925781 25.988281 59.941406 26.003906 59.992188 C 26.042969 60.074219 26.074219 60.089844 26.113281 60.085938 C 26.371094 60.308594 26.628906 60.53125 26.925781 60.8125 C 26.964844 60.871094 27.011719 60.886719 27.011719 60.886719 C 27.011719 60.886719 27.066406 60.886719 27.097656 60.9375 C 27.164062 61.023438 27.207031 61.039062 27.253906 61.035156 C 27.285156 61.039062 27.316406 61.046875 27.382812 61.105469 C 27.417969 61.15625 27.484375 61.1875 27.484375 61.1875 C 27.484375 61.1875 27.546875 61.214844 27.566406 61.265625 C 27.582031 61.316406 27.644531 61.347656 27.644531 61.347656 C 27.644531 61.347656 27.707031 61.378906 27.722656 61.429688 C 27.738281 61.480469 27.792969 61.503906 27.792969 61.503906 C 27.792969 61.503906 27.859375 61.519531 27.886719 61.574219 C 27.933594 61.65625 27.964844 61.671875 28.003906 61.667969 C 28.148438 61.746094 28.296875 61.824219 28.425781 61.984375 C 28.015625 62.414062 27.621094 62.765625 27.222656 63.113281 C 27.089844 63.046875 26.953125 62.980469 26.769531 62.859375 C 26.726562 62.800781 26.671875 62.789062 26.671875 62.789062 C 26.671875 62.789062 26.625 62.792969 26.585938 62.738281 C 26.46875 62.667969 26.390625 62.652344 26.308594 62.632812 C 26.308594 62.632812 26.289062 62.636719 26.269531 62.59375 C 26.183594 62.519531 26.117188 62.492188 26.046875 62.464844 C 26.046875 62.464844 25.992188 62.472656 25.953125 62.417969 C 25.835938 62.34375 25.757812 62.328125 25.679688 62.3125 C 25.441406 62.21875 25.199219 62.121094 24.890625 61.960938 C 24.738281 61.871094 24.660156 61.855469 24.582031 61.835938 C 24.441406 61.792969 24.300781 61.75 24.09375 61.640625 C 23.945312 61.558594 23.863281 61.542969 23.785156 61.527344 C 22.125 60.792969 20.460938 60.0625 18.753906 59.300781 M 25.777344 61.5 C 25.972656 61.550781 26.171875 61.597656 26.367188 61.648438 C 26.417969 61.550781 26.464844 61.449219 26.511719 61.351562 C 25.929688 60.964844 25.34375 60.578125 24.757812 60.191406 C 24.636719 61.0625 25.222656 61.191406 25.777344 61.5 Z M 25.777344 61.5 "/>
<path style=" stroke:none;fill-rule:nonzero;fill:rgb(61.176471%,99.607843%,100%);fill-opacity:1;" d="M 91.203125 59.617188 C 90.117188 59.148438 89.023438 58.691406 87.941406 58.214844 C 85.960938 57.34375 83.984375 56.464844 82.007812 55.582031 C 81.773438 55.480469 81.554688 55.34375 81.167969 55.140625 C 83.707031 52.273438 86.179688 49.480469 88.660156 46.679688 C 90.617188 47.269531 92.125 48.492188 93.34375 50.105469 C 92.824219 49.886719 92.351562 49.617188 91.886719 49.34375 C 91.304688 49.003906 90.757812 48.574219 90.136719 48.335938 C 89.488281 48.082031 88.675781 48.503906 88.621094 49.078125 C 88.546875 49.890625 88.664062 50.722656 88.5625 51.53125 C 88.429688 52.609375 88.34375 53.753906 87.917969 54.730469 C 87.332031 56.0625 87.5 56.882812 88.800781 57.582031 C 89.59375 58.007812 90.308594 58.582031 91.039062 59.121094 C 91.152344 59.207031 91.152344 59.449219 91.203125 59.617188 Z M 91.203125 59.617188 "/>
<path style=" stroke:none;fill-rule:nonzero;fill:rgb(59.607843%,98.039216%,100%);fill-opacity:1;" d="M 91.246094 59.65625 C 91.152344 59.449219 91.152344 59.207031 91.039062 59.121094 C 90.308594 58.582031 89.59375 58.007812 88.800781 57.582031 C 87.5 56.882812 87.332031 56.0625 87.917969 54.730469 C 88.34375 53.753906 88.429688 52.609375 88.5625 51.53125 C 88.664062 50.722656 88.546875 49.890625 88.621094 49.078125 C 88.675781 48.503906 89.488281 48.082031 90.136719 48.335938 C 90.757812 48.574219 91.304688 49.003906 91.886719 49.34375 C 92.351562 49.617188 92.824219 49.886719 93.351562 50.15625 C 93.410156 50.15625 93.4375 50.164062 93.445312 50.199219 C 93.46875 50.261719 93.492188 50.28125 93.519531 50.289062 C 94.03125 50.976562 94.542969 51.667969 95.101562 52.386719 C 95.035156 52.46875 94.902344 52.589844 94.820312 52.558594 C 94.550781 52.464844 94.304688 52.3125 94.046875 52.1875 C 93.050781 51.703125 93.023438 51.699219 92.847656 52.785156 C 92.726562 53.53125 92.699219 54.289062 92.628906 55.042969 C 92.527344 56.167969 92.480469 57.292969 91.964844 58.347656 C 91.871094 58.539062 92.042969 58.980469 92.230469 59.167969 C 92.5 59.4375 92.945312 59.527344 93.21875 59.792969 C 93.519531 60.082031 93.710938 60.484375 93.910156 60.875 C 93.007812 60.503906 92.148438 60.097656 91.246094 59.65625 Z M 91.246094 59.65625 "/>
<path style=" stroke:none;fill-rule:nonzero;fill:rgb(60.392157%,99.215686%,100%);fill-opacity:1;" d="M 127.648438 73.34375 C 128.863281 73.601562 128.859375 73.601562 128.859375 74.777344 C 128.855469 77.210938 128.859375 79.644531 128.859375 82.078125 C 128.859375 82.308594 128.859375 82.539062 128.859375 82.972656 C 127.195312 82.019531 125.882812 80.871094 124.578125 79.625 C 124.390625 79.171875 124.253906 78.761719 124.003906 78.445312 C 123.300781 77.554688 122.5 76.699219 123.140625 75.453125 C 123.445312 74.859375 123.832031 74.300781 124.222656 73.75 C 124.601562 73.21875 125.0625 73.085938 125.726562 73.367188 C 126.328125 73.621094 127.011719 73.804688 127.648438 73.34375 Z M 127.648438 73.34375 "/>
<path style=" stroke:none;fill-rule:nonzero;fill:rgb(61.176471%,99.607843%,100%);fill-opacity:1;" d="M 126.597656 71.503906 C 126.429688 71.195312 126.371094 70.789062 126.160156 70.6875 C 124.996094 70.121094 125.140625 69.195312 125.378906 68.21875 C 125.628906 67.210938 125.871094 66.203125 126.113281 65.195312 C 126.621094 63.0625 127.128906 60.929688 127.816406 58.785156 C 127.878906 59.382812 127.96875 59.976562 128 60.578125 C 128.027344 61.203125 128.085938 61.800781 128.792969 62.21875 C 128.792969 59.667969 128.792969 57.121094 128.800781 54.5 C 128.828125 57.683594 128.851562 60.941406 128.863281 64.195312 C 128.875 66.847656 128.867188 69.503906 128.867188 72.347656 C 128.074219 72.0625 127.355469 71.808594 126.597656 71.503906 Z M 126.597656 71.503906 "/>
<path style=" stroke:none;fill-rule:nonzero;fill:rgb(63.921569%,100%,100%);fill-opacity:1;" d="M 127.613281 73.300781 C 127.011719 73.804688 126.328125 73.621094 125.726562 73.367188 C 125.0625 73.085938 124.601562 73.21875 124.222656 73.75 C 123.832031 74.300781 123.445312 74.859375 123.140625 75.453125 C 122.5 76.699219 123.300781 77.554688 124.003906 78.445312 C 124.253906 78.761719 124.390625 79.171875 124.546875 79.578125 C 122.921875 78.347656 121.324219 77.074219 119.738281 75.746094 C 119.765625 75.570312 119.828125 75.375 119.773438 75.332031 C 118.742188 74.496094 118.871094 73.441406 119.171875 72.34375 C 119.46875 71.257812 119.898438 71.007812 121.003906 71.191406 C 121.261719 71.234375 121.550781 71.082031 121.824219 71.019531 C 123.183594 71.578125 124.539062 72.144531 125.90625 72.6875 C 126.453125 72.90625 127.019531 73.070312 127.613281 73.300781 Z M 127.613281 73.300781 "/>
<path style=" stroke:none;fill-rule:nonzero;fill:rgb(59.607843%,98.039216%,100%);fill-opacity:1;" d="M 26.195312 68.703125 C 26.089844 68.1875 25.851562 68.332031 25.511719 68.503906 C 24.902344 68.808594 24.257812 69.046875 23.414062 69.398438 C 23.480469 68.429688 23.601562 67.71875 23.554688 67.015625 C 23.503906 66.320312 23.207031 65.644531 23.15625 64.949219 C 23.089844 64.027344 23.355469 63.910156 24.222656 64.226562 C 24.777344 64.429688 25.371094 64.546875 25.953125 64.648438 C 26.0625 64.667969 26.210938 64.433594 26.328125 64.265625 C 27.484375 64.6875 28.660156 65.15625 29.941406 65.671875 C 28.667969 66.710938 27.453125 67.695312 26.195312 68.703125 Z M 26.195312 68.703125 "/>
<path style=" stroke:none;fill-rule:nonzero;fill:rgb(69.019608%,99.215686%,99.607843%);fill-opacity:1;" d="M 121.796875 70.992188 C 121.550781 71.082031 121.261719 71.234375 121.003906 71.191406 C 119.898438 71.007812 119.46875 71.257812 119.171875 72.34375 C 118.871094 73.441406 118.742188 74.496094 119.773438 75.332031 C 119.828125 75.375 119.765625 75.570312 119.710938 75.707031 C 119.464844 75.5625 119.265625 75.40625 119.019531 75.191406 C 118.976562 75.136719 118.914062 75.101562 118.914062 75.101562 C 118.851562 75.042969 118.792969 74.988281 118.691406 74.871094 C 118.652344 74.8125 118.605469 74.796875 118.605469 74.796875 C 118.605469 74.796875 118.535156 74.769531 118.511719 74.714844 C 118.488281 74.664062 118.421875 74.632812 118.421875 74.632812 C 117.265625 73.699219 116.109375 72.769531 114.964844 71.75 C 115.054688 71.300781 115.210938 70.9375 115.195312 70.578125 C 115.171875 69.925781 115.34375 69.46875 116.015625 69.261719 C 116.230469 69.195312 116.417969 69.039062 116.617188 68.925781 C 117.746094 69.402344 118.871094 69.878906 120.09375 70.40625 C 120.308594 70.472656 120.4375 70.492188 120.5625 70.507812 C 120.800781 70.601562 121.042969 70.695312 121.359375 70.855469 C 121.519531 70.9375 121.605469 70.953125 121.691406 70.96875 C 121.691406 70.96875 121.769531 70.960938 121.796875 70.992188 Z M 121.796875 70.992188 "/>
<path style=" stroke:none;fill-rule:nonzero;fill:rgb(72.156863%,99.607843%,100%);fill-opacity:1;" d="M 116.59375 68.878906 C 116.417969 69.039062 116.230469 69.195312 116.015625 69.261719 C 115.34375 69.46875 115.171875 69.925781 115.195312 70.578125 C 115.210938 70.9375 115.054688 71.300781 114.933594 71.707031 C 113.332031 70.414062 111.789062 69.066406 110.214844 67.753906 C 109.21875 66.921875 108.179688 66.140625 107.160156 65.335938 C 107.210938 65.238281 107.257812 65.140625 107.308594 65.042969 C 110.394531 66.308594 113.480469 67.570312 116.59375 68.878906 Z M 116.59375 68.878906 "/>
<path style=" stroke:none;fill-rule:nonzero;fill:rgb(54.509804%,93.333333%,100%);fill-opacity:1;" d="M 100.261719 70.152344 C 100.132812 70.089844 100.015625 69.914062 99.976562 69.929688 C 99.398438 70.171875 98.84375 70.464844 98.261719 70.691406 C 98.089844 70.757812 97.847656 70.640625 97.636719 70.609375 C 97.683594 70.417969 97.722656 70.226562 97.785156 70.042969 C 97.855469 69.832031 98 69.636719 98.023438 69.425781 C 98.117188 68.566406 98.082031 67.679688 98.273438 66.84375 C 98.488281 65.898438 98.890625 65.710938 99.855469 65.78125 C 100.066406 65.796875 100.28125 65.765625 100.507812 65.707031 C 101.304688 65.980469 102.085938 66.304688 102.941406 66.65625 C 102.027344 67.859375 101.167969 68.996094 100.261719 70.152344 Z M 100.261719 70.152344 "/>
<path style=" stroke:none;fill-rule:nonzero;fill:rgb(56.078431%,95.294118%,100%);fill-opacity:1;" d="M 27.261719 63.15625 C 27.621094 62.765625 28.015625 62.414062 28.449219 62.027344 C 29.425781 62.800781 30.367188 63.613281 31.308594 64.425781 C 31.269531 64.53125 31.226562 64.632812 31.1875 64.738281 C 30.90625 64.710938 30.597656 64.75 30.351562 64.640625 C 29.324219 64.183594 28.3125 63.683594 27.261719 63.15625 Z M 27.261719 63.15625 "/>
<path style=" stroke:none;fill-rule:nonzero;fill:rgb(61.176471%,99.607843%,100%);fill-opacity:1;" d="M 69.640625 82.496094 C 70.304688 82.4375 71.046875 82.367188 71.789062 82.351562 C 72.539062 82.335938 73.289062 82.378906 74.09375 82.429688 C 72.671875 82.480469 71.191406 82.496094 69.640625 82.496094 Z M 69.640625 82.496094 "/>
<path style=" stroke:none;fill-rule:nonzero;fill:rgb(56.078431%,95.294118%,100%);fill-opacity:1;" d="M 96.511719 63.691406 C 96.417969 63.699219 96.296875 63.671875 96.15625 63.597656 C 96.25 63.589844 96.367188 63.621094 96.511719 63.691406 Z M 96.511719 63.691406 "/>
<path style=" stroke:none;fill-rule:nonzero;fill:rgb(63.921569%,100%,100%);fill-opacity:1;" d="M 120.535156 70.464844 C 120.4375 70.492188 120.308594 70.472656 120.148438 70.417969 C 120.246094 70.398438 120.378906 70.410156 120.535156 70.464844 Z M 120.535156 70.464844 "/>
<path style=" stroke:none;fill-rule:nonzero;fill:rgb(56.078431%,95.294118%,100%);fill-opacity:1;" d="M 26.066406 62.5 C 26.117188 62.492188 26.183594 62.519531 26.265625 62.582031 C 26.214844 62.589844 26.148438 62.5625 26.066406 62.5 Z M 26.066406 62.5 "/>
<path style=" stroke:none;fill-rule:nonzero;fill:rgb(69.019608%,99.215686%,99.607843%);fill-opacity:1;" d="M 117.328125 67.714844 C 117.378906 67.699219 117.449219 67.714844 117.542969 67.757812 C 117.492188 67.773438 117.421875 67.761719 117.328125 67.714844 Z M 117.328125 67.714844 "/>
<path style=" stroke:none;fill-rule:nonzero;fill:rgb(69.019608%,99.215686%,99.607843%);fill-opacity:1;" d="M 117.792969 67.875 C 117.847656 67.855469 117.921875 67.875 118.019531 67.921875 C 117.964844 67.9375 117.890625 67.921875 117.792969 67.875 Z M 117.792969 67.875 "/>
<path style=" stroke:none;fill-rule:nonzero;fill:rgb(59.607843%,98.039216%,100%);fill-opacity:1;" d="M 26.253906 64.152344 C 26.195312 64.175781 26.117188 64.160156 26.015625 64.113281 C 26.070312 64.09375 26.15625 64.105469 26.253906 64.152344 Z M 26.253906 64.152344 "/>
<path style=" stroke:none;fill-rule:nonzero;fill:rgb(59.607843%,98.039216%,100%);fill-opacity:1;" d="M 25.710938 69.023438 C 25.734375 69 25.785156 68.972656 25.871094 68.941406 C 25.847656 68.96875 25.792969 68.988281 25.710938 69.023438 Z M 25.710938 69.023438 "/>
<path style=" stroke:none;fill-rule:nonzero;fill:rgb(56.078431%,95.294118%,100%);fill-opacity:1;" d="M 26.328125 62.671875 C 26.390625 62.652344 26.46875 62.667969 26.574219 62.71875 C 26.511719 62.738281 26.429688 62.726562 26.328125 62.671875 Z M 26.328125 62.671875 "/>
<path style=" stroke:none;fill-rule:nonzero;fill:rgb(56.078431%,95.294118%,100%);fill-opacity:1;" d="M 25.703125 62.347656 C 25.757812 62.328125 25.835938 62.34375 25.9375 62.398438 C 25.878906 62.414062 25.800781 62.398438 25.703125 62.347656 Z M 25.703125 62.347656 "/>
<path style=" stroke:none;fill-rule:nonzero;fill:rgb(56.078431%,95.294118%,100%);fill-opacity:1;" d="M 24.605469 61.871094 C 24.660156 61.855469 24.738281 61.871094 24.84375 61.925781 C 24.792969 61.941406 24.710938 61.921875 24.605469 61.871094 Z M 24.605469 61.871094 "/>
<path style=" stroke:none;fill-rule:nonzero;fill:rgb(56.078431%,95.294118%,100%);fill-opacity:1;" d="M 23.808594 61.558594 C 23.863281 61.542969 23.945312 61.558594 24.050781 61.605469 C 23.996094 61.625 23.917969 61.609375 23.808594 61.558594 Z M 23.808594 61.558594 "/>
<path style=" stroke:none;fill-rule:nonzero;fill:rgb(69.019608%,99.215686%,99.607843%);fill-opacity:1;" d="M 123.023438 70.089844 C 123.066406 70.074219 123.128906 70.089844 123.210938 70.128906 C 123.167969 70.140625 123.101562 70.128906 123.023438 70.089844 Z M 123.023438 70.089844 "/>
<path style=" stroke:none;fill-rule:nonzero;fill:rgb(59.607843%,98.039216%,100%);fill-opacity:1;" d="M 90.300781 81.375 C 90.324219 81.328125 90.390625 81.285156 90.492188 81.246094 C 90.46875 81.292969 90.40625 81.339844 90.300781 81.375 Z M 90.300781 81.375 "/>
<path style=" stroke:none;fill-rule:nonzero;fill:rgb(63.921569%,100%,100%);fill-opacity:1;" d="M 121.664062 70.933594 C 121.605469 70.953125 121.519531 70.9375 121.40625 70.886719 C 121.460938 70.867188 121.550781 70.882812 121.664062 70.933594 Z M 121.664062 70.933594 "/>
<path style=" stroke:none;fill-rule:nonzero;fill:rgb(63.921569%,100%,100%);fill-opacity:1;" d="M 118.421875 74.65625 C 118.421875 74.632812 118.488281 74.664062 118.492188 74.683594 C 118.496094 74.699219 118.453125 74.707031 118.453125 74.707031 C 118.453125 74.707031 118.421875 74.675781 118.421875 74.65625 Z M 118.421875 74.65625 "/>
<path style=" stroke:none;fill-rule:nonzero;fill:rgb(62.352941%,99.607843%,100%);fill-opacity:1;" d="M 18.917969 74.695312 C 18.902344 74.683594 18.921875 74.644531 18.933594 74.644531 C 18.945312 74.644531 18.933594 74.703125 18.917969 74.695312 Z M 18.917969 74.695312 "/>
<path style=" stroke:none;fill-rule:nonzero;fill:rgb(65.490196%,99.607843%,100%);fill-opacity:1;" d="M 43.917969 78.449219 C 43.929688 78.4375 43.953125 78.449219 43.953125 78.457031 C 43.953125 78.464844 43.90625 78.460938 43.917969 78.449219 Z M 43.917969 78.449219 "/>
<path style=" stroke:none;fill-rule:nonzero;fill:rgb(69.019608%,99.215686%,99.607843%);fill-opacity:1;" d="M 123.214844 50.246094 C 123.230469 50.257812 123.214844 50.289062 123.207031 50.289062 C 123.195312 50.289062 123.203125 50.238281 123.214844 50.246094 Z M 123.214844 50.246094 "/>
<path style=" stroke:none;fill-rule:nonzero;fill:rgb(63.921569%,100%,100%);fill-opacity:1;" d="M 118.601562 74.8125 C 118.605469 74.796875 118.652344 74.8125 118.65625 74.824219 C 118.660156 74.835938 118.597656 74.832031 118.601562 74.8125 Z M 118.601562 74.8125 "/>
<path style=" stroke:none;fill-rule:nonzero;fill:rgb(63.921569%,100%,100%);fill-opacity:1;" d="M 118.910156 75.125 C 118.914062 75.101562 118.976562 75.136719 118.980469 75.152344 C 118.988281 75.171875 118.941406 75.179688 118.941406 75.179688 C 118.941406 75.179688 118.90625 75.144531 118.910156 75.125 Z M 118.910156 75.125 "/>
<path style=" stroke:none;fill-rule:nonzero;fill:rgb(56.078431%,95.294118%,100%);fill-opacity:1;" d="M 95.824219 75.644531 C 95.808594 75.636719 95.820312 75.597656 95.832031 75.59375 C 95.84375 75.59375 95.84375 75.648438 95.824219 75.644531 Z M 95.824219 75.644531 "/>
<path style=" stroke:none;fill-rule:nonzero;fill:rgb(56.078431%,95.294118%,100%);fill-opacity:1;" d="M 95.667969 75.816406 C 95.648438 75.8125 95.675781 75.757812 95.691406 75.753906 C 95.726562 75.78125 95.71875 75.804688 95.667969 75.816406 Z M 95.667969 75.816406 "/>
<path style=" stroke:none;fill-rule:nonzero;fill:rgb(69.019608%,99.215686%,99.607843%);fill-opacity:1;" d="M 123.050781 50.363281 C 123.078125 50.402344 123.058594 50.429688 123 50.457031 C 122.96875 50.417969 122.984375 50.386719 123.050781 50.363281 Z M 123.050781 50.363281 "/>
<path style=" stroke:none;fill-rule:nonzero;fill:rgb(69.019608%,99.215686%,99.607843%);fill-opacity:1;" d="M 122.113281 51.183594 C 122.132812 51.1875 122.105469 51.238281 122.09375 51.238281 C 122.078125 51.238281 122.097656 51.175781 122.113281 51.183594 Z M 122.113281 51.183594 "/>
<path style=" stroke:none;fill-rule:nonzero;fill:rgb(56.078431%,95.294118%,100%);fill-opacity:1;" d="M 95.503906 76.015625 C 95.480469 75.976562 95.503906 75.941406 95.566406 75.90625 C 95.605469 75.949219 95.589844 75.988281 95.503906 76.015625 Z M 95.503906 76.015625 "/>
<path style=" stroke:none;fill-rule:nonzero;fill:rgb(65.490196%,99.607843%,100%);fill-opacity:1;" d="M 43.125 77.503906 C 43.136719 77.492188 43.164062 77.5 43.164062 77.507812 C 43.164062 77.515625 43.117188 77.515625 43.125 77.503906 Z M 43.125 77.503906 "/>
<path style=" stroke:none;fill-rule:nonzero;fill:rgb(65.490196%,99.607843%,100%);fill-opacity:1;" d="M 43.273438 77.664062 C 43.28125 77.648438 43.316406 77.664062 43.316406 77.675781 C 43.316406 77.683594 43.265625 77.679688 43.273438 77.664062 Z M 43.273438 77.664062 "/>
<path style=" stroke:none;fill-rule:nonzero;fill:rgb(54.509804%,93.333333%,100%);fill-opacity:1;" d="M 100.007812 58.46875 C 99.96875 58.492188 99.941406 58.476562 99.917969 58.417969 C 99.953125 58.390625 99.984375 58.40625 100.007812 58.46875 Z M 100.007812 58.46875 "/>
<path style=" stroke:none;fill-rule:nonzero;fill:rgb(61.176471%,99.607843%,100%);fill-opacity:1;" d="M 93.523438 50.265625 C 93.492188 50.28125 93.46875 50.261719 93.445312 50.214844 C 93.476562 50.1875 93.507812 50.203125 93.523438 50.265625 Z M 93.523438 50.265625 "/>
<path style=" stroke:none;fill-rule:nonzero;fill:rgb(62.352941%,99.607843%,100%);fill-opacity:1;" d="M 56.503906 80.0625 C 56.488281 80.054688 56.511719 80.011719 56.523438 80.011719 C 56.535156 80.011719 56.523438 80.070312 56.503906 80.0625 Z M 56.503906 80.0625 "/>
<path style=" stroke:none;fill-rule:nonzero;fill:rgb(69.019608%,99.215686%,99.607843%);fill-opacity:1;" d="M 123.371094 50.0625 C 123.390625 50.066406 123.363281 50.128906 123.347656 50.128906 C 123.308594 50.097656 123.316406 50.074219 123.371094 50.0625 Z M 123.371094 50.0625 "/>
<path style=" stroke:none;fill-rule:nonzero;fill:rgb(61.176471%,99.607843%,100%);fill-opacity:1;" d="M 91.117188 80.890625 C 91.109375 80.859375 91.148438 80.820312 91.226562 80.757812 C 91.230469 80.78125 91.195312 80.832031 91.117188 80.890625 Z M 91.117188 80.890625 "/>
<path style=" stroke:none;fill-rule:nonzero;fill:rgb(62.352941%,99.607843%,100%);fill-opacity:1;" d="M 55.5625 81.003906 C 55.546875 81 55.566406 80.957031 55.578125 80.953125 C 55.59375 80.949219 55.582031 81.011719 55.5625 81.003906 Z M 55.5625 81.003906 "/>
<path style=" stroke:none;fill-rule:nonzero;fill:rgb(62.352941%,99.607843%,100%);fill-opacity:1;" d="M 55.402344 81.164062 C 55.386719 81.152344 55.40625 81.117188 55.414062 81.117188 C 55.425781 81.117188 55.417969 81.171875 55.402344 81.164062 Z M 55.402344 81.164062 "/>
<path style=" stroke:none;fill-rule:nonzero;fill:rgb(62.352941%,99.607843%,100%);fill-opacity:1;" d="M 55.238281 81.328125 C 55.222656 81.320312 55.246094 81.273438 55.257812 81.273438 C 55.273438 81.273438 55.257812 81.335938 55.238281 81.328125 Z M 55.238281 81.328125 "/>
<path style=" stroke:none;fill-rule:nonzero;fill:rgb(62.352941%,99.607843%,100%);fill-opacity:1;" d="M 54.929688 81.636719 C 54.914062 81.628906 54.933594 81.585938 54.949219 81.585938 C 54.960938 81.582031 54.949219 81.644531 54.929688 81.636719 Z M 54.929688 81.636719 "/>
<path style=" stroke:none;fill-rule:nonzero;fill:rgb(62.352941%,99.607843%,100%);fill-opacity:1;" d="M 54.777344 81.839844 C 54.746094 81.808594 54.757812 81.78125 54.804688 81.757812 C 54.84375 81.789062 54.835938 81.816406 54.777344 81.839844 Z M 54.777344 81.839844 "/>
<path style=" stroke:none;fill-rule:nonzero;fill:rgb(69.019608%,99.215686%,99.607843%);fill-opacity:1;" d="M 123.542969 49.910156 C 123.5625 49.917969 123.53125 49.972656 123.515625 49.96875 C 123.5 49.96875 123.492188 49.929688 123.492188 49.929688 C 123.492188 49.929688 123.523438 49.90625 123.542969 49.910156 Z M 123.542969 49.910156 "/>
<path style=" stroke:none;fill-rule:nonzero;fill:rgb(56.078431%,95.294118%,100%);fill-opacity:1;" d="M 25.15625 59.277344 C 25.125 59.304688 25.09375 59.292969 25.0625 59.238281 C 25.101562 59.195312 25.132812 59.210938 25.15625 59.277344 Z M 25.15625 59.277344 "/>
<path style=" stroke:none;fill-rule:nonzero;fill:rgb(56.078431%,95.294118%,100%);fill-opacity:1;" d="M 25.9375 59.894531 C 25.898438 59.925781 25.867188 59.902344 25.84375 59.839844 C 25.886719 59.800781 25.917969 59.816406 25.9375 59.894531 Z M 25.9375 59.894531 "/>
<path style=" stroke:none;fill-rule:nonzero;fill:rgb(56.078431%,95.294118%,100%);fill-opacity:1;" d="M 27.015625 60.867188 C 27.011719 60.886719 26.964844 60.871094 26.960938 60.859375 C 26.953125 60.847656 27.015625 60.847656 27.015625 60.867188 Z M 27.015625 60.867188 "/>
<path style=" stroke:none;fill-rule:nonzero;fill:rgb(56.078431%,95.294118%,100%);fill-opacity:1;" d="M 27.242188 61 C 27.207031 61.039062 27.164062 61.023438 27.117188 60.957031 C 27.152344 60.910156 27.195312 60.921875 27.242188 61 Z M 27.242188 61 "/>
<path style=" stroke:none;fill-rule:nonzero;fill:rgb(56.078431%,95.294118%,100%);fill-opacity:1;" d="M 27.488281 61.167969 C 27.484375 61.1875 27.417969 61.15625 27.414062 61.136719 C 27.441406 61.101562 27.46875 61.113281 27.488281 61.167969 Z M 27.488281 61.167969 "/>
<path style=" stroke:none;fill-rule:nonzero;fill:rgb(56.078431%,95.294118%,100%);fill-opacity:1;" d="M 27.644531 61.324219 C 27.644531 61.347656 27.582031 61.316406 27.578125 61.296875 C 27.609375 61.261719 27.632812 61.273438 27.644531 61.324219 Z M 27.644531 61.324219 "/>
<path style=" stroke:none;fill-rule:nonzero;fill:rgb(56.078431%,95.294118%,100%);fill-opacity:1;" d="M 27.796875 61.488281 C 27.792969 61.503906 27.738281 61.480469 27.738281 61.464844 C 27.734375 61.449219 27.800781 61.46875 27.796875 61.488281 Z M 27.796875 61.488281 "/>
<path style=" stroke:none;fill-rule:nonzero;fill:rgb(56.078431%,95.294118%,100%);fill-opacity:1;" d="M 28 61.640625 C 27.964844 61.671875 27.933594 61.65625 27.902344 61.601562 C 27.941406 61.554688 27.972656 61.570312 28 61.640625 Z M 28 61.640625 "/>
<path style=" stroke:none;fill-rule:nonzero;fill:rgb(56.078431%,95.294118%,100%);fill-opacity:1;" d="M 25.792969 59.742188 C 25.757812 59.773438 25.722656 59.761719 25.691406 59.703125 C 25.730469 59.660156 25.765625 59.671875 25.792969 59.742188 Z M 25.792969 59.742188 "/>
<path style=" stroke:none;fill-rule:nonzero;fill:rgb(56.078431%,95.294118%,100%);fill-opacity:1;" d="M 26.671875 62.808594 C 26.671875 62.789062 26.726562 62.800781 26.730469 62.816406 C 26.738281 62.828125 26.703125 62.851562 26.703125 62.851562 C 26.703125 62.851562 26.671875 62.828125 26.671875 62.808594 Z M 26.671875 62.808594 "/>
<path style=" stroke:none;fill-rule:nonzero;fill:rgb(69.019608%,99.215686%,99.607843%);fill-opacity:1;" d="M 73.9375 63.15625 C 73.953125 63.160156 73.9375 63.203125 73.925781 63.203125 C 73.914062 63.203125 73.921875 63.148438 73.9375 63.15625 Z M 73.9375 63.15625 "/>
<path style=" stroke:none;fill-rule:nonzero;fill:rgb(56.078431%,95.294118%,100%);fill-opacity:1;" d="M 25.589844 59.589844 C 25.589844 59.613281 25.527344 59.582031 25.519531 59.5625 C 25.550781 59.53125 25.574219 59.539062 25.589844 59.589844 Z M 25.589844 59.589844 "/>
<path style=" stroke:none;fill-rule:nonzero;fill:rgb(69.019608%,99.215686%,99.607843%);fill-opacity:1;" d="M 121.945312 51.3125 C 121.96875 51.351562 121.949219 51.378906 121.886719 51.40625 C 121.859375 51.371094 121.878906 51.335938 121.945312 51.3125 Z M 121.945312 51.3125 "/>
<path style=" stroke:none;fill-rule:nonzero;fill:rgb(66.27451%,100%,100%);fill-opacity:1;" d="M 71.722656 65.691406 C 71.738281 65.699219 71.71875 65.746094 71.707031 65.746094 C 71.691406 65.746094 71.703125 65.6875 71.722656 65.691406 Z M 71.722656 65.691406 "/>
<path style=" stroke:none;fill-rule:nonzero;fill:rgb(56.078431%,95.294118%,100%);fill-opacity:1;" d="M 24.964844 59.113281 C 24.960938 59.136719 24.898438 59.105469 24.894531 59.085938 C 24.925781 59.050781 24.949219 59.058594 24.964844 59.113281 Z M 24.964844 59.113281 "/>
<path style=" stroke:none;fill-rule:nonzero;fill:rgb(54.509804%,93.333333%,100%);fill-opacity:1;" d="M 100.441406 58.949219 C 100.433594 58.964844 100.394531 58.941406 100.390625 58.929688 C 100.390625 58.917969 100.453125 58.933594 100.441406 58.949219 Z M 100.441406 58.949219 "/>
<path style=" stroke:none;fill-rule:nonzero;fill:rgb(69.019608%,99.215686%,99.607843%);fill-opacity:1;" d="M 118.222656 68.046875 C 118.253906 68.011719 118.289062 68.019531 118.332031 68.070312 C 118.347656 68.09375 118.289062 68.105469 118.289062 68.105469 C 118.289062 68.105469 118.234375 68.078125 118.222656 68.046875 Z M 118.222656 68.046875 "/>
<path style=" stroke:none;fill-rule:nonzero;fill:rgb(56.078431%,95.294118%,100%);fill-opacity:1;" d="M 24.816406 58.980469 C 24.816406 59 24.769531 59.007812 24.75 59.003906 C 24.726562 59 24.757812 58.953125 24.757812 58.953125 C 24.757812 58.953125 24.816406 58.960938 24.816406 58.980469 Z M 24.816406 58.980469 "/>
<path style=" stroke:none;fill-rule:nonzero;fill:rgb(54.509804%,93.333333%,100%);fill-opacity:1;" d="M 100.277344 58.800781 C 100.265625 58.8125 100.242188 58.796875 100.238281 58.792969 C 100.238281 58.785156 100.285156 58.789062 100.277344 58.800781 Z M 100.277344 58.800781 "/>
<path style=" stroke:none;fill-rule:nonzero;fill:rgb(59.607843%,98.039216%,100%);fill-opacity:1;" d="M 26.03125 68.871094 C 26.011719 68.867188 26.035156 68.8125 26.054688 68.808594 C 26.089844 68.839844 26.082031 68.863281 26.03125 68.871094 Z M 26.03125 68.871094 "/>
<path style=" stroke:none;fill-rule:nonzero;fill:rgb(54.509804%,93.333333%,100%);fill-opacity:1;" d="M 100.121094 58.640625 C 100.113281 58.652344 100.082031 58.632812 100.078125 58.625 C 100.078125 58.617188 100.128906 58.625 100.121094 58.640625 Z M 100.121094 58.640625 "/>
<path style=" stroke:none;fill-rule:nonzero;fill:rgb(56.078431%,95.294118%,100%);fill-opacity:1;" d="M 26.109375 60.054688 C 26.074219 60.089844 26.042969 60.074219 26.007812 60.015625 C 26.042969 59.976562 26.078125 59.992188 26.109375 60.054688 Z M 26.109375 60.054688 "/>
<path style=" stroke:none;fill-rule:nonzero;fill:rgb(62.352941%,99.607843%,100%);fill-opacity:1;" d="M 17.988281 53.4375 C 17.976562 53.445312 17.957031 53.4375 17.953125 53.429688 C 17.953125 53.425781 18 53.425781 17.988281 53.4375 Z M 17.988281 53.4375 "/>
<path style=" stroke:none;fill-rule:nonzero;fill:rgb(62.352941%,99.607843%,100%);fill-opacity:1;" d="M 17.839844 53.273438 C 17.828125 53.289062 17.800781 53.277344 17.800781 53.269531 C 17.800781 53.261719 17.851562 53.261719 17.839844 53.273438 Z M 17.839844 53.273438 "/>
<path style=" stroke:none;fill-rule:nonzero;fill:rgb(54.509804%,93.333333%,100%);fill-opacity:1;" d="M 97.621094 59.234375 C 97.644531 58.722656 97.644531 58.269531 97.644531 57.761719 C 98.652344 57.875 99.15625 58.230469 99.636719 59.042969 C 100.34375 60.234375 101.421875 61.207031 102.3125 62.296875 C 102.671875 62.734375 102.984375 63.222656 103.257812 63.722656 C 103.347656 63.886719 103.246094 64.15625 103.234375 64.375 C 103.039062 64.359375 102.824219 64.390625 102.660156 64.3125 C 101.3125 63.683594 99.933594 63.101562 98.652344 62.347656 C 98.167969 62.0625 97.984375 61.308594 97.546875 60.886719 C 96.910156 60.28125 97.121094 59.804688 97.621094 59.234375 Z M 97.621094 59.234375 "/>
<path style=" stroke:none;fill-rule:nonzero;fill:rgb(56.078431%,95.294118%,100%);fill-opacity:1;" d="M 25.722656 61.472656 C 25.222656 61.191406 24.636719 61.0625 24.757812 60.191406 C 25.34375 60.578125 25.929688 60.964844 26.511719 61.351562 C 26.464844 61.449219 26.417969 61.550781 26.367188 61.648438 C 26.171875 61.597656 25.972656 61.550781 25.722656 61.472656 Z M 25.722656 61.472656 "/>
</g>
</svg>
