<svg xmlns="http://www.w3.org/2000/svg" viewBox="0 0 191.24 76.41"><defs><style>.cls-1{fill:#db222a;}.cls-2,.cls-3{fill:#fff;}.cls-3,.cls-4{stroke:#fff;stroke-miterlimit:10;}.cls-4{fill:none;}</style></defs><title>Asset 1</title><g id="Layer_2" data-name="Layer 2"><g id="Layer_1-2" data-name="Layer 1"><path class="cls-1" d="M8,12.26l-8,4.9v42.1l8-5.79ZM8.94,54c-.15-.09-8.11,5.7-8,5.79L29.36,76.41v-9.8L8.94,54Z"/><path class="cls-1" d="M52,12.26V53.47l8,5.79V17.16ZM51.09,54C47,56.58,30.76,66.61,30.76,66.61v9.8L59,59.83C59.17,59.74,51.24,54,51.09,54Z"/><path class="cls-2" d="M31.45,0V10.25L40.27,16v9.8l8.59,4.68,0-19.6Z"/><path class="cls-2" d="M10.79,10.91,11,30.07l7.66-4,.08-10,10.59-6V0Z"/><path class="cls-2" d="M48.61,33.86,30.28,24.29,10.79,33.86l.11,16.71L30.51,62.38,48.73,50.8Z"/><path class="cls-3" d="M77.88,49.21a.56.56,0,0,1-.63-.64V34.38a.56.56,0,0,1,.63-.64h6.27a3.61,3.61,0,0,1,2.66.9,3.48,3.48,0,0,1,.91,2.62v.64a2.92,2.92,0,0,1-1.21,2.67c1.4.57,2.1,1.82,2.1,3.74v.76a3.7,3.7,0,0,1-4.15,4.14ZM78.51,48h5.95a2.48,2.48,0,0,0,2.89-2.88v-.76a3,3,0,0,0-.68-2.18,3,3,0,0,0-2.21-.67H78.51Zm0-7.75h5.82a2.09,2.09,0,0,0,1.6-.56,2.42,2.42,0,0,0,.53-1.74v-.64a2.3,2.3,0,0,0-.55-1.73A2.47,2.47,0,0,0,84.15,35H78.51Zm16.92,9a3.5,3.5,0,0,1-2.51-.79,3.4,3.4,0,0,1-.79-2.49V33.19a.63.63,0,1,1,1.26,0V45.93a2.26,2.26,0,0,0,.43,1.6,2.31,2.31,0,0,0,1.6.42.63.63,0,1,1,0,1.26Zm7.22,0a4.58,4.58,0,0,1-3.29-1,4.51,4.51,0,0,1-1-3.28V42.19a4.52,4.52,0,0,1,1-3.3,4.41,4.41,0,0,1,3.29-1h2a4.48,4.48,0,0,1,3.28,1,4.48,4.48,0,0,1,1,3.28v2.69a4.5,4.5,0,0,1-1,3.28,4.44,4.44,0,0,1-3.28,1.05ZM99.58,44.9a3.35,3.35,0,0,0,.67,2.38,3.44,3.44,0,0,0,2.4.67h2a3.4,3.4,0,0,0,2.39-.67,3.39,3.39,0,0,0,.67-2.4V42.19A3.33,3.33,0,0,0,107,39.8a3.35,3.35,0,0,0-2.39-.67h-2a4.59,4.59,0,0,0-1.82.27,1.8,1.8,0,0,0-1,1,4.79,4.79,0,0,0-.29,1.83Zm17.53,4.31a4.5,4.5,0,0,1-3.29-1.05,4.5,4.5,0,0,1-1-3.28V42.16a4.51,4.51,0,0,1,1-3.27,4.42,4.42,0,0,1,3.3-1h2a5,5,0,0,1,2.69.6,2.51,2.51,0,0,1,1.12,1.86.56.56,0,0,1-.15.49.65.65,0,0,1-.48.17.58.58,0,0,1-.43-.15,1,1,0,0,1-.22-.44,1.27,1.27,0,0,0-.71-1,4.15,4.15,0,0,0-1.82-.29h-2a3.3,3.3,0,0,0-2.4.65,3.29,3.29,0,0,0-.67,2.38v2.72a3.39,3.39,0,0,0,.67,2.4,3.44,3.44,0,0,0,2.4.67h2a4.31,4.31,0,0,0,1.82-.29,1.27,1.27,0,0,0,.71-1,.92.92,0,0,1,.22-.43.58.58,0,0,1,.43-.15.62.62,0,0,1,.48.18.54.54,0,0,1,.15.48,2.57,2.57,0,0,1-1.12,1.87,5,5,0,0,1-2.69.6Zm10.34,0a.56.56,0,0,1-.63-.64V33.19a.63.63,0,0,1,1.26,0v10l6.09-5.23a.56.56,0,0,1,.88.06.57.57,0,0,1-.06.89l-4.42,3.8,4.8,5.45a.55.55,0,0,1-.06.89.55.55,0,0,1-.87-.06l-4.84-5.45-1.52,1.31v3.75A.56.56,0,0,1,127.45,49.21Zm10.64-.06a.59.59,0,0,1-.35-.84l5.95-14.08a.71.71,0,0,1,.71-.49h.07a.74.74,0,0,1,.7.49l6,14.08a.57.57,0,0,1-.33.84.55.55,0,0,1-.82-.34L148.37,45h-7.86l-1.59,3.78A.56.56,0,0,1,138.09,49.15ZM141,43.77h6.82l-3.41-8ZM154.44,54a.56.56,0,0,1-.63-.64V38.49a.63.63,0,0,1,1.26,0v1.07a3.25,3.25,0,0,1,1.55-1.26,6.55,6.55,0,0,1,2.58-.43h.91a4.45,4.45,0,0,1,3.27,1,4.44,4.44,0,0,1,1.05,3.28v2.69a4.46,4.46,0,0,1-1.05,3.28,4.41,4.41,0,0,1-3.27,1.05h-5v4.16A.56.56,0,0,1,154.44,54Zm.63-6.06h5a3.4,3.4,0,0,0,2.39-.67,3.44,3.44,0,0,0,.67-2.4V42.19a3.38,3.38,0,0,0-.67-2.39,3.35,3.35,0,0,0-2.39-.67h-.91a6,6,0,0,0-3,.6,2.34,2.34,0,0,0-1.17,1.85ZM169.53,44v.88a3.35,3.35,0,0,0,.68,2.38,3.41,3.41,0,0,0,2.4.67h2a4.67,4.67,0,0,0,2.2-.39,1.72,1.72,0,0,0,.83-1.35.85.85,0,0,1,.19-.46.65.65,0,0,1,.47-.15.6.6,0,0,1,.47.18.57.57,0,0,1,.13.48,2.94,2.94,0,0,1-1.21,2.23,5.48,5.48,0,0,1-3.08.72h-2a4.55,4.55,0,0,1-3.29-1,4.47,4.47,0,0,1-1-3.28V42.19a4.48,4.48,0,0,1,1-3.3,4.38,4.38,0,0,1,3.29-1h2a4.48,4.48,0,0,1,3.28,1,4.44,4.44,0,0,1,1,3.28v1.2a.55.55,0,0,1-.62.63Zm3.08-4.89a3.23,3.23,0,0,0-2.4.66,3.36,3.36,0,0,0-.68,2.4v.57h8.1v-.57A3.33,3.33,0,0,0,177,39.8a3.33,3.33,0,0,0-2.39-.67ZM181.5,49a.57.57,0,0,1-.1-.9l3.76-4.78-3.45-4.45a.56.56,0,0,1,.09-.89.58.58,0,0,1,.89.11l3.37,4.33,3.51-4.33a.54.54,0,0,1,.89-.09.54.54,0,0,1,.1.87l-3.72,4.57,3.65,4.67a.55.55,0,0,1-.09.88.56.56,0,0,1-.9-.1L186,44.4l-3.59,4.52A.55.55,0,0,1,181.5,49Z"/><path class="cls-4" d="M140.49,31.5l5.58-4.62"/><path class="cls-4" d="M149,31.5l-5.57-4.62"/><path class="cls-2" d="M145.34,26a.6.6,0,0,1-.1.35.62.62,0,0,1-.29.24.66.66,0,0,1-.37,0,.61.61,0,0,1-.49-.5.56.56,0,0,1,0-.36.62.62,0,0,1,.24-.29.6.6,0,0,1,.35-.1.62.62,0,0,1,.63.63Z"/></g></g></svg>