<?xml version="1.0" standalone="no"?>
<!DOCTYPE svg PUBLIC "-//W3C//DTD SVG 20010904//EN"
 "http://www.w3.org/TR/2001/REC-SVG-20010904/DTD/svg10.dtd">
<svg version="1.0" xmlns="http://www.w3.org/2000/svg"
 width="400.000000pt" height="400.000000pt" viewBox="0 0 400.000000 400.000000"
 preserveAspectRatio="xMidYMid meet">

<g transform="translate(0.000000,400.000000) scale(0.100000,-0.100000)"
fill="#000000" stroke="none">
<path d="M1465 2595 c-22 -8 -46 -22 -53 -32 -12 -16 -10 -18 14 -21 l27 -4
-7 -146 c-9 -196 -13 -214 -39 -206 -37 12 -151 5 -196 -11 -130 -46 -200
-181 -171 -330 30 -157 138 -235 304 -220 44 4 113 6 151 6 59 -2 76 2 105 21
39 27 51 49 21 41 -12 -3 -22 2 -28 14 -6 11 0 168 16 415 19 306 22 403 13
422 -23 51 -92 73 -157 51z m-88 -501 c82 -90 63 -360 -28 -398 -49 -21 -83
-4 -111 52 -20 40 -23 63 -23 152 0 92 3 111 25 155 39 77 89 92 137 39z"/>
<path d="M2980 2583 c-8 -3 -25 -15 -38 -27 l-24 -21 24 -5 c21 -5 23 -11 23
-66 0 -87 -14 -384 -25 -531 -16 -223 -15 -250 19 -284 25 -25 37 -29 84 -29
40 0 61 6 81 21 31 25 33 35 6 42 -25 6 -25 -12 0 378 29 464 29 465 -3 496
-20 20 -37 27 -79 29 -29 2 -60 1 -68 -3z"/>
<path d="M1909 2190 c-91 -15 -178 -82 -215 -167 -21 -49 -24 -176 -5 -223 48
-118 141 -180 270 -180 177 0 285 113 284 296 -1 187 -144 305 -334 274z m103
-87 c73 -64 71 -332 -2 -398 -28 -26 -75 -23 -105 5 -61 57 -74 260 -24 351
37 67 85 82 131 42z"/>
<path d="M2539 2190 c-139 -23 -232 -137 -232 -285 0 -162 101 -273 259 -283
138 -9 229 40 284 152 31 61 32 71 28 148 -3 58 -11 95 -25 123 -57 108 -182
166 -314 145z m90 -75 c74 -38 103 -234 52 -350 -24 -53 -54 -78 -92 -77 -38
1 -55 14 -82 66 -18 34 -22 58 -22 146 0 92 3 111 25 155 22 43 56 74 83 75 4
0 21 -7 36 -15z"/>
<path d="M3395 2193 c-102 -14 -160 -51 -171 -109 -16 -84 85 -135 146 -74 22
22 26 70 10 101 -29 54 81 17 113 -38 30 -52 21 -60 -120 -113 -44 -17 -96
-41 -115 -53 -93 -63 -89 -208 8 -265 32 -19 51 -22 106 -20 57 3 72 8 105 34
l38 31 31 -34 c27 -28 38 -33 78 -33 51 0 100 20 115 48 8 15 5 18 -17 17
l-27 0 -5 185 c-5 203 -11 224 -70 274 -43 36 -150 59 -225 49z m125 -296 c0
-66 -16 -123 -41 -148 -26 -26 -74 -25 -93 3 -21 30 -20 97 2 126 21 27 112
83 124 76 4 -3 8 -29 8 -57z"/>
</g>
</svg>
