<svg version="1.0" xmlns="http://www.w3.org/2000/svg"
 width="448.000000pt" height="138.000000pt" viewBox="0 0 448.000000 138.000000"
 preserveAspectRatio="xMidYMid meet">
<metadata>
Created by potrace 1.16, written by Peter Selinger 2001-2019
</metadata>
<g transform="translate(0.000000,138.000000) scale(0.100000,-0.100000)"
fill="none" stroke="#000">
<path d="M0 690 l0 -690 2240 0 2240 0 0 690 0 690 -2240 0 -2240 0 0 -690z
m330 10 l0 -210 90 0 90 0 0 -45 0 -46 -137 3 -138 3 -3 253 -2 252 50 0 50 0
0 -210z m550 165 l0 -45 -105 0 -105 0 0 -60 0 -60 80 0 80 0 0 -45 0 -45 -80
0 -80 0 0 -60 0 -60 105 0 105 0 0 -45 0 -46 -152 3 -153 3 -3 253 -2 252 155
0 155 0 0 -45z m193 -27 l33 -72 32 72 32 72 54 0 55 0 -60 -129 -60 -129 56
-120 c30 -67 55 -124 55 -127 0 -3 -22 -5 -49 -5 l-48 0 -29 65 c-16 35 -32
65 -35 65 -3 0 -19 -29 -35 -65 l-29 -64 -52 -1 c-29 0 -53 2 -53 4 0 3 25 59
55 125 30 66 55 125 55 130 0 5 -25 62 -55 126 -30 65 -55 119 -55 121 0 2 23
4 50 4 l51 0 32 -72z m487 53 c20 -10 44 -36 57 -61 21 -39 23 -57 23 -179 0
-161 -11 -192 -80 -228 -36 -19 -59 -23 -132 -23 l-88 0 0 255 0 255 93 0 c71
0 100 -4 127 -19z m339 -18 c14 -52 111 -463 111 -469 0 -3 -21 -4 -47 -2 -44
3 -47 5 -55 36 -9 33 -9 33 -65 30 -55 -3 -57 -4 -65 -35 -8 -31 -11 -33 -52
-33 -23 0 -45 2 -48 5 -3 3 7 56 22 118 16 62 43 174 61 250 l32 137 48 0 c47
0 48 -1 58 -37z m397 -4 c48 -46 56 -83 52 -236 -3 -114 -6 -135 -24 -159 -38
-51 -71 -69 -129 -69 -60 0 -98 21 -127 71 -19 34 -20 48 -19 216 1 122 2 128
28 159 37 43 78 60 136 56 38 -3 55 -11 83 -38z m508 27 c40 -17 75 -64 83
-111 l6 -35 -44 0 c-38 0 -46 4 -60 29 -21 36 -53 44 -82 21 -20 -17 -22 -28
-25 -135 -3 -95 -1 -120 13 -141 23 -35 74 -31 93 9 11 23 19 27 58 27 41 0
44 -2 44 -27 0 -65 -79 -132 -155 -133 -45 0 -97 32 -122 76 -21 35 -23 53
-23 179 0 166 10 197 80 233 51 25 87 28 134 8z m246 -196 l0 -210 90 0 90 0
0 -45 0 -46 -137 3 -138 3 -3 253 -2 252 50 0 50 0 0 -210z m340 -46 l0 -255
-47 3 -48 3 -3 253 -2 252 50 0 50 0 0 -256z m211 124 l54 -133 3 133 3 132
44 0 45 0 0 -255 0 -255 -48 0 -48 0 -47 118 c-26 64 -52 124 -57 132 -7 10
-10 -28 -10 -117 l0 -133 -45 0 -45 0 0 255 0 255 48 0 49 0 54 -132z m309
-124 l0 -255 -47 3 -48 3 -3 253 -2 252 50 0 50 0 0 -256z m274 242 c40 -17
75 -64 83 -111 l6 -35 -44 0 c-38 0 -46 4 -60 29 -21 36 -53 44 -82 21 -20
-17 -22 -28 -25 -133 -4 -123 3 -152 41 -166 28 -11 55 3 69 35 9 20 18 24 55
24 40 0 43 -2 43 -27 0 -103 -149 -168 -238 -104 -49 34 -62 84 -62 234 0 158
11 189 80 225 51 25 87 28 134 8z"/>
</g>
</svg>
