<svg width="1130" height="292" viewBox="0 0 1130 292" fill="none" xmlns="http://www.w3.org/2000/svg">
<g clip-path="url(#clip0_405_10)">
<path d="M1017.5 247.759C1015.4 247.759 1013.21 247.686 1010.93 247.541C994.49 246.506 983.85 239.17 977.82 233.19C971.25 226.688 968.61 220.433 968.5 220.167C968.28 219.585 968.29 218.938 968.53 218.363C968.78 217.789 969.24 217.333 969.81 217.094C970.39 216.854 971.04 216.849 971.62 217.081C972.19 217.312 972.66 217.761 972.91 218.331C972.93 218.382 975.38 224.099 981.32 229.937C989.23 237.711 999.3 242.028 1011.23 242.793C1026.01 243.726 1036.19 241.597 1041.49 236.44C1044.44 233.576 1045.86 229.704 1045.71 224.927C1045.35 213.476 1022.31 210.304 1000.04 207.237C992.24 206.139 984.18 205.045 976.87 203.55C959.25 199.984 945.046 192.127 935.756 180.829C927.218 170.442 923.238 157.482 924.549 144.333C926.095 128.853 934.603 114.55 948.515 104.053C964.04 92.337 985.29 86.136 1009.96 86.115H1010.07C1034 86.115 1053.6 90.097 1068.31 97.951C1087.67 108.287 1098.54 125.247 1100.62 148.367C1100.68 148.998 1100.48 149.627 1100.08 150.114C1099.67 150.602 1099.09 150.907 1098.46 150.965C1097.83 151.022 1097.2 150.825 1096.71 150.419C1096.23 150.012 1095.92 149.429 1095.86 148.797C1094.85 137.511 1091.57 127.738 1086.13 119.755C1081.25 112.58 1074.49 106.678 1066.06 102.173C1052.05 94.698 1033.22 90.899 1010.07 90.899H1009.97C986.34 90.899 966.08 96.776 951.39 107.865C938.553 117.549 930.713 130.664 929.298 144.8C928.104 156.672 931.716 168.386 939.448 177.779C948.034 188.222 961.3 195.508 977.82 198.857C984.97 200.304 992.95 201.404 1000.68 202.465C1013.04 204.169 1024.72 205.775 1033.81 208.743C1044.81 212.331 1050.26 217.566 1050.49 224.747C1050.68 230.927 1048.78 236.007 1044.82 239.845C1039.41 245.107 1030.22 247.756 1017.5 247.759Z" fill="white"/>
<path d="M1018.77 261.361C1016.04 261.361 1013.19 261.273 1010.22 261.098C999.52 260.482 989.82 257.938 981.38 253.537C974.63 250.022 968.6 245.253 963.62 239.485C955.101 229.619 952.373 220.139 952.259 219.753C952.088 219.142 952.166 218.488 952.476 217.935C952.786 217.381 953.303 216.974 953.913 216.802C954.523 216.631 955.176 216.709 955.729 217.019C956.282 217.33 956.688 217.848 956.86 218.459C956.884 218.542 959.48 227.458 967.38 236.528C971.96 241.807 977.5 246.169 983.71 249.384C991.52 253.429 1000.53 255.77 1010.49 256.344C1027.41 257.346 1040.44 255.316 1049.24 250.305C1057.94 245.348 1062.69 237.53 1063.75 226.405C1064.73 216.145 1059.64 208.957 1047.74 203.788C1036.67 198.975 1021.27 196.613 1006.38 194.332C1000.77 193.474 994.98 192.583 989.56 191.581C973.84 188.672 961.12 182.313 952.77 173.213C945.077 164.811 941.426 154.336 942.491 143.716C943.715 131.518 950.85 120.346 962.59 112.256C975.56 103.316 993.22 98.802 1013.68 99.152C1056.99 99.965 1081.48 116.952 1084.5 148.213C1084.54 148.529 1084.52 148.85 1084.43 149.157C1084.34 149.464 1084.19 149.75 1084 149.999C1083.8 150.248 1083.55 150.454 1083.27 150.606C1082.99 150.758 1082.68 150.852 1082.36 150.883C1082.05 150.914 1081.73 150.881 1081.42 150.786C1081.12 150.691 1080.84 150.536 1080.59 150.331C1080.35 150.125 1080.15 149.873 1080 149.589C1079.86 149.304 1079.77 148.994 1079.75 148.676C1078.24 133.13 1070.9 121.452 1057.96 113.996C1046.99 107.675 1032.06 104.285 1013.59 103.923C970.86 103.17 949.247 124.253 947.247 144.183C946.319 153.427 949.531 162.584 956.293 169.966C963.93 178.304 975.74 184.146 990.43 186.866C995.78 187.856 1001.54 188.738 1007.11 189.59C1022.29 191.919 1038 194.329 1049.65 199.387C1063.53 205.418 1069.7 214.402 1068.51 226.848C1067.31 239.461 1061.62 248.75 1051.6 254.452C1043.45 259.08 1032.66 261.361 1018.77 261.361Z" fill="white"/>
<path d="M1019.37 275.078C1015.99 275.078 1012.47 274.978 1008.82 274.779C994.69 274.004 982.03 270.635 971.2 264.766C962.55 260.088 954.929 253.698 948.813 245.982C938.332 232.782 935.505 220.121 935.379 219.586C935.301 219.275 935.287 218.951 935.336 218.634C935.385 218.317 935.498 218.014 935.667 217.741C935.836 217.469 936.058 217.233 936.32 217.048C936.582 216.864 936.878 216.733 937.191 216.666C937.504 216.598 937.827 216.594 938.142 216.654C938.457 216.714 938.756 216.836 939.022 217.015C939.288 217.193 939.516 217.423 939.692 217.691C939.868 217.959 939.988 218.26 940.045 218.575C940.072 218.692 942.813 230.833 952.673 243.172C958.389 250.345 965.5 256.282 973.57 260.625C983.75 266.114 995.69 269.269 1009.06 270.001C1053.91 272.515 1076.8 259.238 1081.08 228.19C1083.29 212.216 1077.56 201.328 1063.05 193.922C1049.85 187.189 1031.4 184.355 1013.56 181.599C1009.58 180.986 1005.47 180.352 1001.53 179.691C987.69 177.362 976.46 172.48 969.08 165.571C962.2 159.137 958.877 151.143 959.73 143.061C960.68 134.137 966.48 126.119 976.07 120.477C986.46 114.366 1000.5 111.529 1016.7 112.265C1031.32 112.97 1043.1 116.205 1051.71 121.882C1061.04 128.041 1066.42 136.885 1067.69 148.162C1067.73 148.474 1067.7 148.79 1067.61 149.092C1067.53 149.394 1067.38 149.676 1067.19 149.921C1066.99 150.167 1066.75 150.372 1066.47 150.524C1066.2 150.676 1065.9 150.772 1065.59 150.808C1065.28 150.843 1064.96 150.817 1064.66 150.73C1064.36 150.643 1064.08 150.498 1063.83 150.302C1063.58 150.106 1063.38 149.864 1063.23 149.589C1063.08 149.314 1062.98 149.012 1062.94 148.7C1061.43 135.204 1052.13 118.761 1016.47 117.042C1001.21 116.348 988.08 118.961 978.49 124.603C970.24 129.455 965.27 136.191 964.48 143.567C963.79 150.117 966.57 156.688 972.34 162.073C979.05 168.351 989.41 172.8 1002.32 174.973C1006.23 175.628 1010.33 176.259 1014.29 176.869C1032.5 179.676 1051.33 182.579 1065.21 189.659C1081.56 198.003 1088.31 210.823 1085.81 228.848C1083.28 247.169 1074.4 260.189 1059.4 267.547C1049.13 272.59 1035.96 275.078 1019.37 275.078Z" fill="white"/>
<path d="M1020.45 289C1015.92 289 1011.5 288.851 1007.22 288.623C989.65 287.688 974.04 283.496 960.83 276.162C950.273 270.325 941.071 262.318 933.827 252.666C921.39 236.151 918.459 220.315 918.339 219.651C918.284 219.342 918.29 219.025 918.357 218.718C918.424 218.411 918.551 218.121 918.73 217.863C918.909 217.605 919.137 217.385 919.402 217.216C919.666 217.046 919.96 216.93 920.269 216.875C920.578 216.82 920.894 216.826 921.201 216.893C921.507 216.96 921.797 217.087 922.055 217.267C922.312 217.446 922.532 217.675 922.701 217.939C922.87 218.204 922.986 218.499 923.041 218.808C923.068 218.96 925.949 234.354 937.771 249.958C944.623 259.035 953.31 266.563 963.27 272.049C975.8 278.985 990.69 282.955 1007.47 283.849C1032.52 285.179 1050.83 282.817 1065.12 276.41C1073.86 272.488 1081.01 266.942 1086.37 259.925C1092.36 252.08 1096.37 242.083 1098.26 230.217C1100.58 215.699 1098.56 204.368 1092.12 195.566C1086.25 187.575 1076.53 181.574 1062.39 177.215C1049.63 173.284 1034.95 171.143 1020.76 169.074C1018.28 168.712 1015.81 168.349 1013.36 167.986C984.65 163.672 975.72 151.692 976.8 142.744C977.49 137.004 982.01 132.098 989.51 128.926C997.29 125.637 1007.7 124.474 1019.61 125.568C1029.85 126.513 1037.75 129.428 1043.09 134.238C1047.12 137.868 1049.68 142.55 1050.7 148.152C1050.76 148.462 1050.75 148.781 1050.69 149.09C1050.62 149.399 1050.5 149.692 1050.32 149.952C1050.14 150.213 1049.91 150.435 1049.65 150.607C1049.38 150.779 1049.09 150.896 1048.78 150.953C1048.47 151.009 1048.15 151.004 1047.84 150.937C1047.53 150.87 1047.24 150.742 1046.98 150.562C1046.73 150.381 1046.51 150.151 1046.34 149.885C1046.17 149.619 1046.05 149.321 1046 149.01C1044.01 138.074 1034.98 131.793 1019.17 130.337C1001.88 128.74 982.82 132.752 981.56 143.321C981.11 147.025 983.44 150.921 988.12 154.293C993.93 158.479 1002.91 161.579 1014.1 163.262C1016.53 163.627 1018.99 163.989 1021.47 164.348C1035.84 166.44 1050.71 168.608 1063.82 172.65C1078.98 177.32 1089.5 183.891 1095.99 192.741C1103.24 202.625 1105.54 215.134 1103 230.979C1095.09 280.285 1055.08 289 1020.45 289Z" fill="white"/>
<path d="M839.677 283.746C839.039 283.746 838.428 283.494 837.978 283.045C837.527 282.597 837.274 281.988 837.274 281.354V90.509C837.274 89.875 837.527 89.267 837.978 88.818C838.428 88.37 839.039 88.118 839.677 88.118C840.314 88.118 840.925 88.37 841.375 88.818C841.826 89.267 842.079 89.875 842.079 90.509V281.354C842.079 281.988 841.826 282.597 841.375 283.045C840.925 283.494 840.314 283.746 839.677 283.746Z" fill="white"/>
<path d="M855.682 283.746C855.045 283.746 854.434 283.494 853.983 283.045C853.533 282.597 853.28 281.988 853.28 281.354V90.509C853.28 89.875 853.533 89.267 853.983 88.818C854.434 88.37 855.045 88.118 855.682 88.118C856.319 88.118 856.93 88.37 857.381 88.818C857.831 89.267 858.084 89.875 858.084 90.509V281.354C858.084 281.988 857.831 282.597 857.381 283.045C856.93 283.494 856.319 283.746 855.682 283.746Z" fill="white"/>
<path d="M870.687 283.746C870.05 283.746 869.439 283.494 868.988 283.045C868.538 282.597 868.285 281.988 868.285 281.354V90.509C868.285 89.875 868.538 89.267 868.988 88.818C869.439 88.37 870.05 88.118 870.687 88.118C871.324 88.118 871.935 88.37 872.386 88.818C872.836 89.267 873.089 89.875 873.089 90.509V281.354C873.089 281.988 872.836 282.597 872.386 283.045C871.935 283.494 871.324 283.746 870.687 283.746Z" fill="white"/>
<path d="M886.692 283.746C886.055 283.746 885.444 283.494 884.994 283.045C884.543 282.597 884.29 281.988 884.29 281.354V90.509C884.29 89.875 884.543 89.267 884.994 88.818C885.444 88.37 886.055 88.118 886.692 88.118C887.329 88.118 887.94 88.37 888.391 88.818C888.841 89.267 889.095 89.875 889.095 90.509V281.354C889.095 281.988 888.841 282.597 888.391 283.045C887.94 283.494 887.329 283.746 886.692 283.746Z" fill="white"/>
<path d="M865.111 67.773C858.616 67.773 852.267 65.845 846.867 62.231C841.467 58.617 837.258 53.481 834.772 47.472C832.287 41.463 831.637 34.8502 832.904 28.4708C834.171 22.0914 837.298 16.2316 841.891 11.6323C846.483 7.03299 852.335 3.90089 858.705 2.63189C865.075 1.36299 871.677 2.01429 877.678 4.50339C883.678 6.99249 888.807 11.2077 892.415 16.6158C896.024 22.024 897.95 28.3823 897.95 34.8867C897.939 43.606 894.476 51.965 888.32 58.13C882.164 64.295 873.817 67.763 865.111 67.773ZM865.111 6.78349C859.561 6.78349 854.136 8.43179 849.521 11.5198C844.906 14.6078 841.309 18.9969 839.185 24.1321C837.061 29.2673 836.506 34.9179 837.588 40.369C838.671 45.821 841.344 50.828 845.268 54.759C849.193 58.689 854.193 61.366 859.637 62.45C865.08 63.534 870.722 62.978 875.85 60.851C880.978 58.724 885.36 55.122 888.444 50.5C891.527 45.878 893.173 40.445 893.173 34.8867C893.164 27.436 890.205 20.2929 884.944 15.0244C879.684 9.75589 872.551 6.79219 865.111 6.78349Z" fill="white"/>
<path d="M865.059 55.67C859.855 55.661 854.844 53.7 851.011 50.175C847.179 46.65 844.803 41.815 844.353 36.623C844.001 32.519 844.873 28.4028 846.857 24.7949C848.841 21.1869 851.849 18.2493 855.501 16.3534C859.152 14.4576 863.283 13.6887 867.371 14.144C871.459 14.5993 875.32 16.2583 878.466 18.9112C881.612 21.5642 883.903 25.0919 885.047 29.0483C886.191 33.0048 886.138 37.212 884.895 41.138C883.652 45.065 881.274 48.534 878.062 51.107C874.85 53.679 870.948 55.241 866.85 55.593C866.25 55.643 865.65 55.67 865.059 55.67ZM849.111 36.2134C849.382 39.375 850.583 42.385 852.562 44.863C854.541 47.34 857.209 49.175 860.229 50.134C863.249 51.094 866.485 51.134 869.528 50.252C872.571 49.369 875.285 47.603 877.326 45.175C879.366 42.748 880.642 39.77 880.993 36.6163C881.343 33.4628 880.752 30.2762 879.294 27.4592C877.836 24.6423 875.576 22.3216 872.801 20.7906C870.026 19.2596 866.86 18.5872 863.704 18.8582C859.473 19.2278 855.561 21.2622 852.826 24.5155C850.09 27.7687 848.755 31.9754 849.111 36.2134Z" fill="white"/>
<path d="M865.57 44.641C863.239 44.641 860.993 43.763 859.278 42.181C857.563 40.599 856.504 38.43 856.312 36.1031C856.12 33.7763 856.809 31.4622 858.241 29.6202C859.674 27.7781 861.746 26.5428 864.045 26.1593C866.345 25.7759 868.705 26.2723 870.656 27.5501C872.607 28.8279 874.007 30.7937 874.578 33.0573C875.15 35.3209 874.85 37.717 873.739 39.77C872.629 41.822 870.788 43.382 868.582 44.139C867.613 44.471 866.595 44.64 865.57 44.641ZM865.57 30.7896C865.068 30.7908 864.57 30.8747 864.095 31.0377C863.029 31.4075 862.141 32.165 861.606 33.16C861.072 34.1549 860.93 35.3147 861.209 36.4095C861.488 37.504 862.167 38.454 863.113 39.071C864.058 39.687 865.201 39.925 866.313 39.738C867.426 39.551 868.428 38.952 869.12 38.06C869.812 37.168 870.145 36.0477 870.051 34.9217C869.958 33.7957 869.445 32.7459 868.615 31.9806C867.785 31.2153 866.698 30.7902 865.57 30.7896Z" fill="white"/>
<path d="M681.997 51.456C681.997 50.822 681.745 50.213 681.297 49.765C680.849 49.316 680.242 49.064 679.609 49.064C678.975 49.064 678.368 49.316 677.92 49.765C677.472 50.213 677.22 50.822 677.22 51.456C677.22 63.328 677.22 76.569 677.22 90.25H681.997C682 76.563 681.997 63.328 681.997 51.456Z" fill="white"/>
<path d="M697.002 47.451C697.002 46.816 696.75 46.208 696.302 45.759C695.854 45.311 695.247 45.059 694.614 45.059C693.98 45.059 693.373 45.311 692.925 45.759C692.477 46.208 692.225 46.816 692.225 47.451C692.225 59.535 692.225 74.295 692.225 89.925H697.002C697.005 74.295 697.002 59.535 697.002 47.451Z" fill="white"/>
<path d="M713.007 89.9471C713.007 72.3911 713.007 56.1631 713.007 44.4461C713.007 43.8121 712.756 43.2041 712.308 42.7551C711.86 42.3071 711.252 42.0551 710.619 42.0551C709.986 42.0551 709.378 42.3071 708.93 42.7551C708.482 43.2041 708.231 43.8121 708.231 44.4461C708.231 56.1751 708.231 72.3911 708.231 89.9471V90.6041H713.007V89.9471Z" fill="white"/>
<path d="M728.012 40.4409C728.012 39.8069 727.761 39.1979 727.313 38.7499C726.865 38.3009 726.258 38.049 725.624 38.049C724.991 38.049 724.383 38.3009 723.935 38.7499C723.487 39.1979 723.236 39.8069 723.236 40.4409V90.279H728.012V40.4409Z" fill="white"/>
<path d="M806.464 274.394C806.305 274.121 806.093 273.883 805.841 273.693C805.59 273.503 805.303 273.364 804.998 273.286C804.693 273.207 804.375 273.19 804.063 273.235C803.751 273.28 803.451 273.386 803.18 273.548C796.358 277.569 782.495 282.023 764.048 282.46C745.495 282.899 727.926 278.929 714.591 271.279C704.578 265.535 696.744 257.735 691.305 248.093C685.108 237.109 681.976 223.635 681.997 208.031C682.018 193.6 682.018 167.144 682.012 138.186H677.235C677.235 167.144 677.235 193.597 677.22 208.025C677.2 224.454 680.54 238.721 687.147 250.434C693.016 260.838 701.452 269.243 712.223 275.416C729.025 285.049 747.641 287.267 761.212 287.267C762.224 287.267 763.213 287.267 764.168 287.232C780.366 286.849 796.245 283.18 805.61 277.664C806.156 277.344 806.553 276.819 806.713 276.206C806.873 275.593 806.783 274.941 806.464 274.394Z" fill="white"/>
<path d="M692.225 200.593C692.204 223.937 698.563 242.024 711.125 254.348C717.795 260.892 726.171 265.745 736.023 268.734C743.809 271.126 752.374 272.322 761.518 272.322C762.274 272.322 763.032 272.314 763.792 272.298C780.889 271.927 796.553 267.036 803.873 262.644C804.417 262.318 804.809 261.79 804.963 261.174C805.117 260.559 805.021 259.907 804.696 259.363C804.37 258.819 803.842 258.426 803.228 258.272C802.613 258.117 801.963 258.214 801.419 258.539C794.407 262.746 779.194 267.18 763.691 267.508C737.563 268.071 722.494 258.8 714.481 250.925C702.871 239.534 696.996 222.6 697.017 200.59C697.017 188.443 697.017 164.471 697.017 138.186H692.24C692.237 164.477 692.237 188.446 692.225 200.593Z" fill="white"/>
<path d="M708.243 193.146C708.243 216.292 714.061 233.507 725.558 244.356C734.726 252.99 747.631 257.484 763.11 257.484C764.815 257.484 766.555 257.427 768.322 257.32C781.407 256.503 796.576 251.639 803.125 247.615C803.665 247.283 804.051 246.749 804.198 246.132C804.345 245.515 804.241 244.865 803.909 244.325C803.577 243.784 803.045 243.398 802.429 243.251C801.812 243.104 801.163 243.208 800.624 243.54C795.549 246.67 781.664 251.696 768.027 252.545C766.316 252.65 764.668 252.701 763.074 252.701C745.309 252.701 734.714 246.422 728.83 240.87C718.324 230.977 713.007 214.92 713.007 193.149C713.007 182.96 713.007 162.083 713.007 138.186H708.231C708.243 162.083 708.243 182.957 708.243 193.146Z" fill="white"/>
<path d="M723.236 185.707C723.236 208.728 728.439 225.025 738.7 234.14C745.214 239.92 753.773 242.832 764.212 242.832C766.782 242.822 769.349 242.659 771.9 242.344C782.692 241.035 796.579 235.692 801.398 232.589C801.663 232.42 801.893 232.2 802.073 231.942C802.253 231.684 802.381 231.392 802.448 231.085C802.516 230.777 802.522 230.459 802.467 230.149C802.411 229.839 802.295 229.543 802.125 229.277C801.955 229.012 801.734 228.784 801.476 228.604C801.217 228.425 800.926 228.298 800.618 228.232C800.311 228.166 799.993 228.161 799.684 228.218C799.374 228.275 799.079 228.393 798.815 228.565C795.116 230.956 782.062 236.293 771.326 237.597C758.758 239.121 748.847 236.753 741.867 230.559C732.675 222.4 728.012 207.314 728.012 185.713V138.186H723.236V185.707Z" fill="white"/>
<path d="M796.499 140.967H643.597C642.963 140.967 642.356 140.715 641.908 140.266C641.46 139.818 641.208 139.209 641.208 138.575C641.208 137.941 641.46 137.332 641.908 136.884C642.356 136.435 642.963 136.183 643.597 136.183H796.499C797.132 136.183 797.739 136.435 798.187 136.884C798.635 137.332 798.887 137.941 798.887 138.575C798.887 139.209 798.635 139.818 798.187 140.266C797.739 140.715 797.132 140.967 796.499 140.967Z" fill="white"/>
<path d="M796.499 124.945H643.597C642.963 124.945 642.356 124.693 641.908 124.244C641.46 123.796 641.208 123.187 641.208 122.553C641.208 121.919 641.46 121.31 641.908 120.862C642.356 120.413 642.963 120.161 643.597 120.161H796.499C797.132 120.161 797.739 120.413 798.187 120.862C798.635 121.31 798.887 121.919 798.887 122.553C798.887 123.187 798.635 123.796 798.187 124.244C797.739 124.693 797.132 124.945 796.499 124.945Z" fill="white"/>
<path d="M796.499 109.924H643.597C642.963 109.924 642.356 109.672 641.908 109.224C641.46 108.775 641.208 108.167 641.208 107.533C641.208 106.898 641.46 106.29 641.908 105.841C642.356 105.393 642.963 105.141 643.597 105.141H796.499C797.132 105.141 797.739 105.393 798.187 105.841C798.635 106.29 798.887 106.898 798.887 107.533C798.887 108.167 798.635 108.775 798.187 109.224C797.739 109.672 797.132 109.924 796.499 109.924Z" fill="white"/>
<path d="M796.499 93.903H643.597C642.963 93.903 642.356 93.651 641.908 93.202C641.46 92.754 641.208 92.145 641.208 91.511C641.208 90.877 641.46 90.268 641.908 89.82C642.356 89.371 642.963 89.119 643.597 89.119H796.499C797.132 89.119 797.739 89.371 798.187 89.82C798.635 90.268 798.887 90.877 798.887 91.511C798.887 92.145 798.635 92.754 798.187 93.202C797.739 93.651 797.132 93.903 796.499 93.903Z" fill="white"/>
<path d="M570.572 283.595C569.938 283.595 569.331 283.343 568.883 282.894C568.435 282.445 568.184 281.837 568.184 281.203V17.4096C568.184 16.7752 568.435 16.1669 568.883 15.7184C569.331 15.2698 569.938 15.0178 570.572 15.0178C571.205 15.0178 571.813 15.2698 572.261 15.7184C572.708 16.1669 572.96 16.7752 572.96 17.4096V281.203C572.96 281.837 572.708 282.445 572.261 282.894C571.813 283.343 571.205 283.595 570.572 283.595Z" fill="white"/>
<path d="M586.577 283.595C585.944 283.595 585.336 283.343 584.888 282.894C584.441 282.445 584.189 281.837 584.189 281.203V17.4096C584.189 16.7752 584.441 16.1669 584.888 15.7184C585.336 15.2698 585.944 15.0178 586.577 15.0178C587.211 15.0178 587.818 15.2698 588.266 15.7184C588.714 16.1669 588.965 16.7752 588.965 17.4096V281.203C588.965 281.837 588.714 282.445 588.266 282.894C587.818 283.343 587.211 283.595 586.577 283.595Z" fill="white"/>
<path d="M601.582 283.595C600.949 283.595 600.341 283.343 599.893 282.894C599.445 282.445 599.194 281.837 599.194 281.203V17.4096C599.194 16.7752 599.445 16.1669 599.893 15.7184C600.341 15.2698 600.949 15.0178 601.582 15.0178C602.215 15.0178 602.823 15.2698 603.271 15.7184C603.719 16.1669 603.97 16.7752 603.97 17.4096V281.203C603.97 281.837 603.719 282.445 603.271 282.894C602.823 283.343 602.215 283.595 601.582 283.595Z" fill="white"/>
<path d="M617.588 283.595C616.954 283.595 616.347 283.343 615.899 282.894C615.451 282.445 615.199 281.837 615.199 281.203V17.4096C615.199 16.7752 615.451 16.1669 615.899 15.7184C616.347 15.2698 616.954 15.0178 617.588 15.0178C618.221 15.0178 618.829 15.2698 619.276 15.7184C619.724 16.1669 619.976 16.7752 619.976 17.4096V281.203C619.976 281.837 619.724 282.445 619.276 282.894C618.829 283.343 618.221 283.595 617.588 283.595Z" fill="white"/>
<path d="M479.278 260.274C479.278 256.109 479.156 251.944 478.98 247.783C478.405 247.855 477.875 248.135 477.491 248.569C477.106 249.004 476.893 249.564 476.89 250.144C476.854 261.673 468.878 268.98 462.193 273.075C452.939 278.756 440.469 281.868 427.062 281.868H426.928C418.124 281.854 409.376 280.468 400.997 277.76C392.11 274.845 384.211 270.528 377.515 264.926C370.211 258.826 364.391 251.139 360.499 242.449C356.11 232.723 353.886 221.479 353.886 209.033V90.509C353.886 89.875 353.635 89.267 353.187 88.818C352.739 88.37 352.131 88.118 351.498 88.118C350.864 88.118 350.257 88.37 349.809 88.818C349.361 89.267 349.11 89.875 349.11 90.509V209.021C349.11 234.117 357.872 254.716 374.443 268.585C381.608 274.564 390.038 279.189 399.502 282.293C408.352 285.178 417.602 286.645 426.91 286.64H427.053C441.326 286.64 454.685 283.27 464.668 277.144C471.675 272.851 476.663 267.362 479.353 261.15C479.296 260.861 479.271 260.567 479.278 260.274Z" fill="white"/>
<path d="M477.231 224.681C476.987 224.904 476.792 225.176 476.658 225.478C476.524 225.781 476.454 226.108 476.452 226.439C476.428 241.116 468.455 250.228 461.771 255.29C452.815 262.061 440.852 265.79 428.036 265.79H427.98C398.568 265.763 368.891 245.938 368.891 201.708V90.509C368.891 89.875 368.64 89.267 368.192 88.818C367.744 88.37 367.136 88.118 366.503 88.118C365.87 88.118 365.262 88.37 364.814 88.818C364.366 89.267 364.115 89.875 364.115 90.509V201.708C364.115 223.656 371.151 241.77 384.466 254.127C395.89 264.716 411.334 270.57 427.974 270.57H428.036C441.882 270.57 454.88 266.498 464.648 259.102C469.804 255.215 473.846 250.521 476.664 245.197C477.245 244.096 477.771 242.975 478.241 241.833C477.933 236.126 477.551 230.403 477.231 224.681Z" fill="white"/>
<path d="M477.158 201.933C477.066 202.189 477.018 202.459 477.018 202.731C477.018 217.007 472.095 229.157 462.807 237.872C454.55 245.618 443.134 250.061 431.48 250.061H431.468C408.29 250.061 384.897 232.831 384.897 194.381V90.509C384.897 89.875 384.645 89.267 384.197 88.818C383.749 88.37 383.142 88.118 382.508 88.118C381.875 88.118 381.268 88.37 380.82 88.818C380.372 89.267 380.12 89.875 380.12 90.509V194.372C380.12 213.368 385.652 229.148 396.118 240.009C405.328 249.576 417.878 254.829 431.459 254.835H431.48C444.334 254.835 456.941 249.92 466.073 241.352C471.162 236.588 475.155 230.773 477.776 224.31C477.361 216.851 477.059 209.389 477.158 201.933Z" fill="white"/>
<path d="M478.007 183.259C478.087 182.6 478.289 181.962 478.604 181.378C478.317 179.909 478.03 178.443 477.741 176.981C477.39 177.193 477.1 177.493 476.898 177.85C476.696 178.208 476.589 178.612 476.589 179.022C476.589 200.632 469.361 213.682 463.298 220.827C455.835 229.626 445.616 234.673 435.278 234.673C425.898 234.673 417.264 230.577 410.968 223.147C403.729 214.603 399.902 202.121 399.902 187.056V90.509C399.902 89.875 399.65 89.267 399.202 88.818C398.754 88.37 398.147 88.118 397.513 88.118C396.88 88.118 396.273 88.37 395.825 88.818C395.377 89.267 395.125 89.875 395.125 90.509V187.056C395.125 203.272 399.343 216.821 407.326 226.242C414.548 234.762 424.474 239.456 435.278 239.456C447.019 239.456 458.563 233.794 466.922 223.925C470.254 219.999 473.908 214.447 476.705 206.934C476.66 199.03 476.968 191.131 478.007 183.259Z" fill="white"/>
<path d="M478.541 283.85C477.907 283.85 477.3 283.598 476.852 283.15C476.404 282.701 476.152 282.093 476.152 281.458V91.511C476.152 90.877 476.404 90.268 476.852 89.82C477.3 89.371 477.907 89.119 478.541 89.119C479.174 89.119 479.782 89.371 480.23 89.82C480.677 90.268 480.929 90.877 480.929 91.511V281.458C480.929 282.093 480.677 282.701 480.23 283.15C479.782 283.598 479.174 283.85 478.541 283.85Z" fill="white"/>
<path d="M494.546 283.85C493.913 283.85 493.305 283.598 492.857 283.15C492.409 282.701 492.158 282.093 492.158 281.458V91.511C492.158 90.877 492.409 90.268 492.857 89.82C493.305 89.371 493.913 89.119 494.546 89.119C495.18 89.119 495.787 89.371 496.235 89.82C496.683 90.268 496.934 90.877 496.934 91.511V281.458C496.934 282.093 496.683 282.701 496.235 283.15C495.787 283.598 495.18 283.85 494.546 283.85Z" fill="white"/>
<path d="M509.551 283.85C508.918 283.85 508.31 283.598 507.862 283.15C507.415 282.701 507.163 282.093 507.163 281.458V91.511C507.163 90.877 507.415 90.268 507.862 89.82C508.31 89.371 508.918 89.119 509.551 89.119C510.185 89.119 510.792 89.371 511.24 89.82C511.688 90.268 511.939 90.877 511.939 91.511V281.458C511.939 282.093 511.688 282.701 511.24 283.15C510.792 283.598 510.185 283.85 509.551 283.85Z" fill="white"/>
<path d="M525.557 283.85C524.923 283.85 524.316 283.598 523.868 283.15C523.42 282.701 523.168 282.093 523.168 281.458V91.511C523.168 90.877 523.42 90.268 523.868 89.82C524.316 89.371 524.923 89.119 525.557 89.119C526.19 89.119 526.798 89.371 527.245 89.82C527.693 90.268 527.945 90.877 527.945 91.511V281.458C527.945 282.093 527.693 282.701 527.245 283.15C526.798 283.598 526.19 283.85 525.557 283.85Z" fill="white"/>
<path d="M313.645 127.96C309.985 118.968 304.45 110.861 297.411 104.183C284.873 92.308 267.37 84.932 248.103 83.41C230.647 82.029 213.41 85.4549 199.567 93.0489C189.984 98.3079 182.661 105.325 178.052 113.487C178.885 114.205 179.675 114.973 180.416 115.786C180.778 116.181 181.148 116.605 181.518 117.062C182.72 114.749 184.139 112.556 185.757 110.512C189.844 105.331 195.262 100.867 201.878 97.2469C214.715 90.1939 231.432 86.89 247.744 88.179C265.922 89.614 282.401 96.5319 294.145 107.657C300.691 113.872 305.838 121.415 309.242 129.781C313.054 139.049 314.989 149.635 314.989 161.217V281.804C314.989 282.438 315.24 283.047 315.688 283.495C316.136 283.944 316.743 284.196 317.377 284.196C318.01 284.196 318.618 283.944 319.066 283.495C319.513 283.047 319.765 282.438 319.765 281.804V161.217C319.75 149.007 317.696 137.817 313.645 127.96Z" fill="white"/>
<path d="M201.811 113.19C212.627 105.898 226.506 102.283 240.898 103.007C256.442 103.79 270.682 109.62 280.994 119.423C292.845 130.694 299.109 146.851 299.109 166.152V281.889C299.109 282.524 299.36 283.132 299.808 283.581C300.256 284.029 300.863 284.281 301.497 284.281C302.13 284.281 302.738 284.029 303.186 283.581C303.633 283.132 303.885 282.524 303.885 281.889V166.152C303.885 145.523 297.105 128.15 284.283 115.955C273.145 105.366 257.825 99.069 241.137 98.229C225.723 97.449 210.809 101.356 199.145 109.222C193.594 112.9 188.809 117.621 185.054 123.124C185.941 124.866 186.703 126.668 187.335 128.518C191.389 121.42 196.942 116.472 201.811 113.19Z" fill="white"/>
<path d="M190.928 145.569C193.591 139.142 197.763 133.453 203.09 128.985C211.909 121.582 223.534 117.669 235.839 117.95C248.619 118.249 260.453 123.083 269.164 131.538C279.06 141.141 284.291 154.858 284.291 171.185V282.084C284.291 282.719 284.542 283.327 284.99 283.776C285.438 284.224 286.046 284.476 286.679 284.476C287.312 284.476 287.92 284.224 288.368 283.776C288.816 283.327 289.067 282.719 289.067 282.084V171.197C289.067 153.536 283.335 138.639 272.487 128.115C262.913 118.823 249.939 113.519 235.952 113.166C222.486 112.867 209.729 117.167 200.015 125.32C196.105 128.595 192.743 132.476 190.056 136.815C190.477 139.353 190.749 141.914 190.871 144.484C190.895 144.857 190.91 145.207 190.928 145.569Z" fill="white"/>
<path d="M203.547 143.543C206.942 139.868 211.062 136.94 215.647 134.943C220.231 132.947 225.18 131.926 230.179 131.946C235.069 131.93 239.913 132.891 244.427 134.773C248.941 136.656 253.035 139.422 256.468 142.909C264.319 150.844 268.469 162.043 268.469 175.33V281.368C268.469 282.003 268.721 282.611 269.168 283.06C269.616 283.508 270.224 283.76 270.857 283.76C271.491 283.76 272.098 283.508 272.546 283.06C272.994 282.611 273.245 282.003 273.245 281.368V175.33C273.245 143.714 251.581 127.172 230.176 127.172C224.52 127.147 218.921 128.301 213.734 130.559C208.547 132.817 203.885 136.131 200.045 140.29C196.211 144.451 193.165 149.277 191.057 154.53C191.284 160.51 191.466 166.618 191.615 172.468C192.806 160.629 196.866 150.718 203.547 143.543Z" fill="white"/>
<path d="M26.3883 285.263C25.7549 285.263 25.1474 285.011 24.6995 284.562C24.2516 284.114 24 283.505 24 282.871V159.097C24 135.434 33.0485 115.651 50.1633 101.883C65.212 89.778 85.593 83.111 107.544 83.111C118.236 83.086 128.867 84.718 139.06 87.951C149.509 91.282 158.823 96.161 166.782 102.449C184.646 116.566 194.086 136.531 194.086 160.15V281.627C194.086 282.261 193.834 282.87 193.386 283.318C192.938 283.767 192.331 284.019 191.697 284.019C191.064 284.019 190.456 283.767 190.009 283.318C189.561 282.87 189.309 282.261 189.309 281.627V160.144C189.309 138.02 180.496 119.382 163.823 106.204C156.318 100.272 147.497 95.665 137.609 92.508C127.885 89.426 117.743 87.87 107.544 87.895C86.677 87.895 67.359 94.173 53.1546 105.612C37.2071 118.44 28.7765 136.935 28.7765 159.097V282.871C28.7765 283.505 28.5249 284.114 28.077 284.562C27.6291 285.011 27.0217 285.263 26.3883 285.263Z" fill="white"/>
<path d="M41.3934 285.035C40.76 285.035 40.1525 284.783 39.7046 284.335C39.2567 283.886 39.0051 283.278 39.0051 282.644V164.153C39.0051 143.676 46.4684 126.516 60.604 114.524C73.062 103.961 89.881 98.131 107.984 98.131C126.391 98.131 143.629 104.111 156.525 114.948C171.117 127.206 178.832 144.6 178.832 165.214V281.848C178.832 282.483 178.58 283.091 178.132 283.54C177.684 283.988 177.077 284.24 176.443 284.24C175.81 284.24 175.202 283.988 174.755 283.54C174.307 283.091 174.055 282.483 174.055 281.848V165.214C174.055 146.059 166.932 129.936 153.456 118.611C147.402 113.528 140.282 109.567 132.293 106.864C124.46 104.229 116.25 102.895 107.987 102.915C91.021 102.915 75.292 108.335 63.694 118.162C50.6688 129.224 43.7846 145.111 43.7846 164.138V282.629C43.7866 282.944 43.7262 283.257 43.6068 283.549C43.4875 283.841 43.3116 284.107 43.0894 284.331C42.8671 284.554 42.6028 284.732 42.3117 284.853C42.0206 284.974 41.7085 285.036 41.3934 285.035Z" fill="white"/>
<path d="M56.3985 284.817C55.7651 284.817 55.1577 284.565 54.7098 284.117C54.2619 283.668 54.0103 283.06 54.0103 282.426V169.218C54.0103 151.94 59.885 137.413 71.003 127.203C80.854 118.151 94.136 113.152 108.376 113.152C122.798 113.164 136.232 118.246 146.272 127.484C157.592 137.907 163.586 152.709 163.586 170.297V282.082C163.586 282.716 163.335 283.325 162.887 283.773C162.439 284.222 161.832 284.474 161.198 284.474C160.565 284.474 159.957 284.222 159.509 283.773C159.062 283.325 158.81 282.716 158.81 282.082V170.297C158.81 154.084 153.359 140.496 143.05 131.006C133.894 122.584 121.583 117.947 108.376 117.947C95.333 117.947 83.207 122.489 74.23 130.731C64.128 139.999 58.7868 153.318 58.7868 169.218V282.426C58.7868 283.06 58.5351 283.668 58.0873 284.117C57.6394 284.565 57.0319 284.817 56.3985 284.817Z" fill="white"/>
<path d="M145.926 283.685C145.293 283.685 144.685 283.433 144.237 282.985C143.789 282.536 143.538 281.928 143.538 281.293V174.358C143.538 161.063 139.74 149.989 132.552 142.326C129.504 139.042 125.811 136.426 121.704 134.641C117.598 132.856 113.167 131.942 108.69 131.955C104.217 131.944 99.7889 132.849 95.6779 134.613C91.5659 136.378 87.8579 138.965 84.7809 142.215C77.5919 149.732 73.7919 160.468 73.7919 173.264V281.192C73.7919 281.826 73.5399 282.434 73.0919 282.883C72.6439 283.331 72.0369 283.583 71.4029 283.583C70.7699 283.583 70.1629 283.331 69.7149 282.883C69.2669 282.434 69.0149 281.826 69.0149 281.192V173.264C69.0149 159.212 73.2749 147.328 81.3329 138.906C84.8549 135.188 89.0979 132.229 93.8019 130.211C98.5059 128.193 103.572 127.159 108.69 127.171C113.82 127.155 118.897 128.202 123.602 130.247C128.308 132.292 132.54 135.29 136.033 139.052C144.069 147.615 148.314 159.825 148.314 174.358V281.293C148.314 281.928 148.063 282.536 147.615 282.985C147.167 283.433 146.559 283.685 145.926 283.685Z" fill="white"/>
</g>
<defs>
<clipPath id="clip0_405_10">
<rect width="1130" height="292" fill="white"/>
</clipPath>
</defs>
</svg>
