<svg width="226" height="50" viewBox="0 0 226 50" fill="none" xmlns="http://www.w3.org/2000/svg">
<path d="M156.109 13.8093H126.316C122.269 13.8093 118.389 15.4176 115.527 18.2805C112.666 21.1434 111.059 25.0263 111.059 29.0751V46.3615C111.059 47.3237 111.441 48.2464 112.121 48.9267C112.801 49.6071 113.723 49.9893 114.684 49.9893H137.078C137.817 49.9893 138.536 49.7478 139.125 49.3015C139.714 48.8552 140.141 48.2286 140.342 47.5171C142.357 40.2107 141.876 30.7204 149.735 24.048C149.776 24.0222 149.824 24.011 149.872 24.0163C149.92 24.0216 149.965 24.0431 149.999 24.0771C150.033 24.1112 150.054 24.1558 150.059 24.2037C150.065 24.2516 150.054 24.2999 150.028 24.3406C147.633 27.1605 143.573 31.9417 143.582 48.2994C143.582 48.7493 143.76 49.1807 144.078 49.4988C144.396 49.8169 144.827 49.9956 145.277 49.9956H157.368C157.818 49.9956 158.249 49.8169 158.567 49.4988C158.885 49.1807 159.063 48.7493 159.063 48.2994V16.7649C159.063 15.981 158.752 15.2292 158.198 14.675C157.644 14.1207 156.893 13.8093 156.109 13.8093V13.8093ZM127.386 38.7201C127.11 39.3562 126.538 40.6284 125.055 41.0736C123.919 41.4256 122.287 41.0906 122.016 38.9746C121.915 38.1837 121.898 34.7934 121.908 31.1635C121.916 28.462 122.994 25.8738 124.906 23.9661C126.817 22.0584 129.407 20.9869 132.107 20.9863H140.78C141.204 20.9863 141.641 21.2429 141.401 21.8026C137.369 24.5547 131.09 30.0886 127.386 38.7201Z" fill="#C7F83C"/>
<path d="M50.9438 16.3918V47.9179C50.9438 48.4701 51.1631 48.9997 51.5533 49.3902C51.9436 49.7806 52.4729 50 53.0247 50H106.2C106.798 50 107.371 49.7623 107.794 49.3392C108.217 48.9162 108.454 48.3423 108.454 47.744V16.3876C108.454 15.6901 108.178 15.0212 107.685 14.5278C107.192 14.0344 106.524 13.7569 105.827 13.7564H100.442C99.7449 13.7564 99.076 14.0336 98.5828 14.527C98.0897 15.0205 97.8126 15.6897 97.8126 16.3876V34.168C97.8124 36.1168 97.1164 38.0014 95.8502 39.4821C94.584 40.9629 92.8309 41.9424 90.9067 42.2441L86.0117 43.018C85.8893 43.0373 85.7641 43.0298 85.6448 42.9961C85.5255 42.9623 85.4149 42.9031 85.3206 42.8225C85.2264 42.7419 85.1507 42.6418 85.0988 42.5292C85.0469 42.4165 85.02 42.2939 85.02 42.1699V25.4199C85.0209 25.0796 84.9544 24.7425 84.8245 24.428C84.6946 24.1135 84.5039 23.8278 84.2632 23.5874C84.0225 23.347 83.7367 23.1566 83.4222 23.0271C83.1077 22.8977 82.7706 22.8318 82.4306 22.8332H76.9529C76.2696 22.8343 75.6148 23.1066 75.1321 23.5904C74.6494 24.0742 74.3782 24.7299 74.3782 25.4135V34.5306C74.3786 36.3786 73.753 38.1721 72.6034 39.6184C71.4538 41.0648 69.8482 42.0786 68.0487 42.4943L62.6494 43.7431C62.523 43.7736 62.3913 43.775 62.2642 43.7471C62.1372 43.7193 62.0181 43.6628 61.9161 43.5822C61.814 43.5015 61.7316 43.3987 61.6751 43.2815C61.6186 43.1643 61.5895 43.0357 61.5899 42.9056V16.3833C61.5901 16.0381 61.5224 15.6962 61.3904 15.3772C61.2584 15.0582 61.0648 14.7684 60.8208 14.5244C60.5767 14.2804 60.2869 14.0869 59.968 13.9551C59.6491 13.8233 59.3073 13.7558 58.9623 13.7564H53.5736C53.228 13.7566 52.8858 13.825 52.5666 13.9576C52.2474 14.0902 51.9574 14.2844 51.7132 14.5291C51.469 14.7739 51.2754 15.0643 51.1434 15.3839C51.0114 15.7035 50.9436 16.046 50.9438 16.3918V16.3918Z" fill="#C7F83C"/>
<path d="M161.047 16.3601V46.8917C161.047 47.676 161.357 48.4285 161.909 48.9847C162.462 49.5409 163.212 49.8556 163.996 49.8601L206.879 49.983C207.498 49.9853 208.094 49.743 208.535 49.3086C208.977 48.8743 209.229 48.2831 209.238 47.6635L209.386 36.8502C209.39 36.5386 209.332 36.2294 209.216 35.9404C209.099 35.6515 208.926 35.3885 208.708 35.1668C208.489 34.9451 208.228 34.7691 207.941 34.649C207.654 34.5288 207.345 34.467 207.034 34.467C190.73 34.431 188.319 44.6442 175.973 44.6442C173.53 44.6442 173.055 43.4675 173.055 41.3367V16.3537C173.055 16.0174 172.989 15.6845 172.859 15.3741C172.73 15.0638 172.54 14.7821 172.301 14.5455C172.063 14.309 171.779 14.1221 171.468 13.9957C171.156 13.8694 170.823 13.806 170.487 13.8094H163.602C163.267 13.8077 162.934 13.8725 162.624 14C162.313 14.1275 162.031 14.3152 161.794 14.5523C161.556 14.7894 161.368 15.0712 161.24 15.3815C161.111 15.6918 161.046 16.0243 161.047 16.3601V16.3601Z" fill="#C7F83C"/>
<path d="M0 4.27256V46.4656C0 47.3653 0.357207 48.2282 0.993041 48.8644C1.62887 49.5006 2.49125 49.858 3.39045 49.858L45.8432 49.9789C46.4624 49.9812 47.0575 49.7388 47.4992 49.3045C47.9408 48.8701 48.1933 48.2789 48.2016 47.6593L48.3542 36.6086C48.3581 36.3299 48.3071 36.0533 48.2041 35.7944C48.1011 35.5355 47.9481 35.2995 47.7538 35.0998C47.5596 34.9001 47.3279 34.7407 47.0721 34.6307C46.8162 34.5207 46.5412 34.4622 46.2627 34.4586C29.7194 34.3123 27.3482 44.6358 14.9371 44.6358C12.4938 44.6358 12.0192 43.4591 12.0192 41.3282V4.27256C12.0192 3.8227 11.8406 3.39126 11.5226 3.07316C11.2047 2.75506 10.7735 2.57635 10.3239 2.57635H1.69523C1.24562 2.57635 0.814437 2.75506 0.49652 3.07316C0.178604 3.39126 0 3.8227 0 4.27256H0Z" fill="#C7F83C"/>
<path d="M1.51727 29.8487H30.6836C34.1313 29.8487 36.1719 27.3425 36.1719 24.1833C36.1719 21.0242 34.1144 18.6707 29.5394 18.9421C24.5702 19.2283 21.2751 26.1509 10.7139 26.1509H1.51727V29.8487Z" fill="#C7F83C"/>
<path d="M1.51727 29.8487H30.6836C34.1313 29.8487 36.1719 27.3425 36.1719 24.1833C36.1719 21.0242 34.1144 18.6707 29.5394 18.9421C24.5702 19.2283 21.2751 26.1509 10.7139 26.1509H1.51727V29.8487Z" fill="#C7F83C"/>
<path d="M223.982 13.7818H216.464C215.129 13.7816 213.847 14.3067 212.896 15.2436C211.944 16.1806 211.399 17.4543 211.378 18.7898C211.295 24.1032 211.113 35.0055 211.346 48.3292C211.353 48.7743 211.535 49.1987 211.852 49.5108C212.169 49.823 212.597 49.9979 213.041 49.9978H223.982C224.432 49.9978 224.863 49.8191 225.181 49.501C225.499 49.1829 225.677 48.7515 225.677 48.3016V15.478C225.677 15.0281 225.499 14.5967 225.181 14.2786C224.863 13.9605 224.432 13.7818 223.982 13.7818Z" fill="#C7F83C"/>
<path d="M218.452 10.6988C221.571 10.6988 224.099 8.30379 224.099 5.3494C224.099 2.39501 221.571 0 218.452 0C215.333 0 212.804 2.39501 212.804 5.3494C212.804 8.30379 215.333 10.6988 218.452 10.6988Z" fill="#C7F83C"/>
</svg>
